<ttFont>
<head>
    <!-- Most of this table will be recalculated by the compiler -->
    <tableVersion value="1.0"/>
    <fontRevision value="2.202"/>
    <checkSumAdjustment value="0xf514d596"/>
    <magicNumber value="0x5f0f3cf5"/>
    <flags value="00000000 00000011"/>
    <unitsPerEm value="1000"/>
    <created value="Thu Mar 17 16:27:47 2016"/>
    <modified value="Thu Mar 17 16:31:57 2016"/>
    <xMin value="-81"/>
    <yMin value="-219"/>
    <xMax value="866"/>
    <yMax value="986"/>
    <macStyle value="00000000 00000000"/>
    <lowestRecPPEM value="5"/>
    <fontDirectionHint value="2"/>
    <indexToLocFormat value="0"/>
    <glyphDataFormat value="0"/>
  </head>
    <TTGlyph name=".notdef" xMin="0" yMin="-200" xMax="500" yMax="800">
      <contour>
        <pt x="0" y="-200" on="1"/>
        <pt x="0" y="800" on="1"/>
        <pt x="500" y="800" on="1"/>
        <pt x="500" y="-200" on="1"/>
      </contour>
      <contour>
        <pt x="71" y="750" on="1"/>
        <pt x="250" y="360" on="1"/>
        <pt x="429" y="750" on="1"/>
      </contour>
      <contour>
        <pt x="450" y="676" on="1"/>
        <pt x="278" y="300" on="1"/>
        <pt x="450" y="-76" on="1"/>
      </contour>
      <contour>
        <pt x="50" y="-76" on="1"/>
        <pt x="222" y="300" on="1"/>
        <pt x="50" y="676" on="1"/>
      </contour>
      <contour>
        <pt x="250" y="240" on="1"/>
        <pt x="71" y="-150" on="1"/>
        <pt x="429" y="-150" on="1"/>
      </contour>
    </TTGlyph>
    <TTGlyph name="A" xMin="37" yMin="-6" xMax="547" yMax="694">
      <contour>
        <pt x="501" y="-6" on="1"/>
        <pt x="422" y="237" on="1"/>
        <pt x="162" y="237" on="1"/>
        <pt x="85" y="0" on="1"/>
        <pt x="37" y="0" on="1"/>
        <pt x="267" y="694" on="1"/>
        <pt x="318" y="694" on="1"/>
        <pt x="547" y="5" on="1"/>
      </contour>
      <contour>
        <pt x="292" y="635" on="1"/>
        <pt x="176" y="278" on="1"/>
        <pt x="408" y="278" on="1"/>
      </contour>
    </TTGlyph>
    <TTGlyph name="A.flat" xMin="37" yMin="0" xMax="549" yMax="694">
      <contour>
        <pt x="292" y="635" on="1"/>
        <pt x="176" y="278" on="1"/>
        <pt x="408" y="278" on="1"/>
      </contour>
      <contour>
        <pt x="500" y="0" on="1"/>
        <pt x="422" y="237" on="1"/>
        <pt x="162" y="237" on="1"/>
        <pt x="85" y="0" on="1"/>
        <pt x="37" y="0" on="1"/>
        <pt x="267" y="694" on="1"/>
        <pt x="318" y="694" on="1"/>
        <pt x="549" y="0" on="1"/>
      </contour>
    </TTGlyph>
    <TTGlyph name="AE" xMin="21" yMin="0" xMax="728" yMax="690">
      <contour>
        <pt x="405" y="278" on="1"/>
        <pt x="405" y="659" on="1"/>
        <pt x="211" y="278" on="1"/>
      </contour>
      <contour>
        <pt x="405" y="0" on="1"/>
        <pt x="405" y="237" on="1"/>
        <pt x="190" y="237" on="1"/>
        <pt x="69" y="0" on="1"/>
        <pt x="21" y="0" on="1"/>
        <pt x="375" y="690" on="1"/>
        <pt x="718" y="690" on="1"/>
        <pt x="718" y="649" on="1"/>
        <pt x="451" y="649" on="1"/>
        <pt x="451" y="383" on="1"/>
        <pt x="665" y="383" on="1"/>
        <pt x="671" y="341" on="1"/>
        <pt x="451" y="341" on="1"/>
        <pt x="451" y="42" on="1"/>
        <pt x="728" y="42" on="1"/>
        <pt x="728" y="0" on="1"/>
      </contour>
    </TTGlyph>
    <TTGlyph name="AE.flat" xMin="21" yMin="0" xMax="728" yMax="690">
      <contour>
        <pt x="405" y="278" on="1"/>
        <pt x="405" y="659" on="1"/>
        <pt x="211" y="278" on="1"/>
      </contour>
      <contour>
        <pt x="405" y="0" on="1"/>
        <pt x="405" y="237" on="1"/>
        <pt x="190" y="237" on="1"/>
        <pt x="69" y="0" on="1"/>
        <pt x="21" y="0" on="1"/>
        <pt x="375" y="690" on="1"/>
        <pt x="718" y="690" on="1"/>
        <pt x="718" y="649" on="1"/>
        <pt x="451" y="649" on="1"/>
        <pt x="451" y="383" on="1"/>
        <pt x="668" y="383" on="1"/>
        <pt x="668" y="341" on="1"/>
        <pt x="451" y="341" on="1"/>
        <pt x="451" y="42" on="1"/>
        <pt x="728" y="42" on="1"/>
        <pt x="728" y="0" on="1"/>
      </contour>
    </TTGlyph>
    <TTGlyph name="AEacute" xMin="21" yMin="0" xMax="728" yMax="881">
      <component glyphName="AE" x="0" y="0" flags="0x204"/>
      <component glyphName="acute" x="312" y="205" flags="0x4"/>
    </TTGlyph>
    <TTGlyph name="AEacute.flat" xMin="21" yMin="0" xMax="728" yMax="881">
      <component glyphName="AE.flat" x="0" y="0" flags="0x4"/>
      <component glyphName="acute" x="312" y="205" flags="0x4"/>
    </TTGlyph>
    <TTGlyph name="Aacute" xMin="37" yMin="-6" xMax="547" yMax="891">
      <component glyphName="A" x="0" y="0" flags="0x204"/>
      <component glyphName="acute" x="140" y="215" flags="0x4"/>
    </TTGlyph>
    <TTGlyph name="Aacute.flat" xMin="37" yMin="0" xMax="549" yMax="891">
      <component glyphName="A.flat" x="0" y="0" flags="0x204"/>
      <component glyphName="acute" x="140" y="215" flags="0x4"/>
    </TTGlyph>
    <TTGlyph name="Abreve" xMin="37" yMin="-6" xMax="547" yMax="867">
      <component glyphName="A" x="0" y="0" flags="0x204"/>
      <component glyphName="breve" x="88" y="215" flags="0x4"/>
    </TTGlyph>
    <TTGlyph name="Abreve.flat" xMin="37" yMin="0" xMax="549" yMax="867">
      <component glyphName="A.flat" x="0" y="0" flags="0x204"/>
      <component glyphName="breve" x="89" y="215" flags="0x4"/>
    </TTGlyph>
    <TTGlyph name="Acircumflex" xMin="37" yMin="-6" xMax="547" yMax="880">
      <component glyphName="A" x="0" y="0" flags="0x204"/>
      <component glyphName="circumflex" x="88" y="205" flags="0x4"/>
    </TTGlyph>
    <TTGlyph name="Acircumflex.flat" xMin="37" yMin="0" xMax="549" yMax="880">
      <component glyphName="A.flat" x="0" y="0" flags="0x204"/>
      <component glyphName="circumflex" x="88" y="205" flags="0x4"/>
    </TTGlyph>
    <TTGlyph name="Adieresis" xMin="37" yMin="-6" xMax="547" yMax="836">
      <component glyphName="A" x="0" y="0" flags="0x204"/>
      <component glyphName="dieresis" x="88" y="215" flags="0x4"/>
    </TTGlyph>
    <TTGlyph name="Adieresis.flat" xMin="37" yMin="0" xMax="549" yMax="836">
      <component glyphName="A.flat" x="0" y="0" flags="0x204"/>
      <component glyphName="dieresis" x="88" y="215" flags="0x4"/>
    </TTGlyph>
    <TTGlyph name="Agrave" xMin="37" yMin="-6" xMax="547" yMax="891">
      <component glyphName="A" x="0" y="0" flags="0x204"/>
      <component glyphName="grave" x="34" y="215" flags="0x4"/>
    </TTGlyph>
    <TTGlyph name="Agrave.flat" xMin="37" yMin="0" xMax="549" yMax="891">
      <component glyphName="A.flat" x="0" y="0" flags="0x204"/>
      <component glyphName="grave" x="34" y="215" flags="0x4"/>
    </TTGlyph>
    <TTGlyph name="Amacron" xMin="37" yMin="-6" xMax="547" yMax="824">
      <component glyphName="A" x="0" y="0" flags="0x204"/>
      <component glyphName="macron" x="88" y="215" flags="0x4"/>
    </TTGlyph>
    <TTGlyph name="Amacron.flat" xMin="37" yMin="0" xMax="549" yMax="824">
      <component glyphName="A.flat" x="0" y="0" flags="0x204"/>
      <component glyphName="macron" x="89" y="215" flags="0x4"/>
    </TTGlyph>
    <TTGlyph name="Aogonek" xMin="37" yMin="-162" xMax="568" yMax="694">
      <component glyphName="A" x="0" y="0" flags="0x204"/>
      <component glyphName="ogonek" x="307" y="0" flags="0x4"/>
    </TTGlyph>
    <TTGlyph name="Aogonek.flat" xMin="37" yMin="-162" xMax="569" yMax="694">
      <component glyphName="A.flat" x="0" y="0" flags="0x4"/>
      <component glyphName="ogonek" x="308" y="0" flags="0x4"/>
    </TTGlyph>
    <TTGlyph name="Aring" xMin="37" yMin="-6" xMax="547" yMax="822">
      <contour>
        <pt x="501" y="-6" on="1"/>
        <pt x="422" y="237" on="1"/>
        <pt x="162" y="237" on="1"/>
        <pt x="85" y="0" on="1"/>
        <pt x="37" y="0" on="1"/>
        <pt x="254" y="655" on="1"/>
        <pt x="232" y="665" on="0"/>
        <pt x="204" y="707" on="0"/>
        <pt x="204" y="734" on="1"/>
        <pt x="204" y="771" on="0"/>
        <pt x="255" y="822" on="0"/>
        <pt x="292" y="822" on="1"/>
        <pt x="329" y="822" on="0"/>
        <pt x="380" y="771" on="0"/>
        <pt x="380" y="734" on="1"/>
        <pt x="380" y="707" on="0"/>
        <pt x="353" y="665" on="0"/>
        <pt x="331" y="655" on="1"/>
        <pt x="547" y="5" on="1"/>
      </contour>
      <contour>
        <pt x="346" y="734" on="1"/>
        <pt x="346" y="758" on="0"/>
        <pt x="315" y="790" on="0"/>
        <pt x="292" y="790" on="1"/>
        <pt x="269" y="790" on="0"/>
        <pt x="238" y="758" on="0"/>
        <pt x="238" y="734" on="1"/>
        <pt x="238" y="710" on="0"/>
        <pt x="269" y="678" on="0"/>
        <pt x="292" y="678" on="1"/>
        <pt x="315" y="678" on="0"/>
        <pt x="346" y="710" on="0"/>
      </contour>
      <contour>
        <pt x="292" y="635" on="1"/>
        <pt x="176" y="278" on="1"/>
        <pt x="408" y="278" on="1"/>
      </contour>
    </TTGlyph>
    <TTGlyph name="Aring.flat" xMin="37" yMin="0" xMax="549" yMax="822">
      <contour>
        <pt x="346" y="734" on="1"/>
        <pt x="346" y="758" on="0"/>
        <pt x="315" y="790" on="0"/>
        <pt x="292" y="790" on="1"/>
        <pt x="269" y="790" on="0"/>
        <pt x="238" y="758" on="0"/>
        <pt x="238" y="734" on="1"/>
        <pt x="238" y="710" on="0"/>
        <pt x="269" y="678" on="0"/>
        <pt x="292" y="678" on="1"/>
        <pt x="315" y="678" on="0"/>
        <pt x="346" y="710" on="0"/>
      </contour>
      <contour>
        <pt x="292" y="635" on="1"/>
        <pt x="176" y="278" on="1"/>
        <pt x="408" y="278" on="1"/>
      </contour>
      <contour>
        <pt x="500" y="0" on="1"/>
        <pt x="422" y="237" on="1"/>
        <pt x="162" y="237" on="1"/>
        <pt x="85" y="0" on="1"/>
        <pt x="37" y="0" on="1"/>
        <pt x="254" y="655" on="1"/>
        <pt x="232" y="665" on="0"/>
        <pt x="204" y="707" on="0"/>
        <pt x="204" y="734" on="1"/>
        <pt x="204" y="771" on="0"/>
        <pt x="255" y="822" on="0"/>
        <pt x="292" y="822" on="1"/>
        <pt x="329" y="822" on="0"/>
        <pt x="380" y="771" on="0"/>
        <pt x="380" y="734" on="1"/>
        <pt x="380" y="707" on="0"/>
        <pt x="353" y="665" on="0"/>
        <pt x="331" y="655" on="1"/>
        <pt x="549" y="0" on="1"/>
      </contour>
    </TTGlyph>
    <TTGlyph name="Aringacute" xMin="37" yMin="-6" xMax="547" yMax="986">
      <component glyphName="acute" x="135" y="310" flags="0x4"/>
      <component glyphName="Aring" x="0" y="0" flags="0x204"/>
    </TTGlyph>
    <TTGlyph name="Aringacute.flat" xMin="37" yMin="0" xMax="549" yMax="986">
      <component glyphName="Aring.flat" x="0" y="0" flags="0x204"/>
      <component glyphName="acute" x="135" y="310" flags="0x4"/>
    </TTGlyph>
    <TTGlyph name="Atilde" xMin="37" yMin="-6" xMax="547" yMax="857">
      <component glyphName="A" x="0" y="0" flags="0x204"/>
      <component glyphName="tilde" x="91" y="215" flags="0x4"/>
    </TTGlyph>
    <TTGlyph name="Atilde.flat" xMin="37" yMin="0" xMax="549" yMax="857">
      <component glyphName="A.flat" x="0" y="0" flags="0x204"/>
      <component glyphName="tilde" x="92" y="215" flags="0x4"/>
    </TTGlyph>
    <TTGlyph name="B" xMin="82" yMin="0" xMax="449" yMax="690">
      <contour>
        <pt x="449" y="193" on="1"/>
        <pt x="449" y="147" on="0"/>
        <pt x="415" y="75" on="0"/>
        <pt x="355" y="26" on="0"/>
        <pt x="271" y="0" on="0"/>
        <pt x="221" y="0" on="1"/>
        <pt x="82" y="0" on="1"/>
        <pt x="82" y="690" on="1"/>
        <pt x="221" y="690" on="1"/>
        <pt x="316" y="690" on="0"/>
        <pt x="420" y="601" on="0"/>
        <pt x="420" y="525" on="1"/>
        <pt x="420" y="466" on="0"/>
        <pt x="355" y="386" on="0"/>
        <pt x="309" y="367" on="1"/>
        <pt x="372" y="349" on="0"/>
        <pt x="449" y="265" on="0"/>
      </contour>
      <contour>
        <pt x="372" y="522" on="1"/>
        <pt x="372" y="582" on="0"/>
        <pt x="294" y="649" on="0"/>
        <pt x="219" y="649" on="1"/>
        <pt x="129" y="649" on="1"/>
        <pt x="129" y="382" on="1"/>
        <pt x="217" y="382" on="1"/>
        <pt x="292" y="382" on="0"/>
        <pt x="372" y="465" on="0"/>
      </contour>
      <contour>
        <pt x="401" y="190" on="1"/>
        <pt x="401" y="268" on="0"/>
        <pt x="301" y="342" on="0"/>
        <pt x="218" y="342" on="1"/>
        <pt x="129" y="342" on="1"/>
        <pt x="129" y="42" on="1"/>
        <pt x="223" y="42" on="1"/>
        <pt x="305" y="42" on="0"/>
        <pt x="401" y="122" on="0"/>
      </contour>
    </TTGlyph>
    <TTGlyph name="C" xMin="53" yMin="-11" xMax="496" yMax="701">
      <contour>
        <pt x="496" y="48" on="1"/>
        <pt x="463" y="24" on="0"/>
        <pt x="372" y="-11" on="0"/>
        <pt x="320" y="-11" on="1"/>
        <pt x="260" y="-11" on="0"/>
        <pt x="161" y="39" on="0"/>
        <pt x="92" y="131" on="0"/>
        <pt x="53" y="263" on="0"/>
        <pt x="53" y="344" on="1"/>
        <pt x="53" y="423" on="0"/>
        <pt x="93" y="555" on="0"/>
        <pt x="165" y="649" on="0"/>
        <pt x="265" y="701" on="0"/>
        <pt x="324" y="701" on="1"/>
        <pt x="373" y="701" on="0"/>
        <pt x="454" y="672" on="0"/>
        <pt x="485" y="650" on="1"/>
        <pt x="477" y="601" on="1"/>
        <pt x="443" y="627" on="0"/>
        <pt x="368" y="659" on="0"/>
        <pt x="324" y="659" on="1"/>
        <pt x="273" y="659" on="0"/>
        <pt x="190" y="611" on="0"/>
        <pt x="133" y="527" on="0"/>
        <pt x="102" y="412" on="0"/>
        <pt x="102" y="346" on="1"/>
        <pt x="102" y="278" on="0"/>
        <pt x="132" y="162" on="0"/>
        <pt x="189" y="78" on="0"/>
        <pt x="272" y="31" on="0"/>
        <pt x="324" y="31" on="1"/>
        <pt x="372" y="31" on="0"/>
        <pt x="455" y="67" on="0"/>
        <pt x="489" y="94" on="1"/>
      </contour>
    </TTGlyph>
    <TTGlyph name="Cacute" xMin="53" yMin="-11" xMax="496" yMax="891">
      <component glyphName="C" x="0" y="0" flags="0x204"/>
      <component glyphName="acute" x="164" y="215" flags="0x4"/>
    </TTGlyph>
    <TTGlyph name="Ccaron" xMin="53" yMin="-11" xMax="496" yMax="890">
      <component glyphName="C" x="0" y="0" flags="0x204"/>
      <component glyphName="caron" x="112" y="215" flags="0x4"/>
    </TTGlyph>
    <TTGlyph name="Ccedilla" xMin="53" yMin="-184" xMax="496" yMax="701">
      <component glyphName="C" x="0" y="0" flags="0x204"/>
      <component glyphName="cedilla" x="99" y="0" flags="0x4"/>
    </TTGlyph>
    <TTGlyph name="Cdotaccent" xMin="53" yMin="-11" xMax="496" yMax="836">
      <component glyphName="C" x="0" y="0" flags="0x204"/>
      <component glyphName="dotaccent" x="113" y="215" flags="0x4"/>
    </TTGlyph>
    <TTGlyph name="D" xMin="82" yMin="0" xMax="538" yMax="690">
      <contour>
        <pt x="538" y="347" on="1"/>
        <pt x="538" y="265" on="0"/>
        <pt x="492" y="136" on="0"/>
        <pt x="409" y="47" on="0"/>
        <pt x="290" y="0" on="0"/>
        <pt x="218" y="0" on="1"/>
        <pt x="82" y="0" on="1"/>
        <pt x="82" y="690" on="1"/>
        <pt x="219" y="690" on="1"/>
        <pt x="294" y="690" on="0"/>
        <pt x="414" y="641" on="0"/>
        <pt x="495" y="552" on="0"/>
        <pt x="538" y="425" on="0"/>
      </contour>
      <contour>
        <pt x="489" y="345" on="1"/>
        <pt x="489" y="491" on="0"/>
        <pt x="342" y="649" on="0"/>
        <pt x="220" y="649" on="1"/>
        <pt x="129" y="649" on="1"/>
        <pt x="129" y="42" on="1"/>
        <pt x="223" y="42" on="1"/>
        <pt x="343" y="42" on="0"/>
        <pt x="489" y="196" on="0"/>
      </contour>
    </TTGlyph>
    <TTGlyph name="Dcaron" xMin="82" yMin="0" xMax="538" yMax="880">
      <component glyphName="D" x="0" y="0" flags="0x204"/>
      <component glyphName="caron" x="71" y="205" flags="0x4"/>
    </TTGlyph>
    <TTGlyph name="Dcroat" xMin="11" yMin="0" xMax="545" yMax="690">
      <component glyphName="Eth" x="0" y="0" flags="0x204"/>
    </TTGlyph>
    <TTGlyph name="Dcroat.flat" xMin="15" yMin="0" xMax="545" yMax="690">
      <component glyphName="Eth.flat" x="0" y="0" flags="0x204"/>
    </TTGlyph>
    <TTGlyph name="E" xMin="82" yMin="0" xMax="411" yMax="690">
      <contour>
        <pt x="411" y="0" on="1"/>
        <pt x="82" y="0" on="1"/>
        <pt x="82" y="690" on="1"/>
        <pt x="401" y="690" on="1"/>
        <pt x="401" y="648" on="1"/>
        <pt x="129" y="648" on="1"/>
        <pt x="129" y="383" on="1"/>
        <pt x="347" y="383" on="1"/>
        <pt x="354" y="341" on="1"/>
        <pt x="129" y="341" on="1"/>
        <pt x="129" y="42" on="1"/>
        <pt x="411" y="42" on="1"/>
      </contour>
    </TTGlyph>
    <TTGlyph name="E.flat" xMin="82" yMin="0" xMax="411" yMax="690">
      <contour>
        <pt x="411" y="0" on="1"/>
        <pt x="82" y="0" on="1"/>
        <pt x="82" y="690" on="1"/>
        <pt x="401" y="690" on="1"/>
        <pt x="401" y="648" on="1"/>
        <pt x="129" y="648" on="1"/>
        <pt x="129" y="383" on="1"/>
        <pt x="351" y="383" on="1"/>
        <pt x="351" y="341" on="1"/>
        <pt x="129" y="341" on="1"/>
        <pt x="129" y="42" on="1"/>
        <pt x="411" y="42" on="1"/>
      </contour>
    </TTGlyph>
    <TTGlyph name="Eacute" xMin="82" yMin="0" xMax="411" yMax="881">
      <component glyphName="E" x="0" y="0" flags="0x4"/>
      <component glyphName="acute" x="92" y="205" flags="0x4"/>
    </TTGlyph>
    <TTGlyph name="Eacute.flat" xMin="82" yMin="0" xMax="411" yMax="881">
      <component glyphName="E.flat" x="0" y="0" flags="0x4"/>
      <component glyphName="acute" x="92" y="205" flags="0x4"/>
    </TTGlyph>
    <TTGlyph name="Ebreve" xMin="82" yMin="0" xMax="411" yMax="857">
      <component glyphName="E" x="0" y="0" flags="0x4"/>
      <component glyphName="breve" x="41" y="205" flags="0x4"/>
    </TTGlyph>
    <TTGlyph name="Ebreve.flat" xMin="82" yMin="0" xMax="411" yMax="857">
      <component glyphName="E.flat" x="0" y="0" flags="0x4"/>
      <component glyphName="breve" x="41" y="205" flags="0x4"/>
    </TTGlyph>
    <TTGlyph name="Ecaron" xMin="82" yMin="0" xMax="411" yMax="880">
      <component glyphName="E" x="0" y="0" flags="0x4"/>
      <component glyphName="caron" x="40" y="205" flags="0x4"/>
    </TTGlyph>
    <TTGlyph name="Ecaron.flat" xMin="82" yMin="0" xMax="411" yMax="880">
      <component glyphName="E.flat" x="0" y="0" flags="0x4"/>
      <component glyphName="caron" x="40" y="205" flags="0x4"/>
    </TTGlyph>
    <TTGlyph name="Ecircumflex" xMin="82" yMin="0" xMax="411" yMax="880">
      <component glyphName="E" x="0" y="0" flags="0x4"/>
      <component glyphName="circumflex" x="40" y="205" flags="0x4"/>
    </TTGlyph>
    <TTGlyph name="Ecircumflex.flat" xMin="82" yMin="0" xMax="411" yMax="880">
      <component glyphName="E.flat" x="0" y="0" flags="0x4"/>
      <component glyphName="circumflex" x="40" y="205" flags="0x4"/>
    </TTGlyph>
    <TTGlyph name="Edieresis" xMin="82" yMin="0" xMax="411" yMax="826">
      <component glyphName="E" x="0" y="0" flags="0x4"/>
      <component glyphName="dieresis" x="40" y="205" flags="0x4"/>
    </TTGlyph>
    <TTGlyph name="Edieresis.flat" xMin="82" yMin="0" xMax="411" yMax="826">
      <component glyphName="E.flat" x="0" y="0" flags="0x4"/>
      <component glyphName="dieresis" x="40" y="205" flags="0x4"/>
    </TTGlyph>
    <TTGlyph name="Edotaccent" xMin="82" yMin="0" xMax="411" yMax="826">
      <component glyphName="E" x="0" y="0" flags="0x4"/>
      <component glyphName="dotaccent" x="41" y="205" flags="0x4"/>
    </TTGlyph>
    <TTGlyph name="Edotaccent.flat" xMin="82" yMin="0" xMax="411" yMax="826">
      <component glyphName="E.flat" x="0" y="0" flags="0x4"/>
      <component glyphName="dotaccent" x="41" y="205" flags="0x4"/>
    </TTGlyph>
    <TTGlyph name="Egrave" xMin="82" yMin="0" xMax="411" yMax="881">
      <component glyphName="E" x="0" y="0" flags="0x4"/>
      <component glyphName="grave" x="-14" y="205" flags="0x4"/>
    </TTGlyph>
    <TTGlyph name="Egrave.flat" xMin="82" yMin="0" xMax="411" yMax="881">
      <component glyphName="E.flat" x="0" y="0" flags="0x4"/>
      <component glyphName="grave" x="-14" y="205" flags="0x4"/>
    </TTGlyph>
    <TTGlyph name="Emacron" xMin="82" yMin="0" xMax="411" yMax="814">
      <component glyphName="E" x="0" y="0" flags="0x4"/>
      <component glyphName="macron" x="41" y="205" flags="0x4"/>
    </TTGlyph>
    <TTGlyph name="Emacron.flat" xMin="82" yMin="0" xMax="411" yMax="814">
      <component glyphName="E.flat" x="0" y="0" flags="0x4"/>
      <component glyphName="macron" x="41" y="205" flags="0x4"/>
    </TTGlyph>
    <TTGlyph name="Eogonek" xMin="82" yMin="-162" xMax="422" yMax="690">
      <component glyphName="E" x="0" y="0" flags="0x4"/>
      <component glyphName="ogonek" x="161" y="0" flags="0x4"/>
    </TTGlyph>
    <TTGlyph name="Eogonek.flat" xMin="82" yMin="-162" xMax="422" yMax="690">
      <component glyphName="E.flat" x="0" y="0" flags="0x4"/>
      <component glyphName="ogonek" x="161" y="0" flags="0x4"/>
    </TTGlyph>
    <TTGlyph name="Eth" xMin="11" yMin="0" xMax="545" yMax="690">
      <contour>
        <pt x="226" y="0" on="1"/>
        <pt x="90" y="0" on="1"/>
        <pt x="90" y="341" on="1"/>
        <pt x="19" y="341" on="1"/>
        <pt x="11" y="382" on="1"/>
        <pt x="90" y="382" on="1"/>
        <pt x="90" y="690" on="1"/>
        <pt x="226" y="690" on="1"/>
        <pt x="302" y="690" on="0"/>
        <pt x="421" y="641" on="0"/>
        <pt x="502" y="552" on="0"/>
        <pt x="545" y="425" on="0"/>
        <pt x="545" y="347" on="1"/>
        <pt x="545" y="265" on="0"/>
        <pt x="499" y="136" on="0"/>
        <pt x="416" y="47" on="0"/>
        <pt x="298" y="0" on="0"/>
      </contour>
      <contour>
        <pt x="137" y="42" on="1"/>
        <pt x="231" y="42" on="1"/>
        <pt x="351" y="42" on="0"/>
        <pt x="497" y="196" on="0"/>
        <pt x="497" y="345" on="1"/>
        <pt x="497" y="491" on="0"/>
        <pt x="350" y="649" on="0"/>
        <pt x="228" y="649" on="1"/>
        <pt x="137" y="649" on="1"/>
        <pt x="137" y="382" on="1"/>
        <pt x="284" y="382" on="1"/>
        <pt x="284" y="341" on="1"/>
        <pt x="137" y="341" on="1"/>
      </contour>
    </TTGlyph>
    <TTGlyph name="Eth.flat" xMin="15" yMin="0" xMax="545" yMax="690">
      <contour>
        <pt x="226" y="0" on="1"/>
        <pt x="90" y="0" on="1"/>
        <pt x="90" y="341" on="1"/>
        <pt x="15" y="341" on="1"/>
        <pt x="15" y="382" on="1"/>
        <pt x="90" y="382" on="1"/>
        <pt x="90" y="690" on="1"/>
        <pt x="226" y="690" on="1"/>
        <pt x="302" y="690" on="0"/>
        <pt x="421" y="641" on="0"/>
        <pt x="502" y="552" on="0"/>
        <pt x="545" y="425" on="0"/>
        <pt x="545" y="347" on="1"/>
        <pt x="545" y="265" on="0"/>
        <pt x="499" y="136" on="0"/>
        <pt x="416" y="47" on="0"/>
        <pt x="298" y="0" on="0"/>
      </contour>
      <contour>
        <pt x="137" y="42" on="1"/>
        <pt x="231" y="42" on="1"/>
        <pt x="351" y="42" on="0"/>
        <pt x="497" y="196" on="0"/>
        <pt x="497" y="345" on="1"/>
        <pt x="497" y="491" on="0"/>
        <pt x="350" y="649" on="0"/>
        <pt x="228" y="649" on="1"/>
        <pt x="137" y="649" on="1"/>
        <pt x="137" y="382" on="1"/>
        <pt x="284" y="382" on="1"/>
        <pt x="284" y="341" on="1"/>
        <pt x="137" y="341" on="1"/>
      </contour>
    </TTGlyph>
    <TTGlyph name="Euro" xMin="27" yMin="-11" xMax="496" yMax="694">
      <contour>
        <pt x="496" y="44" on="1"/>
        <pt x="462" y="19" on="0"/>
        <pt x="386" y="-11" on="0"/>
        <pt x="339" y="-11" on="1"/>
        <pt x="252" y="-11" on="0"/>
        <pt x="130" y="124" on="0"/>
        <pt x="114" y="250" on="1"/>
        <pt x="33" y="250" on="1"/>
        <pt x="27" y="289" on="1"/>
        <pt x="110" y="289" on="1"/>
        <pt x="109" y="302" on="0"/>
        <pt x="108" y="328" on="0"/>
        <pt x="108" y="341" on="1"/>
        <pt x="108" y="361" on="0"/>
        <pt x="110" y="400" on="0"/>
        <pt x="112" y="418" on="1"/>
        <pt x="30" y="418" on="1"/>
        <pt x="30" y="457" on="1"/>
        <pt x="118" y="457" on="1"/>
        <pt x="140" y="570" on="0"/>
        <pt x="261" y="694" on="0"/>
        <pt x="343" y="694" on="1"/>
        <pt x="386" y="694" on="0"/>
        <pt x="456" y="668" on="0"/>
        <pt x="486" y="646" on="1"/>
        <pt x="478" y="600" on="1"/>
        <pt x="447" y="625" on="0"/>
        <pt x="382" y="654" on="0"/>
        <pt x="342" y="654" on="1"/>
        <pt x="275" y="654" on="0"/>
        <pt x="182" y="548" on="0"/>
        <pt x="164" y="457" on="1"/>
        <pt x="390" y="457" on="1"/>
        <pt x="397" y="418" on="1"/>
        <pt x="158" y="418" on="1"/>
        <pt x="156" y="400" on="0"/>
        <pt x="153" y="362" on="0"/>
        <pt x="153" y="342" on="1"/>
        <pt x="153" y="328" on="0"/>
        <pt x="154" y="302" on="0"/>
        <pt x="155" y="289" on="1"/>
        <pt x="394" y="289" on="1"/>
        <pt x="394" y="250" on="1"/>
        <pt x="160" y="250" on="1"/>
        <pt x="175" y="145" on="0"/>
        <pt x="272" y="29" on="0"/>
        <pt x="341" y="29" on="1"/>
        <pt x="382" y="29" on="0"/>
        <pt x="452" y="56" on="0"/>
        <pt x="491" y="87" on="1"/>
      </contour>
    </TTGlyph>
    <TTGlyph name="Euro.flat" xMin="30" yMin="-11" xMax="496" yMax="694">
      <contour>
        <pt x="496" y="44" on="1"/>
        <pt x="462" y="19" on="0"/>
        <pt x="386" y="-11" on="0"/>
        <pt x="339" y="-11" on="1"/>
        <pt x="252" y="-11" on="0"/>
        <pt x="130" y="124" on="0"/>
        <pt x="114" y="250" on="1"/>
        <pt x="30" y="250" on="1"/>
        <pt x="30" y="289" on="1"/>
        <pt x="110" y="289" on="1"/>
        <pt x="109" y="302" on="0"/>
        <pt x="108" y="328" on="0"/>
        <pt x="108" y="341" on="1"/>
        <pt x="108" y="361" on="0"/>
        <pt x="110" y="400" on="0"/>
        <pt x="112" y="418" on="1"/>
        <pt x="30" y="418" on="1"/>
        <pt x="30" y="457" on="1"/>
        <pt x="118" y="457" on="1"/>
        <pt x="140" y="570" on="0"/>
        <pt x="261" y="694" on="0"/>
        <pt x="343" y="694" on="1"/>
        <pt x="386" y="694" on="0"/>
        <pt x="456" y="668" on="0"/>
        <pt x="486" y="646" on="1"/>
        <pt x="478" y="600" on="1"/>
        <pt x="447" y="625" on="0"/>
        <pt x="382" y="654" on="0"/>
        <pt x="342" y="654" on="1"/>
        <pt x="275" y="654" on="0"/>
        <pt x="182" y="548" on="0"/>
        <pt x="164" y="457" on="1"/>
        <pt x="394" y="457" on="1"/>
        <pt x="394" y="418" on="1"/>
        <pt x="158" y="418" on="1"/>
        <pt x="156" y="400" on="0"/>
        <pt x="153" y="362" on="0"/>
        <pt x="153" y="342" on="1"/>
        <pt x="153" y="328" on="0"/>
        <pt x="154" y="302" on="0"/>
        <pt x="155" y="289" on="1"/>
        <pt x="394" y="289" on="1"/>
        <pt x="394" y="250" on="1"/>
        <pt x="160" y="250" on="1"/>
        <pt x="175" y="145" on="0"/>
        <pt x="272" y="29" on="0"/>
        <pt x="341" y="29" on="1"/>
        <pt x="382" y="29" on="0"/>
        <pt x="452" y="56" on="0"/>
        <pt x="491" y="87" on="1"/>
      </contour>
    </TTGlyph>
    <TTGlyph name="Euro.tab" xMin="29" yMin="-10" xMax="466" yMax="693">
      <contour>
        <pt x="466" y="43" on="1"/>
        <pt x="434" y="18" on="0"/>
        <pt x="364" y="-10" on="0"/>
        <pt x="321" y="-10" on="1"/>
        <pt x="237" y="-10" on="0"/>
        <pt x="125" y="125" on="0"/>
        <pt x="110" y="251" on="1"/>
        <pt x="36" y="251" on="1"/>
        <pt x="29" y="289" on="1"/>
        <pt x="107" y="289" on="1"/>
        <pt x="106" y="302" on="0"/>
        <pt x="105" y="328" on="0"/>
        <pt x="105" y="341" on="1"/>
        <pt x="105" y="361" on="0"/>
        <pt x="107" y="400" on="0"/>
        <pt x="109" y="418" on="1"/>
        <pt x="32" y="418" on="1"/>
        <pt x="32" y="456" on="1"/>
        <pt x="114" y="456" on="1"/>
        <pt x="133" y="566" on="0"/>
        <pt x="243" y="693" on="0"/>
        <pt x="323" y="693" on="1"/>
        <pt x="363" y="693" on="0"/>
        <pt x="428" y="669" on="0"/>
        <pt x="455" y="647" on="1"/>
        <pt x="448" y="601" on="1"/>
        <pt x="418" y="626" on="0"/>
        <pt x="359" y="655" on="0"/>
        <pt x="322" y="655" on="1"/>
        <pt x="260" y="655" on="0"/>
        <pt x="174" y="547" on="0"/>
        <pt x="158" y="456" on="1"/>
        <pt x="371" y="456" on="1"/>
        <pt x="377" y="418" on="1"/>
        <pt x="153" y="418" on="1"/>
        <pt x="151" y="400" on="0"/>
        <pt x="149" y="362" on="0"/>
        <pt x="149" y="342" on="1"/>
        <pt x="149" y="329" on="0"/>
        <pt x="150" y="302" on="0"/>
        <pt x="151" y="289" on="1"/>
        <pt x="375" y="289" on="1"/>
        <pt x="375" y="251" on="1"/>
        <pt x="155" y="251" on="1"/>
        <pt x="168" y="147" on="0"/>
        <pt x="257" y="29" on="0"/>
        <pt x="323" y="29" on="1"/>
        <pt x="361" y="29" on="0"/>
        <pt x="423" y="54" on="0"/>
        <pt x="460" y="85" on="1"/>
      </contour>
    </TTGlyph>
    <TTGlyph name="Euro.tab_flat" xMin="32" yMin="-10" xMax="466" yMax="693">
      <contour>
        <pt x="466" y="43" on="1"/>
        <pt x="434" y="18" on="0"/>
        <pt x="364" y="-10" on="0"/>
        <pt x="321" y="-10" on="1"/>
        <pt x="237" y="-10" on="0"/>
        <pt x="125" y="125" on="0"/>
        <pt x="110" y="251" on="1"/>
        <pt x="32" y="251" on="1"/>
        <pt x="32" y="289" on="1"/>
        <pt x="107" y="289" on="1"/>
        <pt x="106" y="302" on="0"/>
        <pt x="105" y="328" on="0"/>
        <pt x="105" y="341" on="1"/>
        <pt x="105" y="361" on="0"/>
        <pt x="107" y="400" on="0"/>
        <pt x="109" y="418" on="1"/>
        <pt x="32" y="418" on="1"/>
        <pt x="32" y="456" on="1"/>
        <pt x="114" y="456" on="1"/>
        <pt x="133" y="566" on="0"/>
        <pt x="243" y="693" on="0"/>
        <pt x="323" y="693" on="1"/>
        <pt x="363" y="693" on="0"/>
        <pt x="428" y="669" on="0"/>
        <pt x="455" y="647" on="1"/>
        <pt x="448" y="601" on="1"/>
        <pt x="418" y="626" on="0"/>
        <pt x="359" y="655" on="0"/>
        <pt x="322" y="655" on="1"/>
        <pt x="260" y="655" on="0"/>
        <pt x="174" y="547" on="0"/>
        <pt x="158" y="456" on="1"/>
        <pt x="375" y="456" on="1"/>
        <pt x="375" y="418" on="1"/>
        <pt x="153" y="418" on="1"/>
        <pt x="151" y="400" on="0"/>
        <pt x="149" y="362" on="0"/>
        <pt x="149" y="342" on="1"/>
        <pt x="149" y="329" on="0"/>
        <pt x="150" y="302" on="0"/>
        <pt x="151" y="289" on="1"/>
        <pt x="375" y="289" on="1"/>
        <pt x="375" y="251" on="1"/>
        <pt x="155" y="251" on="1"/>
        <pt x="168" y="147" on="0"/>
        <pt x="257" y="29" on="0"/>
        <pt x="323" y="29" on="1"/>
        <pt x="361" y="29" on="0"/>
        <pt x="423" y="54" on="0"/>
        <pt x="460" y="85" on="1"/>
      </contour>
    </TTGlyph>
    <TTGlyph name="F" xMin="82" yMin="0" xMax="390" yMax="690">
      <contour>
        <pt x="390" y="648" on="1"/>
        <pt x="129" y="648" on="1"/>
        <pt x="129" y="372" on="1"/>
        <pt x="339" y="372" on="1"/>
        <pt x="346" y="330" on="1"/>
        <pt x="129" y="330" on="1"/>
        <pt x="129" y="0" on="1"/>
        <pt x="82" y="0" on="1"/>
        <pt x="82" y="690" on="1"/>
        <pt x="390" y="690" on="1"/>
      </contour>
    </TTGlyph>
    <TTGlyph name="F.flat" xMin="82" yMin="0" xMax="390" yMax="690">
      <contour>
        <pt x="390" y="648" on="1"/>
        <pt x="129" y="648" on="1"/>
        <pt x="129" y="372" on="1"/>
        <pt x="342" y="372" on="1"/>
        <pt x="342" y="330" on="1"/>
        <pt x="129" y="330" on="1"/>
        <pt x="129" y="0" on="1"/>
        <pt x="82" y="0" on="1"/>
        <pt x="82" y="690" on="1"/>
        <pt x="390" y="690" on="1"/>
      </contour>
    </TTGlyph>
    <TTGlyph name="G" xMin="53" yMin="-10" xMax="514" yMax="701">
      <contour>
        <pt x="514" y="55" on="1"/>
        <pt x="471" y="24" on="0"/>
        <pt x="377" y="-10" on="0"/>
        <pt x="321" y="-10" on="1"/>
        <pt x="259" y="-10" on="0"/>
        <pt x="160" y="41" on="0"/>
        <pt x="91" y="134" on="0"/>
        <pt x="53" y="265" on="0"/>
        <pt x="53" y="344" on="1"/>
        <pt x="53" y="421" on="0"/>
        <pt x="91" y="553" on="0"/>
        <pt x="160" y="647" on="0"/>
        <pt x="259" y="701" on="0"/>
        <pt x="320" y="701" on="1"/>
        <pt x="371" y="701" on="0"/>
        <pt x="456" y="673" on="0"/>
        <pt x="493" y="646" on="1"/>
        <pt x="485" y="597" on="1"/>
        <pt x="448" y="627" on="0"/>
        <pt x="368" y="660" on="0"/>
        <pt x="319" y="660" on="1"/>
        <pt x="268" y="660" on="0"/>
        <pt x="187" y="613" on="0"/>
        <pt x="132" y="529" on="0"/>
        <pt x="102" y="414" on="0"/>
        <pt x="102" y="346" on="1"/>
        <pt x="102" y="277" on="0"/>
        <pt x="131" y="161" on="0"/>
        <pt x="187" y="78" on="0"/>
        <pt x="271" y="31" on="0"/>
        <pt x="324" y="31" on="1"/>
        <pt x="367" y="31" on="0"/>
        <pt x="436" y="54" on="0"/>
        <pt x="468" y="76" on="1"/>
        <pt x="468" y="311" on="1"/>
        <pt x="320" y="311" on="1"/>
        <pt x="314" y="353" on="1"/>
        <pt x="514" y="353" on="1"/>
      </contour>
    </TTGlyph>
    <TTGlyph name="G.flat" xMin="53" yMin="-10" xMax="514" yMax="701">
      <contour>
        <pt x="514" y="55" on="1"/>
        <pt x="471" y="24" on="0"/>
        <pt x="377" y="-10" on="0"/>
        <pt x="321" y="-10" on="1"/>
        <pt x="259" y="-10" on="0"/>
        <pt x="160" y="41" on="0"/>
        <pt x="91" y="134" on="0"/>
        <pt x="53" y="265" on="0"/>
        <pt x="53" y="344" on="1"/>
        <pt x="53" y="421" on="0"/>
        <pt x="91" y="553" on="0"/>
        <pt x="160" y="647" on="0"/>
        <pt x="259" y="701" on="0"/>
        <pt x="320" y="701" on="1"/>
        <pt x="371" y="701" on="0"/>
        <pt x="456" y="673" on="0"/>
        <pt x="493" y="646" on="1"/>
        <pt x="485" y="597" on="1"/>
        <pt x="448" y="627" on="0"/>
        <pt x="368" y="660" on="0"/>
        <pt x="319" y="660" on="1"/>
        <pt x="268" y="660" on="0"/>
        <pt x="187" y="613" on="0"/>
        <pt x="132" y="529" on="0"/>
        <pt x="102" y="414" on="0"/>
        <pt x="102" y="346" on="1"/>
        <pt x="102" y="277" on="0"/>
        <pt x="131" y="161" on="0"/>
        <pt x="187" y="78" on="0"/>
        <pt x="271" y="31" on="0"/>
        <pt x="324" y="31" on="1"/>
        <pt x="367" y="31" on="0"/>
        <pt x="436" y="54" on="0"/>
        <pt x="468" y="76" on="1"/>
        <pt x="468" y="311" on="1"/>
        <pt x="317" y="311" on="1"/>
        <pt x="317" y="353" on="1"/>
        <pt x="514" y="353" on="1"/>
      </contour>
    </TTGlyph>
    <TTGlyph name="Gbreve" xMin="53" yMin="-10" xMax="514" yMax="867">
      <component glyphName="G" x="0" y="0" flags="0x204"/>
      <component glyphName="breve" x="111" y="215" flags="0x4"/>
    </TTGlyph>
    <TTGlyph name="Gbreve.flat" xMin="53" yMin="-10" xMax="514" yMax="867">
      <component glyphName="G.flat" x="0" y="0" flags="0x204"/>
      <component glyphName="breve" x="111" y="215" flags="0x4"/>
    </TTGlyph>
    <TTGlyph name="Gcommaaccent" xMin="53" yMin="-219" xMax="514" yMax="701">
      <component glyphName="G" x="0" y="0" flags="0x204"/>
      <component glyphName="commaaccent" x="124" y="0" flags="0x4"/>
    </TTGlyph>
    <TTGlyph name="Gcommaaccent.flat" xMin="53" yMin="-219" xMax="514" yMax="701">
      <component glyphName="G.flat" x="0" y="0" flags="0x204"/>
      <component glyphName="commaaccent" x="125" y="0" flags="0x4"/>
    </TTGlyph>
    <TTGlyph name="Gdotaccent" xMin="53" yMin="-10" xMax="514" yMax="836">
      <component glyphName="G" x="0" y="0" flags="0x204"/>
      <component glyphName="dotaccent" x="111" y="215" flags="0x4"/>
    </TTGlyph>
    <TTGlyph name="Gdotaccent.flat" xMin="53" yMin="-10" xMax="514" yMax="836">
      <component glyphName="G.flat" x="0" y="0" flags="0x204"/>
      <component glyphName="dotaccent" x="111" y="215" flags="0x4"/>
    </TTGlyph>
    <TTGlyph name="H" xMin="82" yMin="0" xMax="520" yMax="690">
      <contour>
        <pt x="520" y="0" on="1"/>
        <pt x="473" y="0" on="1"/>
        <pt x="473" y="341" on="1"/>
        <pt x="129" y="341" on="1"/>
        <pt x="129" y="0" on="1"/>
        <pt x="82" y="0" on="1"/>
        <pt x="82" y="690" on="1"/>
        <pt x="129" y="690" on="1"/>
        <pt x="129" y="383" on="1"/>
        <pt x="473" y="383" on="1"/>
        <pt x="473" y="690" on="1"/>
        <pt x="520" y="690" on="1"/>
      </contour>
    </TTGlyph>
    <TTGlyph name="Hbar" xMin="11" yMin="0" xMax="602" yMax="690">
      <contour>
        <pt x="137" y="378" on="1"/>
        <pt x="480" y="378" on="1"/>
        <pt x="480" y="531" on="1"/>
        <pt x="137" y="531" on="1"/>
      </contour>
      <contour>
        <pt x="137" y="336" on="1"/>
        <pt x="137" y="0" on="1"/>
        <pt x="90" y="0" on="1"/>
        <pt x="90" y="531" on="1"/>
        <pt x="19" y="531" on="1"/>
        <pt x="11" y="570" on="1"/>
        <pt x="90" y="570" on="1"/>
        <pt x="90" y="690" on="1"/>
        <pt x="137" y="690" on="1"/>
        <pt x="137" y="570" on="1"/>
        <pt x="480" y="570" on="1"/>
        <pt x="480" y="690" on="1"/>
        <pt x="527" y="690" on="1"/>
        <pt x="527" y="570" on="1"/>
        <pt x="602" y="570" on="1"/>
        <pt x="602" y="531" on="1"/>
        <pt x="527" y="531" on="1"/>
        <pt x="527" y="0" on="1"/>
        <pt x="480" y="0" on="1"/>
        <pt x="480" y="336" on="1"/>
      </contour>
    </TTGlyph>
    <TTGlyph name="Hbar.flat" xMin="15" yMin="0" xMax="602" yMax="690">
      <contour>
        <pt x="137" y="378" on="1"/>
        <pt x="480" y="378" on="1"/>
        <pt x="480" y="531" on="1"/>
        <pt x="137" y="531" on="1"/>
      </contour>
      <contour>
        <pt x="137" y="336" on="1"/>
        <pt x="137" y="0" on="1"/>
        <pt x="90" y="0" on="1"/>
        <pt x="90" y="531" on="1"/>
        <pt x="15" y="531" on="1"/>
        <pt x="15" y="570" on="1"/>
        <pt x="90" y="570" on="1"/>
        <pt x="90" y="690" on="1"/>
        <pt x="137" y="690" on="1"/>
        <pt x="137" y="570" on="1"/>
        <pt x="480" y="570" on="1"/>
        <pt x="480" y="690" on="1"/>
        <pt x="527" y="690" on="1"/>
        <pt x="527" y="570" on="1"/>
        <pt x="602" y="570" on="1"/>
        <pt x="602" y="531" on="1"/>
        <pt x="527" y="531" on="1"/>
        <pt x="527" y="0" on="1"/>
        <pt x="480" y="0" on="1"/>
        <pt x="480" y="336" on="1"/>
      </contour>
    </TTGlyph>
    <TTGlyph name="I" xMin="91" yMin="0" xMax="138" yMax="690">
      <contour>
        <pt x="138" y="0" on="1"/>
        <pt x="91" y="0" on="1"/>
        <pt x="91" y="690" on="1"/>
        <pt x="138" y="690" on="1"/>
      </contour>
    </TTGlyph>
    <TTGlyph name="Iacute" xMin="91" yMin="0" xMax="242" yMax="881">
      <component glyphName="I" x="0" y="0" flags="0x204"/>
      <component glyphName="acute" x="-39" y="205" flags="0x4"/>
    </TTGlyph>
    <TTGlyph name="Ibreve" xMin="6" yMin="0" xMax="222" yMax="857">
      <component glyphName="I" x="0" y="0" flags="0x204"/>
      <component glyphName="breve" x="-90" y="205" flags="0x4"/>
    </TTGlyph>
    <TTGlyph name="Icircumflex" xMin="3" yMin="0" xMax="224" yMax="880">
      <component glyphName="I" x="0" y="0" flags="0x204"/>
      <component glyphName="circumflex" x="-91" y="205" flags="0x4"/>
    </TTGlyph>
    <TTGlyph name="Idieresis" xMin="11" yMin="0" xMax="216" yMax="826">
      <component glyphName="I" x="0" y="0" flags="0x204"/>
      <component glyphName="dieresis" x="-91" y="205" flags="0x4"/>
    </TTGlyph>
    <TTGlyph name="Idotaccent" xMin="82" yMin="0" xMax="147" yMax="826">
      <component glyphName="I" x="0" y="0" flags="0x204"/>
      <component glyphName="dotaccent" x="-90" y="205" flags="0x4"/>
    </TTGlyph>
    <TTGlyph name="Igrave" xMin="-13" yMin="0" xMax="138" yMax="881">
      <component glyphName="I" x="0" y="0" flags="0x204"/>
      <component glyphName="grave" x="-145" y="205" flags="0x4"/>
    </TTGlyph>
    <TTGlyph name="Imacron" xMin="2" yMin="0" xMax="227" yMax="814">
      <component glyphName="I" x="0" y="0" flags="0x204"/>
      <component glyphName="macron" x="-90" y="205" flags="0x4"/>
    </TTGlyph>
    <TTGlyph name="Iogonek" xMin="42" yMin="-162" xMax="164" yMax="690">
      <component glyphName="I" x="0" y="0" flags="0x204"/>
      <component glyphName="ogonek" x="-97" y="0" flags="0x4"/>
    </TTGlyph>
    <TTGlyph name="J" xMin="22" yMin="-6" xMax="232" yMax="690">
      <contour>
        <pt x="232" y="147" on="1"/>
        <pt x="232" y="69" on="0"/>
        <pt x="152" y="-6" on="0"/>
        <pt x="91" y="-6" on="1"/>
        <pt x="73" y="-6" on="0"/>
        <pt x="42" y="-1" on="0"/>
        <pt x="29" y="3" on="1"/>
        <pt x="22" y="47" on="1"/>
        <pt x="38" y="43" on="0"/>
        <pt x="73" y="37" on="0"/>
        <pt x="89" y="37" on="1"/>
        <pt x="135" y="37" on="0"/>
        <pt x="185" y="92" on="0"/>
        <pt x="185" y="146" on="1"/>
        <pt x="185" y="690" on="1"/>
        <pt x="232" y="690" on="1"/>
      </contour>
    </TTGlyph>
    <TTGlyph name="K" xMin="82" yMin="-7" xMax="500" yMax="690">
      <contour>
        <pt x="500" y="4" on="1"/>
        <pt x="447" y="-7" on="1"/>
        <pt x="129" y="357" on="1"/>
        <pt x="129" y="0" on="1"/>
        <pt x="82" y="0" on="1"/>
        <pt x="82" y="690" on="1"/>
        <pt x="129" y="690" on="1"/>
        <pt x="129" y="374" on="1"/>
        <pt x="427" y="690" on="1"/>
        <pt x="486" y="690" on="1"/>
        <pt x="179" y="369" on="1"/>
      </contour>
    </TTGlyph>
    <TTGlyph name="K.flat" xMin="82" yMin="0" xMax="503" yMax="690">
      <contour>
        <pt x="503" y="0" on="1"/>
        <pt x="441" y="0" on="1"/>
        <pt x="129" y="357" on="1"/>
        <pt x="129" y="0" on="1"/>
        <pt x="82" y="0" on="1"/>
        <pt x="82" y="690" on="1"/>
        <pt x="129" y="690" on="1"/>
        <pt x="129" y="374" on="1"/>
        <pt x="427" y="690" on="1"/>
        <pt x="486" y="690" on="1"/>
        <pt x="179" y="369" on="1"/>
      </contour>
    </TTGlyph>
    <TTGlyph name="Kcommaaccent" xMin="82" yMin="-219" xMax="500" yMax="690">
      <component glyphName="K" x="0" y="0" flags="0x4"/>
      <component glyphName="commaaccent" x="67" y="0" flags="0x4"/>
    </TTGlyph>
    <TTGlyph name="Kcommaaccent.flat" xMin="82" yMin="-219" xMax="503" yMax="690">
      <component glyphName="K.flat" x="0" y="0" flags="0x4"/>
      <component glyphName="commaaccent" x="67" y="0" flags="0x4"/>
    </TTGlyph>
    <TTGlyph name="L" xMin="82" yMin="0" xMax="388" yMax="690">
      <contour>
        <pt x="388" y="0" on="1"/>
        <pt x="82" y="0" on="1"/>
        <pt x="82" y="690" on="1"/>
        <pt x="129" y="690" on="1"/>
        <pt x="129" y="42" on="1"/>
        <pt x="381" y="42" on="1"/>
      </contour>
    </TTGlyph>
    <TTGlyph name="L.flat" xMin="82" yMin="0" xMax="385" yMax="690">
      <contour>
        <pt x="385" y="0" on="1"/>
        <pt x="82" y="0" on="1"/>
        <pt x="82" y="690" on="1"/>
        <pt x="129" y="690" on="1"/>
        <pt x="129" y="42" on="1"/>
        <pt x="385" y="42" on="1"/>
      </contour>
    </TTGlyph>
    <TTGlyph name="Lacute" xMin="82" yMin="0" xMax="388" yMax="881">
      <component glyphName="L" x="0" y="0" flags="0x204"/>
      <component glyphName="acute" x="-38" y="205" flags="0x4"/>
    </TTGlyph>
    <TTGlyph name="Lacute.flat" xMin="82" yMin="0" xMax="385" yMax="881">
      <component glyphName="L.flat" x="0" y="0" flags="0x204"/>
      <component glyphName="acute" x="-38" y="205" flags="0x4"/>
    </TTGlyph>
    <TTGlyph name="Lcaron" xMin="82" yMin="0" xMax="388" yMax="692">
      <component glyphName="L" x="0" y="0" flags="0x204"/>
      <component glyphName="caron.alt" x="35" y="-21" flags="0x4"/>
    </TTGlyph>
    <TTGlyph name="Lcaron.flat" xMin="82" yMin="0" xMax="385" yMax="692">
      <component glyphName="L.flat" x="0" y="0" flags="0x204"/>
      <component glyphName="caron.alt" x="35" y="-21" flags="0x4"/>
    </TTGlyph>
    <TTGlyph name="Lcommaaccent" xMin="82" yMin="-219" xMax="388" yMax="690">
      <component glyphName="L" x="0" y="0" flags="0x204"/>
      <component glyphName="commaaccent" x="35" y="0" flags="0x4"/>
    </TTGlyph>
    <TTGlyph name="Lcommaaccent.flat" xMin="82" yMin="-219" xMax="385" yMax="690">
      <component glyphName="L.flat" x="0" y="0" flags="0x204"/>
      <component glyphName="commaaccent" x="36" y="0" flags="0x4"/>
    </TTGlyph>
    <TTGlyph name="Ldot" xMin="82" yMin="0" xMax="388" yMax="690">
      <contour>
        <pt x="388" y="0" on="1"/>
        <pt x="82" y="0" on="1"/>
        <pt x="82" y="690" on="1"/>
        <pt x="129" y="690" on="1"/>
        <pt x="129" y="42" on="1"/>
        <pt x="381" y="42" on="1"/>
      </contour>
      <contour>
        <pt x="334" y="313" on="1"/>
        <pt x="275" y="313" on="1"/>
        <pt x="275" y="391" on="1"/>
        <pt x="334" y="391" on="1"/>
      </contour>
    </TTGlyph>
    <TTGlyph name="Ldot.flat" xMin="82" yMin="0" xMax="385" yMax="690">
      <contour>
        <pt x="385" y="0" on="1"/>
        <pt x="82" y="0" on="1"/>
        <pt x="82" y="690" on="1"/>
        <pt x="129" y="690" on="1"/>
        <pt x="129" y="42" on="1"/>
        <pt x="385" y="42" on="1"/>
      </contour>
      <contour>
        <pt x="334" y="313" on="1"/>
        <pt x="275" y="313" on="1"/>
        <pt x="275" y="391" on="1"/>
        <pt x="334" y="391" on="1"/>
      </contour>
    </TTGlyph>
    <TTGlyph name="Lslash" xMin="11" yMin="0" xMax="395" yMax="690">
      <contour>
        <pt x="395" y="0" on="1"/>
        <pt x="90" y="0" on="1"/>
        <pt x="90" y="295" on="1"/>
        <pt x="18" y="255" on="1"/>
        <pt x="11" y="297" on="1"/>
        <pt x="90" y="340" on="1"/>
        <pt x="90" y="690" on="1"/>
        <pt x="137" y="690" on="1"/>
        <pt x="137" y="366" on="1"/>
        <pt x="274" y="443" on="1"/>
        <pt x="274" y="397" on="1"/>
        <pt x="137" y="321" on="1"/>
        <pt x="137" y="42" on="1"/>
        <pt x="389" y="42" on="1"/>
      </contour>
    </TTGlyph>
    <TTGlyph name="Lslash.flat" xMin="16" yMin="0" xMax="392" yMax="690">
      <contour>
        <pt x="392" y="0" on="1"/>
        <pt x="90" y="0" on="1"/>
        <pt x="90" y="295" on="1"/>
        <pt x="16" y="254" on="1"/>
        <pt x="16" y="300" on="1"/>
        <pt x="90" y="340" on="1"/>
        <pt x="90" y="690" on="1"/>
        <pt x="137" y="690" on="1"/>
        <pt x="137" y="366" on="1"/>
        <pt x="274" y="443" on="1"/>
        <pt x="274" y="397" on="1"/>
        <pt x="137" y="321" on="1"/>
        <pt x="137" y="42" on="1"/>
        <pt x="392" y="42" on="1"/>
      </contour>
    </TTGlyph>
    <TTGlyph name="M" xMin="68" yMin="-4" xMax="713" yMax="690">
      <contour>
        <pt x="713" y="0" on="1"/>
        <pt x="667" y="0" on="1"/>
        <pt x="629" y="613" on="1"/>
        <pt x="408" y="-4" on="1"/>
        <pt x="371" y="-4" on="1"/>
        <pt x="150" y="613" on="1"/>
        <pt x="112" y="0" on="1"/>
        <pt x="68" y="0" on="1"/>
        <pt x="114" y="690" on="1"/>
        <pt x="169" y="690" on="1"/>
        <pt x="391" y="66" on="1"/>
        <pt x="613" y="690" on="1"/>
        <pt x="668" y="690" on="1"/>
      </contour>
    </TTGlyph>
    <TTGlyph name="M.alt" xMin="83" yMin="-4" xMax="678" yMax="690">
      <contour>
        <pt x="678" y="0" on="1"/>
        <pt x="633" y="0" on="1"/>
        <pt x="633" y="612" on="1"/>
        <pt x="398" y="-4" on="1"/>
        <pt x="361" y="-4" on="1"/>
        <pt x="126" y="612" on="1"/>
        <pt x="126" y="0" on="1"/>
        <pt x="83" y="0" on="1"/>
        <pt x="83" y="690" on="1"/>
        <pt x="143" y="690" on="1"/>
        <pt x="381" y="60" on="1"/>
        <pt x="619" y="690" on="1"/>
        <pt x="678" y="690" on="1"/>
      </contour>
    </TTGlyph>
    <TTGlyph name="N" xMin="82" yMin="0" xMax="518" yMax="690">
      <contour>
        <pt x="518" y="0" on="1"/>
        <pt x="479" y="0" on="1"/>
        <pt x="127" y="609" on="1"/>
        <pt x="127" y="0" on="1"/>
        <pt x="82" y="0" on="1"/>
        <pt x="82" y="690" on="1"/>
        <pt x="130" y="690" on="1"/>
        <pt x="473" y="97" on="1"/>
        <pt x="473" y="690" on="1"/>
        <pt x="518" y="690" on="1"/>
      </contour>
    </TTGlyph>
    <TTGlyph name="Nacute" xMin="82" yMin="0" xMax="518" yMax="881">
      <component glyphName="N" x="0" y="0" flags="0x204"/>
      <component glyphName="acute" x="151" y="205" flags="0x4"/>
    </TTGlyph>
    <TTGlyph name="Ncaron" xMin="82" yMin="0" xMax="518" yMax="880">
      <component glyphName="N" x="0" y="0" flags="0x204"/>
      <component glyphName="caron" x="99" y="205" flags="0x4"/>
    </TTGlyph>
    <TTGlyph name="Ncommaaccent" xMin="82" yMin="-219" xMax="518" yMax="690">
      <component glyphName="N" x="0" y="0" flags="0x204"/>
      <component glyphName="commaaccent" x="113" y="0" flags="0x4"/>
    </TTGlyph>
    <TTGlyph name="Ntilde" xMin="82" yMin="0" xMax="518" yMax="847">
      <component glyphName="N" x="0" y="0" flags="0x204"/>
      <component glyphName="tilde" x="102" y="205" flags="0x4"/>
    </TTGlyph>
    <TTGlyph name="O" xMin="53" yMin="-11" xMax="578" yMax="701">
      <contour>
        <pt x="578" y="346" on="1"/>
        <pt x="578" y="267" on="0"/>
        <pt x="539" y="134" on="0"/>
        <pt x="470" y="41" on="0"/>
        <pt x="372" y="-11" on="0"/>
        <pt x="315" y="-11" on="1"/>
        <pt x="257" y="-11" on="0"/>
        <pt x="160" y="41" on="0"/>
        <pt x="91" y="133" on="0"/>
        <pt x="53" y="265" on="0"/>
        <pt x="53" y="344" on="1"/>
        <pt x="53" y="423" on="0"/>
        <pt x="92" y="556" on="0"/>
        <pt x="162" y="649" on="0"/>
        <pt x="259" y="701" on="0"/>
        <pt x="317" y="701" on="1"/>
        <pt x="374" y="701" on="0"/>
        <pt x="471" y="650" on="0"/>
        <pt x="540" y="557" on="0"/>
        <pt x="578" y="425" on="0"/>
      </contour>
      <contour>
        <pt x="530" y="344" on="1"/>
        <pt x="530" y="412" on="0"/>
        <pt x="500" y="528" on="0"/>
        <pt x="444" y="612" on="0"/>
        <pt x="365" y="660" on="0"/>
        <pt x="316" y="660" on="1"/>
        <pt x="266" y="660" on="0"/>
        <pt x="187" y="612" on="0"/>
        <pt x="132" y="529" on="0"/>
        <pt x="102" y="413" on="0"/>
        <pt x="102" y="346" on="1"/>
        <pt x="102" y="278" on="0"/>
        <pt x="132" y="163" on="0"/>
        <pt x="187" y="79" on="0"/>
        <pt x="267" y="31" on="0"/>
        <pt x="316" y="31" on="1"/>
        <pt x="365" y="31" on="0"/>
        <pt x="445" y="78" on="0"/>
        <pt x="500" y="162" on="0"/>
        <pt x="530" y="277" on="0"/>
      </contour>
    </TTGlyph>
    <TTGlyph name="OE" xMin="52" yMin="0" xMax="738" yMax="690">
      <contour>
        <pt x="738" y="0" on="1"/>
        <pt x="371" y="0" on="1"/>
        <pt x="296" y="0" on="0"/>
        <pt x="176" y="49" on="0"/>
        <pt x="95" y="138" on="0"/>
        <pt x="52" y="266" on="0"/>
        <pt x="52" y="344" on="1"/>
        <pt x="52" y="425" on="0"/>
        <pt x="98" y="555" on="0"/>
        <pt x="181" y="643" on="0"/>
        <pt x="300" y="690" on="0"/>
        <pt x="372" y="690" on="1"/>
        <pt x="728" y="690" on="1"/>
        <pt x="728" y="649" on="1"/>
        <pt x="462" y="649" on="1"/>
        <pt x="462" y="383" on="1"/>
        <pt x="674" y="383" on="1"/>
        <pt x="681" y="341" on="1"/>
        <pt x="462" y="341" on="1"/>
        <pt x="462" y="42" on="1"/>
        <pt x="738" y="42" on="1"/>
      </contour>
      <contour>
        <pt x="415" y="42" on="1"/>
        <pt x="415" y="649" on="1"/>
        <pt x="366" y="649" on="1"/>
        <pt x="247" y="649" on="0"/>
        <pt x="101" y="494" on="0"/>
        <pt x="101" y="345" on="1"/>
        <pt x="101" y="199" on="0"/>
        <pt x="247" y="42" on="0"/>
        <pt x="369" y="42" on="1"/>
      </contour>
    </TTGlyph>
    <TTGlyph name="OE.flat" xMin="52" yMin="0" xMax="738" yMax="690">
      <contour>
        <pt x="738" y="0" on="1"/>
        <pt x="371" y="0" on="1"/>
        <pt x="296" y="0" on="0"/>
        <pt x="176" y="49" on="0"/>
        <pt x="95" y="138" on="0"/>
        <pt x="52" y="266" on="0"/>
        <pt x="52" y="344" on="1"/>
        <pt x="52" y="425" on="0"/>
        <pt x="98" y="555" on="0"/>
        <pt x="181" y="643" on="0"/>
        <pt x="300" y="690" on="0"/>
        <pt x="372" y="690" on="1"/>
        <pt x="728" y="690" on="1"/>
        <pt x="728" y="649" on="1"/>
        <pt x="462" y="649" on="1"/>
        <pt x="462" y="383" on="1"/>
        <pt x="677" y="383" on="1"/>
        <pt x="677" y="341" on="1"/>
        <pt x="462" y="341" on="1"/>
        <pt x="462" y="42" on="1"/>
        <pt x="738" y="42" on="1"/>
      </contour>
      <contour>
        <pt x="415" y="42" on="1"/>
        <pt x="415" y="649" on="1"/>
        <pt x="366" y="649" on="1"/>
        <pt x="247" y="649" on="0"/>
        <pt x="101" y="494" on="0"/>
        <pt x="101" y="345" on="1"/>
        <pt x="101" y="199" on="0"/>
        <pt x="247" y="42" on="0"/>
        <pt x="369" y="42" on="1"/>
      </contour>
    </TTGlyph>
    <TTGlyph name="Oacute" xMin="53" yMin="-11" xMax="578" yMax="891">
      <component glyphName="O" x="0" y="0" flags="0x4"/>
      <component glyphName="acute" x="164" y="215" flags="0x4"/>
    </TTGlyph>
    <TTGlyph name="Obreve" xMin="53" yMin="-11" xMax="578" yMax="867">
      <component glyphName="O" x="0" y="0" flags="0x4"/>
      <component glyphName="breve" x="112" y="215" flags="0x4"/>
    </TTGlyph>
    <TTGlyph name="Ocircumflex" xMin="53" yMin="-11" xMax="578" yMax="890">
      <component glyphName="O" x="0" y="0" flags="0x4"/>
      <component glyphName="circumflex" x="112" y="215" flags="0x4"/>
    </TTGlyph>
    <TTGlyph name="Odieresis" xMin="53" yMin="-11" xMax="578" yMax="836">
      <component glyphName="O" x="0" y="0" flags="0x4"/>
      <component glyphName="dieresis" x="112" y="215" flags="0x4"/>
    </TTGlyph>
    <TTGlyph name="Ograve" xMin="53" yMin="-11" xMax="578" yMax="891">
      <component glyphName="O" x="0" y="0" flags="0x4"/>
      <component glyphName="grave" x="58" y="215" flags="0x4"/>
    </TTGlyph>
    <TTGlyph name="Ohungarumlaut" xMin="53" yMin="-11" xMax="578" yMax="894">
      <component glyphName="O" x="0" y="0" flags="0x4"/>
      <component glyphName="hungarumlaut" x="161" y="215" flags="0x4"/>
    </TTGlyph>
    <TTGlyph name="Omacron" xMin="53" yMin="-11" xMax="578" yMax="824">
      <component glyphName="O" x="0" y="0" flags="0x4"/>
      <component glyphName="macron" x="112" y="215" flags="0x4"/>
    </TTGlyph>
    <TTGlyph name="Oslash" xMin="50" yMin="-11" xMax="583" yMax="701">
      <contour>
        <pt x="315" y="-11" on="1"/>
        <pt x="264" y="-11" on="0"/>
        <pt x="177" y="28" on="0"/>
        <pt x="144" y="65" on="1"/>
        <pt x="93" y="-7" on="1"/>
        <pt x="50" y="2" on="1"/>
        <pt x="118" y="98" on="1"/>
        <pt x="87" y="144" on="0"/>
        <pt x="53" y="269" on="0"/>
        <pt x="53" y="344" on="1"/>
        <pt x="53" y="423" on="0"/>
        <pt x="92" y="556" on="0"/>
        <pt x="161" y="649" on="0"/>
        <pt x="258" y="701" on="0"/>
        <pt x="317" y="701" on="1"/>
        <pt x="368" y="701" on="0"/>
        <pt x="455" y="662" on="0"/>
        <pt x="488" y="626" on="1"/>
        <pt x="539" y="697" on="1"/>
        <pt x="583" y="688" on="1"/>
        <pt x="514" y="592" on="1"/>
        <pt x="545" y="546" on="0"/>
        <pt x="579" y="421" on="0"/>
        <pt x="579" y="346" on="1"/>
        <pt x="579" y="267" on="0"/>
        <pt x="540" y="134" on="0"/>
        <pt x="471" y="41" on="0"/>
        <pt x="374" y="-11" on="0"/>
      </contour>
      <contour>
        <pt x="102" y="346" on="1"/>
        <pt x="102" y="285" on="0"/>
        <pt x="125" y="179" on="0"/>
        <pt x="147" y="138" on="1"/>
        <pt x="462" y="587" on="1"/>
        <pt x="435" y="621" on="0"/>
        <pt x="361" y="660" on="0"/>
        <pt x="315" y="660" on="1"/>
        <pt x="265" y="660" on="0"/>
        <pt x="185" y="613" on="0"/>
        <pt x="131" y="529" on="0"/>
        <pt x="102" y="414" on="0"/>
      </contour>
      <contour>
        <pt x="317" y="30" on="1"/>
        <pt x="367" y="30" on="0"/>
        <pt x="447" y="78" on="0"/>
        <pt x="502" y="161" on="0"/>
        <pt x="531" y="277" on="0"/>
        <pt x="531" y="344" on="1"/>
        <pt x="531" y="405" on="0"/>
        <pt x="507" y="512" on="0"/>
        <pt x="485" y="552" on="1"/>
        <pt x="170" y="104" on="1"/>
        <pt x="197" y="69" on="0"/>
        <pt x="271" y="30" on="0"/>
      </contour>
    </TTGlyph>
    <TTGlyph name="Oslashacute" xMin="50" yMin="-11" xMax="583" yMax="891">
      <component glyphName="Oslash" x="0" y="0" flags="0x204"/>
      <component glyphName="acute" x="164" y="215" flags="0x4"/>
    </TTGlyph>
    <TTGlyph name="Otilde" xMin="53" yMin="-11" xMax="578" yMax="857">
      <component glyphName="O" x="0" y="0" flags="0x4"/>
      <component glyphName="tilde" x="115" y="215" flags="0x4"/>
    </TTGlyph>
    <TTGlyph name="P" xMin="82" yMin="0" xMax="432" yMax="690">
      <contour>
        <pt x="82" y="0" on="1"/>
        <pt x="82" y="690" on="1"/>
        <pt x="217" y="690" on="1"/>
        <pt x="319" y="690" on="0"/>
        <pt x="432" y="589" on="0"/>
        <pt x="432" y="499" on="1"/>
        <pt x="432" y="403" on="0"/>
        <pt x="304" y="300" on="0"/>
        <pt x="203" y="300" on="1"/>
        <pt x="129" y="300" on="1"/>
        <pt x="129" y="0" on="1"/>
      </contour>
      <contour>
        <pt x="384" y="498" on="1"/>
        <pt x="384" y="570" on="0"/>
        <pt x="298" y="649" on="0"/>
        <pt x="214" y="649" on="1"/>
        <pt x="129" y="649" on="1"/>
        <pt x="129" y="342" on="1"/>
        <pt x="206" y="342" on="1"/>
        <pt x="293" y="342" on="0"/>
        <pt x="384" y="424" on="0"/>
      </contour>
    </TTGlyph>
    <TTGlyph name="Q" xMin="53" yMin="-135" xMax="579" yMax="701">
      <contour>
        <pt x="551" y="-135" on="1"/>
        <pt x="246" y="-4" on="1"/>
        <pt x="161" y="33" on="0"/>
        <pt x="53" y="195" on="0"/>
        <pt x="53" y="344" on="1"/>
        <pt x="53" y="423" on="0"/>
        <pt x="92" y="556" on="0"/>
        <pt x="162" y="649" on="0"/>
        <pt x="260" y="701" on="0"/>
        <pt x="317" y="701" on="1"/>
        <pt x="375" y="701" on="0"/>
        <pt x="472" y="650" on="0"/>
        <pt x="541" y="557" on="0"/>
        <pt x="579" y="425" on="0"/>
        <pt x="579" y="346" on="1"/>
        <pt x="579" y="195" on="0"/>
        <pt x="454" y="13" on="0"/>
        <pt x="356" y="-6" on="1"/>
        <pt x="559" y="-87" on="1"/>
      </contour>
      <contour>
        <pt x="530" y="344" on="1"/>
        <pt x="530" y="412" on="0"/>
        <pt x="500" y="528" on="0"/>
        <pt x="444" y="612" on="0"/>
        <pt x="365" y="660" on="0"/>
        <pt x="316" y="660" on="1"/>
        <pt x="266" y="660" on="0"/>
        <pt x="187" y="613" on="0"/>
        <pt x="132" y="530" on="0"/>
        <pt x="102" y="414" on="0"/>
        <pt x="102" y="346" on="1"/>
        <pt x="102" y="278" on="0"/>
        <pt x="132" y="162" on="0"/>
        <pt x="188" y="78" on="0"/>
        <pt x="267" y="30" on="0"/>
        <pt x="316" y="30" on="1"/>
        <pt x="366" y="30" on="0"/>
        <pt x="445" y="77" on="0"/>
        <pt x="500" y="160" on="0"/>
        <pt x="530" y="276" on="0"/>
      </contour>
    </TTGlyph>
    <TTGlyph name="Q.alt" xMin="53" yMin="-14" xMax="593" yMax="701">
      <contour>
        <pt x="584" y="-14" on="1"/>
        <pt x="491" y="70" on="1"/>
        <pt x="457" y="32" on="0"/>
        <pt x="367" y="-11" on="0"/>
        <pt x="315" y="-11" on="1"/>
        <pt x="257" y="-11" on="0"/>
        <pt x="160" y="41" on="0"/>
        <pt x="91" y="133" on="0"/>
        <pt x="53" y="265" on="0"/>
        <pt x="53" y="344" on="1"/>
        <pt x="53" y="423" on="0"/>
        <pt x="92" y="556" on="0"/>
        <pt x="162" y="649" on="0"/>
        <pt x="259" y="701" on="0"/>
        <pt x="317" y="701" on="1"/>
        <pt x="375" y="701" on="0"/>
        <pt x="472" y="650" on="0"/>
        <pt x="541" y="557" on="0"/>
        <pt x="579" y="425" on="0"/>
        <pt x="579" y="346" on="1"/>
        <pt x="579" y="274" on="0"/>
        <pt x="546" y="150" on="0"/>
        <pt x="516" y="104" on="1"/>
        <pt x="593" y="36" on="1"/>
      </contour>
      <contour>
        <pt x="316" y="31" on="1"/>
        <pt x="360" y="31" on="0"/>
        <pt x="432" y="67" on="0"/>
        <pt x="459" y="99" on="1"/>
        <pt x="306" y="231" on="1"/>
        <pt x="359" y="241" on="1"/>
        <pt x="483" y="133" on="1"/>
        <pt x="506" y="173" on="0"/>
        <pt x="531" y="281" on="0"/>
        <pt x="531" y="344" on="1"/>
        <pt x="531" y="412" on="0"/>
        <pt x="501" y="528" on="0"/>
        <pt x="445" y="612" on="0"/>
        <pt x="365" y="660" on="0"/>
        <pt x="316" y="660" on="1"/>
        <pt x="266" y="660" on="0"/>
        <pt x="187" y="613" on="0"/>
        <pt x="132" y="529" on="0"/>
        <pt x="102" y="414" on="0"/>
        <pt x="102" y="346" on="1"/>
        <pt x="102" y="278" on="0"/>
        <pt x="132" y="163" on="0"/>
        <pt x="187" y="79" on="0"/>
        <pt x="267" y="31" on="0"/>
      </contour>
    </TTGlyph>
    <TTGlyph name="Q.alt_flat" xMin="53" yMin="-17" xMax="589" yMax="701">
      <contour>
        <pt x="589" y="-17" on="1"/>
        <pt x="491" y="70" on="1"/>
        <pt x="457" y="31" on="0"/>
        <pt x="368" y="-11" on="0"/>
        <pt x="315" y="-11" on="1"/>
        <pt x="257" y="-11" on="0"/>
        <pt x="160" y="41" on="0"/>
        <pt x="91" y="133" on="0"/>
        <pt x="53" y="265" on="0"/>
        <pt x="53" y="344" on="1"/>
        <pt x="53" y="423" on="0"/>
        <pt x="92" y="556" on="0"/>
        <pt x="162" y="649" on="0"/>
        <pt x="259" y="701" on="0"/>
        <pt x="317" y="701" on="1"/>
        <pt x="375" y="701" on="0"/>
        <pt x="472" y="650" on="0"/>
        <pt x="541" y="557" on="0"/>
        <pt x="579" y="425" on="0"/>
        <pt x="579" y="346" on="1"/>
        <pt x="579" y="274" on="0"/>
        <pt x="547" y="150" on="0"/>
        <pt x="516" y="104" on="1"/>
        <pt x="589" y="41" on="1"/>
      </contour>
      <contour>
        <pt x="316" y="31" on="1"/>
        <pt x="360" y="31" on="0"/>
        <pt x="432" y="67" on="0"/>
        <pt x="459" y="98" on="1"/>
        <pt x="337" y="204" on="1"/>
        <pt x="337" y="262" on="1"/>
        <pt x="482" y="132" on="1"/>
        <pt x="506" y="173" on="0"/>
        <pt x="531" y="281" on="0"/>
        <pt x="531" y="344" on="1"/>
        <pt x="531" y="412" on="0"/>
        <pt x="501" y="528" on="0"/>
        <pt x="445" y="612" on="0"/>
        <pt x="365" y="660" on="0"/>
        <pt x="316" y="660" on="1"/>
        <pt x="266" y="660" on="0"/>
        <pt x="187" y="613" on="0"/>
        <pt x="132" y="529" on="0"/>
        <pt x="102" y="414" on="0"/>
        <pt x="102" y="346" on="1"/>
        <pt x="102" y="278" on="0"/>
        <pt x="132" y="163" on="0"/>
        <pt x="187" y="79" on="0"/>
        <pt x="267" y="31" on="0"/>
      </contour>
    </TTGlyph>
    <TTGlyph name="R" xMin="82" yMin="-7" xMax="481" yMax="690">
      <contour>
        <pt x="431" y="-7" on="1"/>
        <pt x="225" y="311" on="1"/>
        <pt x="129" y="311" on="1"/>
        <pt x="129" y="0" on="1"/>
        <pt x="82" y="0" on="1"/>
        <pt x="82" y="690" on="1"/>
        <pt x="220" y="690" on="1"/>
        <pt x="319" y="690" on="0"/>
        <pt x="432" y="590" on="0"/>
        <pt x="432" y="504" on="1"/>
        <pt x="432" y="428" on="0"/>
        <pt x="342" y="333" on="0"/>
        <pt x="276" y="319" on="1"/>
        <pt x="481" y="4" on="1"/>
      </contour>
      <contour>
        <pt x="384" y="503" on="1"/>
        <pt x="384" y="572" on="0"/>
        <pt x="298" y="649" on="0"/>
        <pt x="217" y="649" on="1"/>
        <pt x="129" y="649" on="1"/>
        <pt x="129" y="352" on="1"/>
        <pt x="207" y="352" on="1"/>
        <pt x="291" y="352" on="0"/>
        <pt x="384" y="433" on="0"/>
      </contour>
    </TTGlyph>
    <TTGlyph name="R.flat" xMin="82" yMin="0" xMax="483" yMax="690">
      <contour>
        <pt x="384" y="503" on="1"/>
        <pt x="384" y="572" on="0"/>
        <pt x="298" y="649" on="0"/>
        <pt x="217" y="649" on="1"/>
        <pt x="129" y="649" on="1"/>
        <pt x="129" y="352" on="1"/>
        <pt x="207" y="352" on="1"/>
        <pt x="291" y="352" on="0"/>
        <pt x="384" y="433" on="0"/>
      </contour>
      <contour>
        <pt x="129" y="0" on="1"/>
        <pt x="82" y="0" on="1"/>
        <pt x="82" y="690" on="1"/>
        <pt x="220" y="690" on="1"/>
        <pt x="319" y="690" on="0"/>
        <pt x="432" y="590" on="0"/>
        <pt x="432" y="504" on="1"/>
        <pt x="432" y="428" on="0"/>
        <pt x="342" y="333" on="0"/>
        <pt x="276" y="319" on="1"/>
        <pt x="483" y="0" on="1"/>
        <pt x="427" y="0" on="1"/>
        <pt x="225" y="311" on="1"/>
        <pt x="129" y="311" on="1"/>
      </contour>
    </TTGlyph>
    <TTGlyph name="R_p" xMin="87" yMin="-181" xMax="866" yMax="683">
      <contour>
        <pt x="421" y="-7" on="1"/>
        <pt x="225" y="311" on="1"/>
        <pt x="134" y="311" on="1"/>
        <pt x="134" y="0" on="1"/>
        <pt x="87" y="0" on="1"/>
        <pt x="87" y="683" on="1"/>
        <pt x="222" y="683" on="1"/>
        <pt x="321" y="683" on="0"/>
        <pt x="434" y="585" on="0"/>
        <pt x="434" y="500" on="1"/>
        <pt x="434" y="425" on="0"/>
        <pt x="343" y="332" on="0"/>
        <pt x="277" y="318" on="1"/>
        <pt x="471" y="4" on="1"/>
      </contour>
      <contour>
        <pt x="385" y="499" on="1"/>
        <pt x="385" y="567" on="0"/>
        <pt x="300" y="642" on="0"/>
        <pt x="219" y="642" on="1"/>
        <pt x="134" y="642" on="1"/>
        <pt x="134" y="351" on="1"/>
        <pt x="209" y="351" on="1"/>
        <pt x="293" y="351" on="0"/>
        <pt x="385" y="430" on="0"/>
      </contour>
      <contour>
        <pt x="819" y="245" on="1"/>
        <pt x="819" y="339" on="0"/>
        <pt x="750" y="438" on="0"/>
        <pt x="696" y="438" on="1"/>
        <pt x="662" y="438" on="0"/>
        <pt x="601" y="396" on="0"/>
        <pt x="567" y="359" on="1"/>
        <pt x="567" y="59" on="1"/>
        <pt x="591" y="48" on="0"/>
        <pt x="640" y="35" on="0"/>
        <pt x="668" y="35" on="1"/>
        <pt x="732" y="35" on="0"/>
        <pt x="819" y="138" on="0"/>
      </contour>
      <contour>
        <pt x="866" y="246" on="1"/>
        <pt x="866" y="183" on="0"/>
        <pt x="834" y="87" on="0"/>
        <pt x="780" y="25" on="0"/>
        <pt x="709" y="-6" on="0"/>
        <pt x="670" y="-6" on="1"/>
        <pt x="641" y="-6" on="0"/>
        <pt x="591" y="6" on="0"/>
        <pt x="567" y="16" on="1"/>
        <pt x="567" y="-171" on="1"/>
        <pt x="521" y="-181" on="1"/>
        <pt x="521" y="470" on="1"/>
        <pt x="554" y="470" on="1"/>
        <pt x="565" y="405" on="1"/>
        <pt x="594" y="439" on="0"/>
        <pt x="656" y="479" on="0"/>
        <pt x="698" y="479" on="1"/>
        <pt x="769" y="479" on="0"/>
        <pt x="866" y="363" on="0"/>
      </contour>
    </TTGlyph>
    <TTGlyph name="R_p.flat" xMin="87" yMin="-181" xMax="866" yMax="683">
      <contour>
        <pt x="385" y="499" on="1"/>
        <pt x="385" y="567" on="0"/>
        <pt x="300" y="642" on="0"/>
        <pt x="219" y="642" on="1"/>
        <pt x="134" y="642" on="1"/>
        <pt x="134" y="351" on="1"/>
        <pt x="209" y="351" on="1"/>
        <pt x="293" y="351" on="0"/>
        <pt x="385" y="430" on="0"/>
      </contour>
      <contour>
        <pt x="819" y="245" on="1"/>
        <pt x="819" y="339" on="0"/>
        <pt x="750" y="438" on="0"/>
        <pt x="696" y="438" on="1"/>
        <pt x="662" y="438" on="0"/>
        <pt x="601" y="396" on="0"/>
        <pt x="567" y="359" on="1"/>
        <pt x="567" y="59" on="1"/>
        <pt x="591" y="48" on="0"/>
        <pt x="640" y="35" on="0"/>
        <pt x="668" y="35" on="1"/>
        <pt x="732" y="35" on="0"/>
        <pt x="819" y="138" on="0"/>
      </contour>
      <contour>
        <pt x="417" y="0" on="1"/>
        <pt x="225" y="311" on="1"/>
        <pt x="134" y="311" on="1"/>
        <pt x="134" y="0" on="1"/>
        <pt x="87" y="0" on="1"/>
        <pt x="87" y="683" on="1"/>
        <pt x="222" y="683" on="1"/>
        <pt x="321" y="683" on="0"/>
        <pt x="434" y="585" on="0"/>
        <pt x="434" y="500" on="1"/>
        <pt x="434" y="425" on="0"/>
        <pt x="343" y="332" on="0"/>
        <pt x="277" y="318" on="1"/>
        <pt x="473" y="0" on="1"/>
      </contour>
      <contour>
        <pt x="866" y="246" on="1"/>
        <pt x="866" y="183" on="0"/>
        <pt x="834" y="87" on="0"/>
        <pt x="780" y="25" on="0"/>
        <pt x="709" y="-6" on="0"/>
        <pt x="670" y="-6" on="1"/>
        <pt x="641" y="-6" on="0"/>
        <pt x="591" y="6" on="0"/>
        <pt x="567" y="16" on="1"/>
        <pt x="567" y="-171" on="1"/>
        <pt x="521" y="-181" on="1"/>
        <pt x="521" y="470" on="1"/>
        <pt x="554" y="470" on="1"/>
        <pt x="565" y="405" on="1"/>
        <pt x="594" y="439" on="0"/>
        <pt x="656" y="479" on="0"/>
        <pt x="698" y="479" on="1"/>
        <pt x="769" y="479" on="0"/>
        <pt x="866" y="363" on="0"/>
      </contour>
    </TTGlyph>
    <TTGlyph name="Racute" xMin="82" yMin="-7" xMax="481" yMax="881">
      <component glyphName="R" x="0" y="0" flags="0x204"/>
      <component glyphName="acute" x="79" y="205" flags="0x4"/>
    </TTGlyph>
    <TTGlyph name="Racute.flat" xMin="82" yMin="0" xMax="483" yMax="881">
      <component glyphName="R.flat" x="0" y="0" flags="0x204"/>
      <component glyphName="acute" x="79" y="205" flags="0x4"/>
    </TTGlyph>
    <TTGlyph name="Rcaron" xMin="82" yMin="-7" xMax="481" yMax="880">
      <component glyphName="R" x="0" y="0" flags="0x204"/>
      <component glyphName="caron" x="27" y="205" flags="0x4"/>
    </TTGlyph>
    <TTGlyph name="Rcaron.flat" xMin="82" yMin="0" xMax="483" yMax="880">
      <component glyphName="R.flat" x="0" y="0" flags="0x204"/>
      <component glyphName="caron" x="27" y="205" flags="0x4"/>
    </TTGlyph>
    <TTGlyph name="Rcommaaccent" xMin="82" yMin="-219" xMax="481" yMax="690">
      <component glyphName="R" x="0" y="0" flags="0x204"/>
      <component glyphName="commaaccent" x="62" y="0" flags="0x4"/>
    </TTGlyph>
    <TTGlyph name="Rcommaaccent.flat" xMin="82" yMin="-219" xMax="483" yMax="690">
      <component glyphName="R.flat" x="0" y="0" flags="0x204"/>
      <component glyphName="commaaccent" x="62" y="0" flags="0x4"/>
    </TTGlyph>
    <TTGlyph name="S" xMin="50" yMin="-7" xMax="403" yMax="697">
      <contour>
        <pt x="403" y="173" on="1"/>
        <pt x="403" y="91" on="0"/>
        <pt x="292" y="-7" on="0"/>
        <pt x="210" y="-7" on="1"/>
        <pt x="161" y="-7" on="0"/>
        <pt x="80" y="18" on="0"/>
        <pt x="50" y="34" on="1"/>
        <pt x="57" y="82" on="1"/>
        <pt x="87" y="63" on="0"/>
        <pt x="169" y="35" on="0"/>
        <pt x="213" y="35" on="1"/>
        <pt x="276" y="35" on="0"/>
        <pt x="355" y="110" on="0"/>
        <pt x="355" y="170" on="1"/>
        <pt x="355" y="221" on="0"/>
        <pt x="296" y="294" on="0"/>
        <pt x="224" y="336" on="1"/>
        <pt x="140" y="382" on="0"/>
        <pt x="63" y="467" on="0"/>
        <pt x="63" y="536" on="1"/>
        <pt x="63" y="571" on="0"/>
        <pt x="90" y="631" on="0"/>
        <pt x="138" y="673" on="0"/>
        <pt x="201" y="697" on="0"/>
        <pt x="237" y="697" on="1"/>
        <pt x="281" y="697" on="0"/>
        <pt x="347" y="678" on="0"/>
        <pt x="372" y="663" on="1"/>
        <pt x="365" y="616" on="1"/>
        <pt x="337" y="633" on="0"/>
        <pt x="276" y="655" on="0"/>
        <pt x="236" y="655" on="1"/>
        <pt x="180" y="655" on="0"/>
        <pt x="111" y="588" on="0"/>
        <pt x="111" y="538" on="1"/>
        <pt x="111" y="488" on="0"/>
        <pt x="171" y="421" on="0"/>
        <pt x="243" y="381" on="1"/>
        <pt x="325" y="334" on="0"/>
        <pt x="403" y="242" on="0"/>
      </contour>
    </TTGlyph>
    <TTGlyph name="Sacute" xMin="50" yMin="-7" xMax="403" yMax="891">
      <component glyphName="S" x="0" y="0" flags="0x4"/>
      <component glyphName="acute" x="78" y="215" flags="0x4"/>
    </TTGlyph>
    <TTGlyph name="Scaron" xMin="50" yMin="-7" xMax="403" yMax="890">
      <component glyphName="S" x="0" y="0" flags="0x4"/>
      <component glyphName="caron" x="26" y="215" flags="0x4"/>
    </TTGlyph>
    <TTGlyph name="Scedilla" xMin="50" yMin="-184" xMax="403" yMax="697">
      <component glyphName="S" x="0" y="0" flags="0x4"/>
      <component glyphName="cedilla" x="13" y="0" flags="0x4"/>
    </TTGlyph>
    <TTGlyph name="Scommaaccent" xMin="50" yMin="-219" xMax="403" yMax="697">
      <component glyphName="S" x="0" y="0" flags="0x4"/>
      <component glyphName="commaaccent" x="40" y="0" flags="0x4"/>
    </TTGlyph>
    <TTGlyph name="T" xMin="23" yMin="0" xMax="459" yMax="690">
      <contour>
        <pt x="459" y="648" on="1"/>
        <pt x="262" y="648" on="1"/>
        <pt x="262" y="0" on="1"/>
        <pt x="216" y="0" on="1"/>
        <pt x="216" y="648" on="1"/>
        <pt x="23" y="648" on="1"/>
        <pt x="23" y="690" on="1"/>
        <pt x="453" y="690" on="1"/>
      </contour>
    </TTGlyph>
    <TTGlyph name="T.flat" xMin="23" yMin="0" xMax="455" yMax="690">
      <contour>
        <pt x="455" y="648" on="1"/>
        <pt x="262" y="648" on="1"/>
        <pt x="262" y="0" on="1"/>
        <pt x="216" y="0" on="1"/>
        <pt x="216" y="648" on="1"/>
        <pt x="23" y="648" on="1"/>
        <pt x="23" y="690" on="1"/>
        <pt x="455" y="690" on="1"/>
      </contour>
    </TTGlyph>
    <TTGlyph name="Tcaron" xMin="23" yMin="0" xMax="459" yMax="880">
      <component glyphName="T" x="0" y="0" flags="0x204"/>
      <component glyphName="caron" x="36" y="205" flags="0x4"/>
    </TTGlyph>
    <TTGlyph name="Tcaron.flat" xMin="23" yMin="0" xMax="455" yMax="880">
      <component glyphName="T.flat" x="0" y="0" flags="0x204"/>
      <component glyphName="caron" x="36" y="205" flags="0x4"/>
    </TTGlyph>
    <TTGlyph name="Tcommaaccent" xMin="23" yMin="-219" xMax="459" yMax="690">
      <component glyphName="T" x="0" y="0" flags="0x204"/>
      <component glyphName="commaaccent" x="50" y="0" flags="0x4"/>
    </TTGlyph>
    <TTGlyph name="Tcommaaccent.flat" xMin="23" yMin="-219" xMax="455" yMax="690">
      <component glyphName="T.flat" x="0" y="0" flags="0x204"/>
      <component glyphName="commaaccent" x="50" y="0" flags="0x4"/>
    </TTGlyph>
    <TTGlyph name="Thorn" xMin="82" yMin="0" xMax="435" yMax="690">
      <contour>
        <pt x="435" y="357" on="1"/>
        <pt x="435" y="309" on="0"/>
        <pt x="401" y="234" on="0"/>
        <pt x="341" y="184" on="0"/>
        <pt x="256" y="158" on="0"/>
        <pt x="206" y="158" on="1"/>
        <pt x="129" y="158" on="1"/>
        <pt x="129" y="0" on="1"/>
        <pt x="82" y="0" on="1"/>
        <pt x="82" y="690" on="1"/>
        <pt x="129" y="690" on="1"/>
        <pt x="129" y="548" on="1"/>
        <pt x="220" y="548" on="1"/>
        <pt x="321" y="548" on="0"/>
        <pt x="435" y="447" on="0"/>
      </contour>
      <contour>
        <pt x="386" y="356" on="1"/>
        <pt x="386" y="428" on="0"/>
        <pt x="301" y="507" on="0"/>
        <pt x="217" y="507" on="1"/>
        <pt x="129" y="507" on="1"/>
        <pt x="129" y="200" on="1"/>
        <pt x="208" y="200" on="1"/>
        <pt x="295" y="200" on="0"/>
        <pt x="386" y="282" on="0"/>
      </contour>
    </TTGlyph>
    <TTGlyph name="U" xMin="73" yMin="-8" xMax="509" yMax="690">
      <contour>
        <pt x="509" y="236" on="1"/>
        <pt x="509" y="125" on="0"/>
        <pt x="393" y="-8" on="0"/>
        <pt x="289" y="-8" on="1"/>
        <pt x="237" y="-8" on="0"/>
        <pt x="156" y="28" on="0"/>
        <pt x="101" y="91" on="0"/>
        <pt x="73" y="180" on="0"/>
        <pt x="73" y="233" on="1"/>
        <pt x="73" y="690" on="1"/>
        <pt x="120" y="690" on="1"/>
        <pt x="120" y="238" on="1"/>
        <pt x="120" y="148" on="0"/>
        <pt x="205" y="34" on="0"/>
        <pt x="291" y="34" on="1"/>
        <pt x="375" y="34" on="0"/>
        <pt x="462" y="145" on="0"/>
        <pt x="462" y="235" on="1"/>
        <pt x="462" y="690" on="1"/>
        <pt x="509" y="690" on="1"/>
      </contour>
    </TTGlyph>
    <TTGlyph name="U.alt" xMin="80" yMin="-8" xMax="511" yMax="690">
      <contour>
        <pt x="479" y="0" on="1"/>
        <pt x="467" y="78" on="1"/>
        <pt x="421" y="39" on="0"/>
        <pt x="322" y="-8" on="0"/>
        <pt x="271" y="-8" on="1"/>
        <pt x="184" y="-8" on="0"/>
        <pt x="80" y="89" on="0"/>
        <pt x="80" y="190" on="1"/>
        <pt x="80" y="690" on="1"/>
        <pt x="127" y="690" on="1"/>
        <pt x="127" y="193" on="1"/>
        <pt x="127" y="113" on="0"/>
        <pt x="205" y="34" on="0"/>
        <pt x="274" y="34" on="1"/>
        <pt x="323" y="34" on="0"/>
        <pt x="417" y="82" on="0"/>
        <pt x="464" y="124" on="1"/>
        <pt x="464" y="690" on="1"/>
        <pt x="511" y="690" on="1"/>
        <pt x="511" y="0" on="1"/>
      </contour>
    </TTGlyph>
    <TTGlyph name="Uacute" xMin="73" yMin="-8" xMax="509" yMax="881">
      <component glyphName="U" x="0" y="0" flags="0x204"/>
      <component glyphName="acute" x="138" y="205" flags="0x4"/>
    </TTGlyph>
    <TTGlyph name="Uacute.alt" xMin="80" yMin="-8" xMax="511" yMax="881">
      <component glyphName="U.alt" x="0" y="0" flags="0x4"/>
      <component glyphName="acute" x="142" y="205" flags="0x4"/>
    </TTGlyph>
    <TTGlyph name="Ubreve" xMin="73" yMin="-8" xMax="509" yMax="848">
      <component glyphName="U" x="0" y="0" flags="0x204"/>
      <component glyphName="breve" x="87" y="196" flags="0x4"/>
    </TTGlyph>
    <TTGlyph name="Ubreve.alt" xMin="80" yMin="-8" xMax="511" yMax="848">
      <component glyphName="U.alt" x="0" y="0" flags="0x4"/>
      <component glyphName="breve" x="90" y="196" flags="0x4"/>
    </TTGlyph>
    <TTGlyph name="Ucircumflex" xMin="73" yMin="-8" xMax="509" yMax="880">
      <component glyphName="U" x="0" y="0" flags="0x204"/>
      <component glyphName="circumflex" x="86" y="205" flags="0x4"/>
    </TTGlyph>
    <TTGlyph name="Ucircumflex.alt" xMin="80" yMin="-8" xMax="511" yMax="880">
      <component glyphName="U.alt" x="0" y="0" flags="0x4"/>
      <component glyphName="circumflex" x="90" y="205" flags="0x4"/>
    </TTGlyph>
    <TTGlyph name="Udieresis" xMin="73" yMin="-8" xMax="509" yMax="826">
      <component glyphName="U" x="0" y="0" flags="0x204"/>
      <component glyphName="dieresis" x="86" y="205" flags="0x4"/>
    </TTGlyph>
    <TTGlyph name="Udieresis.alt" xMin="80" yMin="-8" xMax="511" yMax="826">
      <component glyphName="U.alt" x="0" y="0" flags="0x4"/>
      <component glyphName="dieresis" x="90" y="205" flags="0x4"/>
    </TTGlyph>
    <TTGlyph name="Ugrave" xMin="73" yMin="-8" xMax="509" yMax="881">
      <component glyphName="U" x="0" y="0" flags="0x204"/>
      <component glyphName="grave" x="32" y="205" flags="0x4"/>
    </TTGlyph>
    <TTGlyph name="Ugrave.alt" xMin="80" yMin="-8" xMax="511" yMax="881">
      <component glyphName="U.alt" x="0" y="0" flags="0x4"/>
      <component glyphName="grave" x="36" y="205" flags="0x4"/>
    </TTGlyph>
    <TTGlyph name="Uhungarumlaut" xMin="73" yMin="-8" xMax="509" yMax="884">
      <component glyphName="U" x="0" y="0" flags="0x204"/>
      <component glyphName="hungarumlaut" x="136" y="205" flags="0x4"/>
    </TTGlyph>
    <TTGlyph name="Uhungarumlaut.alt" xMin="80" yMin="-8" xMax="511" yMax="884">
      <component glyphName="U.alt" x="0" y="0" flags="0x4"/>
      <component glyphName="hungarumlaut" x="139" y="205" flags="0x4"/>
    </TTGlyph>
    <TTGlyph name="Umacron" xMin="73" yMin="-8" xMax="509" yMax="814">
      <component glyphName="U" x="0" y="0" flags="0x204"/>
      <component glyphName="macron" x="87" y="205" flags="0x4"/>
    </TTGlyph>
    <TTGlyph name="Umacron.alt" xMin="80" yMin="-8" xMax="511" yMax="814">
      <component glyphName="U.alt" x="0" y="0" flags="0x4"/>
      <component glyphName="macron" x="90" y="205" flags="0x4"/>
    </TTGlyph>
    <TTGlyph name="Uogonek" xMin="73" yMin="-162" xMax="509" yMax="690">
      <component glyphName="U" x="0" y="0" flags="0x204"/>
      <component glyphName="ogonek" x="90" y="0" flags="0x4"/>
    </TTGlyph>
    <TTGlyph name="Uogonek.alt" xMin="80" yMin="-162" xMax="535" yMax="690">
      <component glyphName="U.alt" x="0" y="0" flags="0x4"/>
      <component glyphName="ogonek" x="274" y="0" flags="0x4"/>
    </TTGlyph>
    <TTGlyph name="Uring" xMin="73" yMin="-8" xMax="509" yMax="904">
      <component glyphName="U" x="0" y="0" flags="0x204"/>
      <component glyphName="ring" x="85" y="193" flags="0x4"/>
    </TTGlyph>
    <TTGlyph name="Uring.alt" xMin="80" yMin="-8" xMax="511" yMax="904">
      <component glyphName="U.alt" x="0" y="0" flags="0x4"/>
      <component glyphName="ring" x="89" y="193" flags="0x4"/>
    </TTGlyph>
    <TTGlyph name="V" xMin="37" yMin="-4" xMax="539" yMax="696">
      <contour>
        <pt x="539" y="690" on="1"/>
        <pt x="309" y="-4" on="1"/>
        <pt x="265" y="-4" on="1"/>
        <pt x="37" y="686" on="1"/>
        <pt x="83" y="696" on="1"/>
        <pt x="288" y="63" on="1"/>
        <pt x="491" y="690" on="1"/>
      </contour>
    </TTGlyph>
    <TTGlyph name="V.flat" xMin="37" yMin="-4" xMax="540" yMax="690">
      <contour>
        <pt x="540" y="690" on="1"/>
        <pt x="310" y="-4" on="1"/>
        <pt x="266" y="-4" on="1"/>
        <pt x="37" y="690" on="1"/>
        <pt x="86" y="690" on="1"/>
        <pt x="289" y="63" on="1"/>
        <pt x="492" y="690" on="1"/>
      </contour>
    </TTGlyph>
    <TTGlyph name="W" xMin="44" yMin="-3" xMax="832" yMax="696">
      <contour>
        <pt x="832" y="690" on="1"/>
        <pt x="656" y="-3" on="1"/>
        <pt x="613" y="-3" on="1"/>
        <pt x="437" y="616" on="1"/>
        <pt x="262" y="-3" on="1"/>
        <pt x="219" y="-3" on="1"/>
        <pt x="44" y="686" on="1"/>
        <pt x="89" y="696" on="1"/>
        <pt x="243" y="75" on="1"/>
        <pt x="414" y="691" on="1"/>
        <pt x="461" y="691" on="1"/>
        <pt x="635" y="75" on="1"/>
        <pt x="786" y="690" on="1"/>
      </contour>
    </TTGlyph>
    <TTGlyph name="W.alt" xMin="37" yMin="-3" xMax="819" yMax="696">
      <contour>
        <pt x="561" y="-3" on="1"/>
        <pt x="429" y="423" on="1"/>
        <pt x="294" y="-3" on="1"/>
        <pt x="251" y="-3" on="1"/>
        <pt x="37" y="686" on="1"/>
        <pt x="84" y="696" on="1"/>
        <pt x="275" y="67" on="1"/>
        <pt x="408" y="488" on="1"/>
        <pt x="345" y="686" on="1"/>
        <pt x="392" y="696" on="1"/>
        <pt x="584" y="67" on="1"/>
        <pt x="772" y="690" on="1"/>
        <pt x="819" y="690" on="1"/>
        <pt x="604" y="-3" on="1"/>
      </contour>
    </TTGlyph>
    <TTGlyph name="W.alt_flat" xMin="36" yMin="-3" xMax="819" yMax="690">
      <contour>
        <pt x="561" y="-3" on="1"/>
        <pt x="429" y="423" on="1"/>
        <pt x="294" y="-3" on="1"/>
        <pt x="251" y="-3" on="1"/>
        <pt x="36" y="690" on="1"/>
        <pt x="86" y="690" on="1"/>
        <pt x="275" y="67" on="1"/>
        <pt x="408" y="488" on="1"/>
        <pt x="344" y="690" on="1"/>
        <pt x="394" y="690" on="1"/>
        <pt x="584" y="67" on="1"/>
        <pt x="772" y="690" on="1"/>
        <pt x="819" y="690" on="1"/>
        <pt x="604" y="-3" on="1"/>
      </contour>
    </TTGlyph>
    <TTGlyph name="W.flat" xMin="43" yMin="-3" xMax="832" yMax="691">
      <contour>
        <pt x="832" y="690" on="1"/>
        <pt x="656" y="-3" on="1"/>
        <pt x="613" y="-3" on="1"/>
        <pt x="437" y="616" on="1"/>
        <pt x="262" y="-3" on="1"/>
        <pt x="219" y="-3" on="1"/>
        <pt x="43" y="690" on="1"/>
        <pt x="91" y="690" on="1"/>
        <pt x="243" y="75" on="1"/>
        <pt x="414" y="691" on="1"/>
        <pt x="461" y="691" on="1"/>
        <pt x="635" y="75" on="1"/>
        <pt x="786" y="690" on="1"/>
      </contour>
    </TTGlyph>
    <TTGlyph name="Wacute" xMin="44" yMin="-3" xMax="832" yMax="881">
      <component glyphName="W" x="0" y="0" flags="0x204"/>
      <component glyphName="acute" x="285" y="205" flags="0x4"/>
    </TTGlyph>
    <TTGlyph name="Wacute.alt" xMin="37" yMin="-3" xMax="819" yMax="881">
      <component glyphName="W.alt" x="0" y="0" flags="0x204"/>
      <component glyphName="acute" x="262" y="205" flags="0x4"/>
    </TTGlyph>
    <TTGlyph name="Wacute.alt_flat" xMin="36" yMin="-3" xMax="819" yMax="881">
      <component glyphName="W.alt_flat" x="0" y="0" flags="0x204"/>
      <component glyphName="acute" x="262" y="205" flags="0x4"/>
    </TTGlyph>
    <TTGlyph name="Wacute.flat" xMin="43" yMin="-3" xMax="832" yMax="881">
      <component glyphName="W.flat" x="0" y="0" flags="0x204"/>
      <component glyphName="acute" x="285" y="205" flags="0x4"/>
    </TTGlyph>
    <TTGlyph name="Wcircumflex" xMin="44" yMin="-3" xMax="832" yMax="878">
      <component glyphName="W" x="0" y="0" flags="0x204"/>
      <component glyphName="circumflex" x="233" y="203" flags="0x4"/>
    </TTGlyph>
    <TTGlyph name="Wcircumflex.alt" xMin="37" yMin="-3" xMax="819" yMax="880">
      <component glyphName="W.alt" x="0" y="0" flags="0x204"/>
      <component glyphName="circumflex" x="210" y="205" flags="0x4"/>
    </TTGlyph>
    <TTGlyph name="Wcircumflex.alt_flat" xMin="36" yMin="-3" xMax="819" yMax="880">
      <component glyphName="W.alt_flat" x="0" y="0" flags="0x204"/>
      <component glyphName="circumflex" x="210" y="205" flags="0x4"/>
    </TTGlyph>
    <TTGlyph name="Wcircumflex.flat" xMin="43" yMin="-3" xMax="832" yMax="878">
      <component glyphName="W.flat" x="0" y="0" flags="0x204"/>
      <component glyphName="circumflex" x="233" y="203" flags="0x4"/>
    </TTGlyph>
    <TTGlyph name="Wdieresis" xMin="44" yMin="-3" xMax="832" yMax="826">
      <component glyphName="W" x="0" y="0" flags="0x204"/>
      <component glyphName="dieresis" x="233" y="205" flags="0x4"/>
    </TTGlyph>
    <TTGlyph name="Wdieresis.alt" xMin="37" yMin="-3" xMax="819" yMax="826">
      <component glyphName="W.alt" x="0" y="0" flags="0x204"/>
      <component glyphName="dieresis" x="210" y="205" flags="0x4"/>
    </TTGlyph>
    <TTGlyph name="Wdieresis.alt_flat" xMin="36" yMin="-3" xMax="819" yMax="826">
      <component glyphName="W.alt_flat" x="0" y="0" flags="0x204"/>
      <component glyphName="dieresis" x="210" y="205" flags="0x4"/>
    </TTGlyph>
    <TTGlyph name="Wdieresis.flat" xMin="43" yMin="-3" xMax="832" yMax="826">
      <component glyphName="W.flat" x="0" y="0" flags="0x204"/>
      <component glyphName="dieresis" x="233" y="205" flags="0x4"/>
    </TTGlyph>
    <TTGlyph name="Wgrave" xMin="44" yMin="-3" xMax="832" yMax="881">
      <component glyphName="W" x="0" y="0" flags="0x204"/>
      <component glyphName="grave" x="179" y="205" flags="0x4"/>
    </TTGlyph>
    <TTGlyph name="Wgrave.alt" xMin="37" yMin="-3" xMax="819" yMax="881">
      <component glyphName="W.alt" x="0" y="0" flags="0x204"/>
      <component glyphName="grave" x="156" y="205" flags="0x4"/>
    </TTGlyph>
    <TTGlyph name="Wgrave.alt_flat" xMin="36" yMin="-3" xMax="819" yMax="881">
      <component glyphName="W.alt_flat" x="0" y="0" flags="0x204"/>
      <component glyphName="grave" x="156" y="205" flags="0x4"/>
    </TTGlyph>
    <TTGlyph name="Wgrave.flat" xMin="43" yMin="-3" xMax="832" yMax="881">
      <component glyphName="W.flat" x="0" y="0" flags="0x204"/>
      <component glyphName="grave" x="179" y="205" flags="0x4"/>
    </TTGlyph>
    <TTGlyph name="X" xMin="32" yMin="-5" xMax="508" yMax="695">
      <contour>
        <pt x="462" y="-5" on="1"/>
        <pt x="270" y="322" on="1"/>
        <pt x="83" y="0" on="1"/>
        <pt x="32" y="0" on="1"/>
        <pt x="245" y="357" on="1"/>
        <pt x="50" y="685" on="1"/>
        <pt x="97" y="695" on="1"/>
        <pt x="271" y="395" on="1"/>
        <pt x="443" y="690" on="1"/>
        <pt x="493" y="690" on="1"/>
        <pt x="297" y="359" on="1"/>
        <pt x="508" y="5" on="1"/>
      </contour>
    </TTGlyph>
    <TTGlyph name="X.flat" xMin="32" yMin="0" xMax="510" yMax="690">
      <contour>
        <pt x="458" y="0" on="1"/>
        <pt x="271" y="321" on="1"/>
        <pt x="83" y="0" on="1"/>
        <pt x="32" y="0" on="1"/>
        <pt x="245" y="357" on="1"/>
        <pt x="47" y="690" on="1"/>
        <pt x="99" y="690" on="1"/>
        <pt x="272" y="394" on="1"/>
        <pt x="444" y="690" on="1"/>
        <pt x="494" y="690" on="1"/>
        <pt x="297" y="359" on="1"/>
        <pt x="510" y="0" on="1"/>
      </contour>
    </TTGlyph>
    <TTGlyph name="Y" xMin="28" yMin="0" xMax="500" yMax="696">
      <contour>
        <pt x="500" y="690" on="1"/>
        <pt x="287" y="293" on="1"/>
        <pt x="287" y="0" on="1"/>
        <pt x="240" y="0" on="1"/>
        <pt x="240" y="292" on="1"/>
        <pt x="28" y="686" on="1"/>
        <pt x="77" y="696" on="1"/>
        <pt x="265" y="337" on="1"/>
        <pt x="449" y="690" on="1"/>
      </contour>
    </TTGlyph>
    <TTGlyph name="Y.flat" xMin="29" yMin="0" xMax="501" yMax="690">
      <contour>
        <pt x="501" y="690" on="1"/>
        <pt x="288" y="293" on="1"/>
        <pt x="288" y="0" on="1"/>
        <pt x="241" y="0" on="1"/>
        <pt x="241" y="292" on="1"/>
        <pt x="29" y="690" on="1"/>
        <pt x="82" y="690" on="1"/>
        <pt x="266" y="337" on="1"/>
        <pt x="450" y="690" on="1"/>
      </contour>
    </TTGlyph>
    <TTGlyph name="Yacute" xMin="28" yMin="0" xMax="500" yMax="877">
      <component glyphName="Y" x="0" y="0" flags="0x204"/>
      <component glyphName="acute" x="112" y="201" flags="0x4"/>
    </TTGlyph>
    <TTGlyph name="Yacute.flat" xMin="29" yMin="0" xMax="501" yMax="877">
      <component glyphName="Y.flat" x="0" y="0" flags="0x204"/>
      <component glyphName="acute" x="113" y="201" flags="0x4"/>
    </TTGlyph>
    <TTGlyph name="Ycircumflex" xMin="28" yMin="0" xMax="500" yMax="880">
      <component glyphName="Y" x="0" y="0" flags="0x204"/>
      <component glyphName="circumflex" x="60" y="205" flags="0x4"/>
    </TTGlyph>
    <TTGlyph name="Ycircumflex.flat" xMin="29" yMin="0" xMax="501" yMax="880">
      <component glyphName="Y.flat" x="0" y="0" flags="0x204"/>
      <component glyphName="circumflex" x="61" y="205" flags="0x4"/>
    </TTGlyph>
    <TTGlyph name="Ydieresis" xMin="28" yMin="0" xMax="500" yMax="826">
      <component glyphName="Y" x="0" y="0" flags="0x204"/>
      <component glyphName="dieresis" x="60" y="205" flags="0x4"/>
    </TTGlyph>
    <TTGlyph name="Ydieresis.flat" xMin="29" yMin="0" xMax="501" yMax="826">
      <component glyphName="Y.flat" x="0" y="0" flags="0x204"/>
      <component glyphName="dieresis" x="61" y="205" flags="0x4"/>
    </TTGlyph>
    <TTGlyph name="Ygrave" xMin="28" yMin="0" xMax="500" yMax="877">
      <component glyphName="Y" x="0" y="0" flags="0x204"/>
      <component glyphName="grave" x="6" y="201" flags="0x4"/>
    </TTGlyph>
    <TTGlyph name="Ygrave.flat" xMin="29" yMin="0" xMax="501" yMax="877">
      <component glyphName="Y.flat" x="0" y="0" flags="0x204"/>
      <component glyphName="grave" x="7" y="201" flags="0x4"/>
    </TTGlyph>
    <TTGlyph name="Z" xMin="49" yMin="0" xMax="468" yMax="690">
      <contour>
        <pt x="468" y="0" on="1"/>
        <pt x="49" y="0" on="1"/>
        <pt x="49" y="31" on="1"/>
        <pt x="408" y="650" on="1"/>
        <pt x="75" y="650" on="1"/>
        <pt x="69" y="690" on="1"/>
        <pt x="463" y="690" on="1"/>
        <pt x="463" y="660" on="1"/>
        <pt x="105" y="41" on="1"/>
        <pt x="461" y="41" on="1"/>
      </contour>
    </TTGlyph>
    <TTGlyph name="Z.flat" xMin="49" yMin="0" xMax="464" yMax="690">
      <contour>
        <pt x="464" y="0" on="1"/>
        <pt x="49" y="0" on="1"/>
        <pt x="49" y="31" on="1"/>
        <pt x="408" y="650" on="1"/>
        <pt x="72" y="650" on="1"/>
        <pt x="72" y="690" on="1"/>
        <pt x="463" y="690" on="1"/>
        <pt x="463" y="660" on="1"/>
        <pt x="105" y="41" on="1"/>
        <pt x="464" y="41" on="1"/>
      </contour>
    </TTGlyph>
    <TTGlyph name="Zacute" xMin="49" yMin="0" xMax="468" yMax="881">
      <component glyphName="Z" x="0" y="0" flags="0x204"/>
      <component glyphName="acute" x="110" y="205" flags="0x4"/>
    </TTGlyph>
    <TTGlyph name="Zacute.flat" xMin="49" yMin="0" xMax="464" yMax="881">
      <component glyphName="Z.flat" x="0" y="0" flags="0x204"/>
      <component glyphName="acute" x="110" y="205" flags="0x4"/>
    </TTGlyph>
    <TTGlyph name="Zcaron" xMin="49" yMin="0" xMax="468" yMax="880">
      <component glyphName="Z" x="0" y="0" flags="0x204"/>
      <component glyphName="caron" x="58" y="205" flags="0x4"/>
    </TTGlyph>
    <TTGlyph name="Zcaron.flat" xMin="49" yMin="0" xMax="464" yMax="880">
      <component glyphName="Z.flat" x="0" y="0" flags="0x204"/>
      <component glyphName="caron" x="58" y="205" flags="0x4"/>
    </TTGlyph>
    <TTGlyph name="Zdotaccent" xMin="49" yMin="0" xMax="468" yMax="826">
      <component glyphName="Z" x="0" y="0" flags="0x204"/>
      <component glyphName="dotaccent" x="59" y="205" flags="0x4"/>
    </TTGlyph>
    <TTGlyph name="Zdotaccent.flat" xMin="49" yMin="0" xMax="464" yMax="826">
      <component glyphName="Z.flat" x="0" y="0" flags="0x204"/>
      <component glyphName="dotaccent" x="59" y="205" flags="0x4"/>
    </TTGlyph>
    <TTGlyph name="a" xMin="38" yMin="-9" xMax="355" yMax="479">
      <contour>
        <pt x="310" y="103" on="1"/>
        <pt x="310" y="257" on="1"/>
        <pt x="188" y="243" on="0"/>
        <pt x="84" y="175" on="0"/>
        <pt x="84" y="117" on="1"/>
        <pt x="84" y="74" on="0"/>
        <pt x="134" y="32" on="0"/>
        <pt x="168" y="32" on="1"/>
        <pt x="201" y="32" on="0"/>
        <pt x="272" y="67" on="0"/>
      </contour>
      <contour>
        <pt x="355" y="0" on="1"/>
        <pt x="323" y="0" on="1"/>
        <pt x="313" y="60" on="1"/>
        <pt x="280" y="29" on="0"/>
        <pt x="206" y="-9" on="0"/>
        <pt x="165" y="-9" on="1"/>
        <pt x="113" y="-9" on="0"/>
        <pt x="38" y="53" on="0"/>
        <pt x="38" y="114" on="1"/>
        <pt x="38" y="192" on="0"/>
        <pt x="166" y="280" on="0"/>
        <pt x="310" y="296" on="1"/>
        <pt x="310" y="343" on="1"/>
        <pt x="310" y="391" on="0"/>
        <pt x="259" y="437" on="0"/>
        <pt x="215" y="437" on="1"/>
        <pt x="181" y="437" on="0"/>
        <pt x="109" y="415" on="0"/>
        <pt x="74" y="395" on="1"/>
        <pt x="68" y="439" on="1"/>
        <pt x="104" y="457" on="0"/>
        <pt x="178" y="479" on="0"/>
        <pt x="218" y="479" on="1"/>
        <pt x="284" y="479" on="0"/>
        <pt x="355" y="412" on="0"/>
        <pt x="355" y="346" on="1"/>
      </contour>
    </TTGlyph>
    <TTGlyph name="aacute" xMin="38" yMin="-9" xMax="355" yMax="676">
      <component glyphName="a" x="0" y="0" flags="0x204"/>
      <component glyphName="acute" x="57" y="0" flags="0x4"/>
    </TTGlyph>
    <TTGlyph name="abreve" xMin="38" yMin="-9" xMax="355" yMax="652">
      <component glyphName="a" x="0" y="0" flags="0x204"/>
      <component glyphName="breve" x="6" y="0" flags="0x4"/>
    </TTGlyph>
    <TTGlyph name="acircumflex" xMin="38" yMin="-9" xMax="355" yMax="675">
      <component glyphName="a" x="0" y="0" flags="0x204"/>
      <component glyphName="circumflex" x="5" y="0" flags="0x4"/>
    </TTGlyph>
    <TTGlyph name="acute" xMin="132" yMin="537" xMax="281" yMax="676">
      <contour>
        <pt x="281" y="663" on="1"/>
        <pt x="166" y="537" on="1"/>
        <pt x="132" y="537" on="1"/>
        <pt x="220" y="676" on="1"/>
      </contour>
    </TTGlyph>
    <TTGlyph name="adieresis" xMin="38" yMin="-9" xMax="355" yMax="621">
      <component glyphName="a" x="0" y="0" flags="0x204"/>
      <component glyphName="dieresis" x="5" y="0" flags="0x4"/>
    </TTGlyph>
    <TTGlyph name="ae" xMin="38" yMin="-9" xMax="652" yMax="480">
      <contour>
        <pt x="167" y="-9" on="1"/>
        <pt x="114" y="-9" on="0"/>
        <pt x="38" y="55" on="0"/>
        <pt x="38" y="115" on="1"/>
        <pt x="38" y="192" on="0"/>
        <pt x="166" y="280" on="0"/>
        <pt x="310" y="296" on="1"/>
        <pt x="310" y="344" on="1"/>
        <pt x="310" y="391" on="0"/>
        <pt x="259" y="437" on="0"/>
        <pt x="215" y="437" on="1"/>
        <pt x="181" y="437" on="0"/>
        <pt x="109" y="415" on="0"/>
        <pt x="74" y="395" on="1"/>
        <pt x="68" y="439" on="1"/>
        <pt x="103" y="458" on="0"/>
        <pt x="178" y="479" on="0"/>
        <pt x="218" y="479" on="1"/>
        <pt x="272" y="479" on="0"/>
        <pt x="338" y="433" on="0"/>
        <pt x="347" y="388" on="1"/>
        <pt x="371" y="431" on="0"/>
        <pt x="444" y="480" on="0"/>
        <pt x="490" y="480" on="1"/>
        <pt x="530" y="480" on="0"/>
        <pt x="591" y="444" on="0"/>
        <pt x="632" y="382" on="0"/>
        <pt x="652" y="296" on="0"/>
        <pt x="652" y="247" on="1"/>
        <pt x="652" y="231" on="1"/>
        <pt x="355" y="231" on="1"/>
        <pt x="356" y="140" on="0"/>
        <pt x="434" y="32" on="0"/>
        <pt x="498" y="32" on="1"/>
        <pt x="536" y="32" on="0"/>
        <pt x="608" y="64" on="0"/>
        <pt x="643" y="92" on="1"/>
        <pt x="650" y="49" on="1"/>
        <pt x="618" y="24" on="0"/>
        <pt x="540" y="-9" on="0"/>
        <pt x="494" y="-9" on="1"/>
        <pt x="446" y="-9" on="0"/>
        <pt x="370" y="37" on="0"/>
        <pt x="346" y="78" on="1"/>
        <pt x="306" y="39" on="0"/>
        <pt x="221" y="-9" on="0"/>
      </contour>
      <contour>
        <pt x="356" y="269" on="1"/>
        <pt x="604" y="269" on="1"/>
        <pt x="602" y="344" on="0"/>
        <pt x="541" y="441" on="0"/>
        <pt x="490" y="441" on="1"/>
        <pt x="433" y="441" on="0"/>
        <pt x="363" y="346" on="0"/>
      </contour>
      <contour>
        <pt x="170" y="32" on="1"/>
        <pt x="211" y="32" on="0"/>
        <pt x="290" y="75" on="0"/>
        <pt x="329" y="114" on="1"/>
        <pt x="320" y="140" on="0"/>
        <pt x="310" y="201" on="0"/>
        <pt x="310" y="235" on="1"/>
        <pt x="310" y="258" on="1"/>
        <pt x="188" y="244" on="0"/>
        <pt x="84" y="175" on="0"/>
        <pt x="84" y="118" on="1"/>
        <pt x="84" y="78" on="0"/>
        <pt x="133" y="32" on="0"/>
      </contour>
    </TTGlyph>
    <TTGlyph name="aeacute" xMin="38" yMin="-9" xMax="652" yMax="676">
      <component glyphName="ae" x="0" y="0" flags="0x204"/>
      <component glyphName="acute" x="195" y="0" flags="0x4"/>
    </TTGlyph>
    <TTGlyph name="agrave" xMin="38" yMin="-9" xMax="355" yMax="676">
      <component glyphName="a" x="0" y="0" flags="0x204"/>
      <component glyphName="grave" x="-49" y="0" flags="0x4"/>
    </TTGlyph>
    <TTGlyph name="amacron" xMin="38" yMin="-9" xMax="355" yMax="609">
      <component glyphName="a" x="0" y="0" flags="0x204"/>
      <component glyphName="macron" x="6" y="0" flags="0x4"/>
    </TTGlyph>
    <TTGlyph name="ampersand" xMin="46" yMin="-8" xMax="588" yMax="698">
      <contour>
        <pt x="239" y="34" on="1"/>
        <pt x="287" y="34" on="0"/>
        <pt x="375" y="89" on="0"/>
        <pt x="408" y="145" on="1"/>
        <pt x="227" y="355" on="1"/>
        <pt x="165" y="325" on="0"/>
        <pt x="94" y="232" on="0"/>
        <pt x="94" y="176" on="1"/>
        <pt x="94" y="116" on="0"/>
        <pt x="177" y="34" on="0"/>
      </contour>
      <contour>
        <pt x="539" y="-6" on="1"/>
        <pt x="438" y="110" on="1"/>
        <pt x="401" y="52" on="0"/>
        <pt x="298" y="-8" on="0"/>
        <pt x="239" y="-8" on="1"/>
        <pt x="152" y="-8" on="0"/>
        <pt x="46" y="97" on="0"/>
        <pt x="46" y="174" on="1"/>
        <pt x="46" y="248" on="0"/>
        <pt x="135" y="353" on="0"/>
        <pt x="201" y="387" on="1"/>
        <pt x="167" y="430" on="0"/>
        <pt x="130" y="506" on="0"/>
        <pt x="130" y="550" on="1"/>
        <pt x="130" y="611" on="0"/>
        <pt x="217" y="698" on="0"/>
        <pt x="290" y="698" on="1"/>
        <pt x="328" y="698" on="0"/>
        <pt x="395" y="677" on="0"/>
        <pt x="427" y="658" on="1"/>
        <pt x="416" y="609" on="1"/>
        <pt x="382" y="633" on="0"/>
        <pt x="319" y="656" on="0"/>
        <pt x="287" y="656" on="1"/>
        <pt x="237" y="656" on="0"/>
        <pt x="178" y="595" on="0"/>
        <pt x="178" y="552" on="1"/>
        <pt x="178" y="515" on="0"/>
        <pt x="213" y="443" on="0"/>
        <pt x="251" y="398" on="1"/>
        <pt x="430" y="190" on="1"/>
        <pt x="448" y="231" on="0"/>
        <pt x="476" y="338" on="0"/>
        <pt x="486" y="403" on="1"/>
        <pt x="532" y="393" on="1"/>
        <pt x="520" y="320" on="0"/>
        <pt x="484" y="199" on="0"/>
        <pt x="462" y="153" on="1"/>
        <pt x="588" y="6" on="1"/>
      </contour>
    </TTGlyph>
    <TTGlyph name="ampersand.flat" xMin="46" yMin="-8" xMax="593" yMax="698">
      <contour>
        <pt x="239" y="34" on="1"/>
        <pt x="287" y="34" on="0"/>
        <pt x="376" y="89" on="0"/>
        <pt x="409" y="145" on="1"/>
        <pt x="227" y="355" on="1"/>
        <pt x="165" y="325" on="0"/>
        <pt x="94" y="232" on="0"/>
        <pt x="94" y="176" on="1"/>
        <pt x="94" y="116" on="0"/>
        <pt x="177" y="34" on="0"/>
      </contour>
      <contour>
        <pt x="534" y="0" on="1"/>
        <pt x="439" y="110" on="1"/>
        <pt x="401" y="52" on="0"/>
        <pt x="298" y="-8" on="0"/>
        <pt x="239" y="-8" on="1"/>
        <pt x="152" y="-8" on="0"/>
        <pt x="46" y="97" on="0"/>
        <pt x="46" y="174" on="1"/>
        <pt x="46" y="248" on="0"/>
        <pt x="135" y="353" on="0"/>
        <pt x="201" y="387" on="1"/>
        <pt x="167" y="430" on="0"/>
        <pt x="130" y="506" on="0"/>
        <pt x="130" y="550" on="1"/>
        <pt x="130" y="611" on="0"/>
        <pt x="217" y="698" on="0"/>
        <pt x="290" y="698" on="1"/>
        <pt x="328" y="698" on="0"/>
        <pt x="395" y="677" on="0"/>
        <pt x="427" y="658" on="1"/>
        <pt x="416" y="609" on="1"/>
        <pt x="382" y="633" on="0"/>
        <pt x="319" y="656" on="0"/>
        <pt x="287" y="656" on="1"/>
        <pt x="237" y="656" on="0"/>
        <pt x="178" y="595" on="0"/>
        <pt x="178" y="552" on="1"/>
        <pt x="178" y="515" on="0"/>
        <pt x="213" y="443" on="0"/>
        <pt x="251" y="398" on="1"/>
        <pt x="430" y="189" on="1"/>
        <pt x="448" y="230" on="0"/>
        <pt x="476" y="337" on="0"/>
        <pt x="486" y="403" on="1"/>
        <pt x="532" y="393" on="1"/>
        <pt x="520" y="320" on="0"/>
        <pt x="484" y="199" on="0"/>
        <pt x="462" y="153" on="1"/>
        <pt x="593" y="0" on="1"/>
      </contour>
    </TTGlyph>
    <TTGlyph name="aogonek" xMin="38" yMin="-162" xMax="380" yMax="479">
      <component glyphName="a" x="0" y="0" flags="0x204"/>
      <component glyphName="ogonek" x="119" y="0" flags="0x4"/>
    </TTGlyph>
    <TTGlyph name="aring" xMin="38" yMin="-9" xMax="355" yMax="711">
      <component glyphName="a" x="0" y="0" flags="0x204"/>
      <component glyphName="ring" x="5" y="0" flags="0x4"/>
    </TTGlyph>
    <TTGlyph name="aringacute" xMin="38" yMin="-9" xMax="355" yMax="884">
      <component glyphName="a" x="0" y="0" flags="0x204"/>
      <component glyphName="ring" x="9" y="0" flags="0x4"/>
      <component glyphName="acute" x="55" y="208" flags="0x4"/>
    </TTGlyph>
    <TTGlyph name="asciicircum" xMin="66" yMin="509" xMax="332" yMax="699">
      <contour>
        <pt x="332" y="509" on="1"/>
        <pt x="294" y="509" on="1"/>
        <pt x="199" y="649" on="1"/>
        <pt x="103" y="509" on="1"/>
        <pt x="66" y="509" on="1"/>
        <pt x="180" y="699" on="1"/>
        <pt x="219" y="699" on="1"/>
      </contour>
    </TTGlyph>
    <TTGlyph name="asciitilde" xMin="56" yMin="254" xMax="358" yMax="368">
      <contour>
        <pt x="358" y="361" on="1"/>
        <pt x="348" y="307" on="0"/>
        <pt x="312" y="256" on="0"/>
        <pt x="285" y="256" on="1"/>
        <pt x="266" y="256" on="0"/>
        <pt x="232" y="271" on="0"/>
        <pt x="199" y="291" on="1"/>
        <pt x="174" y="307" on="0"/>
        <pt x="144" y="323" on="0"/>
        <pt x="132" y="323" on="1"/>
        <pt x="118" y="323" on="0"/>
        <pt x="99" y="288" on="0"/>
        <pt x="91" y="254" on="1"/>
        <pt x="56" y="261" on="1"/>
        <pt x="66" y="316" on="0"/>
        <pt x="103" y="367" on="0"/>
        <pt x="129" y="367" on="1"/>
        <pt x="148" y="367" on="0"/>
        <pt x="182" y="351" on="0"/>
        <pt x="216" y="331" on="1"/>
        <pt x="241" y="316" on="0"/>
        <pt x="271" y="300" on="0"/>
        <pt x="282" y="300" on="1"/>
        <pt x="296" y="300" on="0"/>
        <pt x="316" y="334" on="0"/>
        <pt x="323" y="368" on="1"/>
      </contour>
    </TTGlyph>
    <TTGlyph name="asterisk" xMin="41" yMin="435" xMax="312" yMax="696">
      <contour>
        <pt x="312" y="589" on="1"/>
        <pt x="204" y="545" on="1"/>
        <pt x="266" y="443" on="1"/>
        <pt x="253" y="435" on="1"/>
        <pt x="176" y="526" on="1"/>
        <pt x="100" y="435" on="1"/>
        <pt x="86" y="443" on="1"/>
        <pt x="148" y="545" on="1"/>
        <pt x="41" y="589" on="1"/>
        <pt x="45" y="605" on="1"/>
        <pt x="159" y="577" on="1"/>
        <pt x="168" y="696" on="1"/>
        <pt x="185" y="696" on="1"/>
        <pt x="193" y="577" on="1"/>
        <pt x="307" y="605" on="1"/>
      </contour>
    </TTGlyph>
    <TTGlyph name="at" xMin="48" yMin="-139" xMax="720" yMax="626">
      <contour>
        <pt x="341" y="-139" on="1"/>
        <pt x="276" y="-139" on="0"/>
        <pt x="167" y="-101" on="0"/>
        <pt x="91" y="-24" on="0"/>
        <pt x="48" y="94" on="0"/>
        <pt x="48" y="173" on="1"/>
        <pt x="48" y="266" on="0"/>
        <pt x="108" y="431" on="0"/>
        <pt x="213" y="554" on="0"/>
        <pt x="357" y="626" on="0"/>
        <pt x="440" y="626" on="1"/>
        <pt x="574" y="626" on="0"/>
        <pt x="720" y="469" on="0"/>
        <pt x="720" y="333" on="1"/>
        <pt x="720" y="269" on="0"/>
        <pt x="692" y="163" on="0"/>
        <pt x="645" y="87" on="0"/>
        <pt x="583" y="45" on="0"/>
        <pt x="548" y="45" on="1"/>
        <pt x="502" y="45" on="0"/>
        <pt x="454" y="98" on="0"/>
        <pt x="453" y="141" on="1"/>
        <pt x="416" y="95" on="0"/>
        <pt x="351" y="48" on="0"/>
        <pt x="318" y="48" on="1"/>
        <pt x="277" y="48" on="0"/>
        <pt x="224" y="118" on="0"/>
        <pt x="224" y="178" on="1"/>
        <pt x="224" y="232" on="0"/>
        <pt x="258" y="329" on="0"/>
        <pt x="315" y="401" on="0"/>
        <pt x="393" y="444" on="0"/>
        <pt x="437" y="444" on="1"/>
        <pt x="465" y="444" on="0"/>
        <pt x="515" y="430" on="0"/>
        <pt x="534" y="421" on="1"/>
        <pt x="498" y="188" on="1"/>
        <pt x="496" y="177" on="0"/>
        <pt x="493" y="152" on="0"/>
        <pt x="493" y="141" on="1"/>
        <pt x="493" y="110" on="0"/>
        <pt x="521" y="74" on="0"/>
        <pt x="552" y="74" on="1"/>
        <pt x="578" y="74" on="0"/>
        <pt x="628" y="111" on="0"/>
        <pt x="666" y="178" on="0"/>
        <pt x="689" y="274" on="0"/>
        <pt x="689" y="332" on="1"/>
        <pt x="689" y="456" on="0"/>
        <pt x="558" y="596" on="0"/>
        <pt x="439" y="596" on="1"/>
        <pt x="362" y="596" on="0"/>
        <pt x="230" y="527" on="0"/>
        <pt x="134" y="412" on="0"/>
        <pt x="79" y="258" on="0"/>
        <pt x="79" y="174" on="1"/>
        <pt x="79" y="102" on="0"/>
        <pt x="118" y="-5" on="0"/>
        <pt x="187" y="-75" on="0"/>
        <pt x="285" y="-109" on="0"/>
        <pt x="344" y="-109" on="1"/>
        <pt x="395" y="-109" on="0"/>
        <pt x="497" y="-84" on="0"/>
        <pt x="537" y="-63" on="1"/>
        <pt x="541" y="-93" on="1"/>
        <pt x="503" y="-112" on="0"/>
        <pt x="396" y="-139" on="0"/>
      </contour>
      <contour>
        <pt x="325" y="86" on="1"/>
        <pt x="352" y="86" on="0"/>
        <pt x="412" y="134" on="0"/>
        <pt x="455" y="189" on="1"/>
        <pt x="489" y="394" on="1"/>
        <pt x="476" y="400" on="0"/>
        <pt x="450" y="406" on="0"/>
        <pt x="434" y="406" on="1"/>
        <pt x="401" y="406" on="0"/>
        <pt x="340" y="371" on="0"/>
        <pt x="294" y="311" on="0"/>
        <pt x="267" y="228" on="0"/>
        <pt x="267" y="181" on="1"/>
        <pt x="267" y="133" on="0"/>
        <pt x="298" y="86" on="0"/>
      </contour>
    </TTGlyph>
    <TTGlyph name="atilde" xMin="38" yMin="-9" xMax="355" yMax="642">
      <component glyphName="a" x="0" y="0" flags="0x204"/>
      <component glyphName="tilde" x="9" y="0" flags="0x4"/>
    </TTGlyph>
    <TTGlyph name="b" xMin="70" yMin="-6" xMax="418" yMax="716">
      <contour>
        <pt x="418" y="246" on="1"/>
        <pt x="418" y="183" on="0"/>
        <pt x="386" y="87" on="0"/>
        <pt x="331" y="25" on="0"/>
        <pt x="256" y="-6" on="0"/>
        <pt x="213" y="-6" on="1"/>
        <pt x="173" y="-6" on="0"/>
        <pt x="101" y="13" on="0"/>
        <pt x="70" y="26" on="1"/>
        <pt x="70" y="706" on="1"/>
        <pt x="116" y="716" on="1"/>
        <pt x="116" y="409" on="1"/>
        <pt x="143" y="439" on="0"/>
        <pt x="207" y="480" on="0"/>
        <pt x="250" y="480" on="1"/>
        <pt x="321" y="480" on="0"/>
        <pt x="418" y="363" on="0"/>
      </contour>
      <contour>
        <pt x="371" y="245" on="1"/>
        <pt x="371" y="339" on="0"/>
        <pt x="302" y="438" on="0"/>
        <pt x="246" y="438" on="1"/>
        <pt x="211" y="438" on="0"/>
        <pt x="150" y="396" on="0"/>
        <pt x="116" y="359" on="1"/>
        <pt x="116" y="55" on="1"/>
        <pt x="137" y="46" on="0"/>
        <pt x="187" y="35" on="0"/>
        <pt x="216" y="35" on="1"/>
        <pt x="282" y="35" on="0"/>
        <pt x="371" y="138" on="0"/>
      </contour>
    </TTGlyph>
    <TTGlyph name="backslash" xMin="13" yMin="-122" xMax="424" yMax="695">
      <contour>
        <pt x="424" y="-113" on="1"/>
        <pt x="384" y="-122" on="1"/>
        <pt x="13" y="687" on="1"/>
        <pt x="53" y="695" on="1"/>
      </contour>
    </TTGlyph>
    <TTGlyph name="baht" xMin="4" yMin="-127" xMax="452" yMax="741">
      <contour>
        <pt x="217" y="643" on="1"/>
        <pt x="119" y="643" on="1"/>
        <pt x="119" y="377" on="1"/>
        <pt x="216" y="377" on="1"/>
        <pt x="291" y="377" on="0"/>
        <pt x="369" y="460" on="0"/>
        <pt x="369" y="517" on="1"/>
        <pt x="369" y="575" on="0"/>
        <pt x="292" y="643" on="0"/>
      </contour>
      <contour>
        <pt x="217" y="338" on="1"/>
        <pt x="119" y="338" on="1"/>
        <pt x="119" y="41" on="1"/>
        <pt x="222" y="41" on="1"/>
        <pt x="303" y="41" on="0"/>
        <pt x="399" y="121" on="0"/>
        <pt x="399" y="188" on="1"/>
        <pt x="399" y="266" on="0"/>
        <pt x="298" y="338" on="0"/>
      </contour>
      <contour>
        <pt x="219" y="0" on="1"/>
        <pt x="102" y="0" on="1"/>
        <pt x="40" y="-127" on="1"/>
        <pt x="4" y="-119" on="1"/>
        <pt x="73" y="23" on="1"/>
        <pt x="73" y="683" on="1"/>
        <pt x="219" y="683" on="1"/>
        <pt x="265" y="683" on="0"/>
        <pt x="340" y="661" on="0"/>
        <pt x="365" y="639" on="1"/>
        <pt x="416" y="741" on="1"/>
        <pt x="452" y="733" on="1"/>
        <pt x="391" y="609" on="1"/>
        <pt x="403" y="590" on="0"/>
        <pt x="416" y="545" on="0"/>
        <pt x="416" y="519" on="1"/>
        <pt x="416" y="462" on="0"/>
        <pt x="353" y="381" on="0"/>
        <pt x="307" y="363" on="1"/>
        <pt x="369" y="345" on="0"/>
        <pt x="445" y="262" on="0"/>
        <pt x="445" y="192" on="1"/>
        <pt x="445" y="102" on="0"/>
        <pt x="318" y="0" on="0"/>
      </contour>
    </TTGlyph>
    <TTGlyph name="bar" xMin="99" yMin="-191" xMax="139" yMax="723">
      <contour>
        <pt x="139" y="-185" on="1"/>
        <pt x="99" y="-191" on="1"/>
        <pt x="99" y="717" on="1"/>
        <pt x="139" y="723" on="1"/>
      </contour>
    </TTGlyph>
    <TTGlyph name="bar.tab" xMin="99" yMin="-131" xMax="141" yMax="815">
      <contour>
        <pt x="141" y="-124" on="1"/>
        <pt x="99" y="-131" on="1"/>
        <pt x="99" y="808" on="1"/>
        <pt x="141" y="815" on="1"/>
      </contour>
    </TTGlyph>
    <TTGlyph name="braceleft" xMin="35" yMin="-106" xMax="351" yMax="690">
      <contour>
        <pt x="351" y="-106" on="1"/>
        <pt x="295" y="-106" on="1"/>
        <pt x="222" y="-106" on="0"/>
        <pt x="152" y="-43" on="0"/>
        <pt x="152" y="20" on="1"/>
        <pt x="152" y="53" on="0"/>
        <pt x="168" y="126" on="0"/>
        <pt x="168" y="163" on="1"/>
        <pt x="168" y="225" on="0"/>
        <pt x="104" y="274" on="0"/>
        <pt x="56" y="274" on="1"/>
        <pt x="40" y="274" on="1"/>
        <pt x="35" y="310" on="1"/>
        <pt x="56" y="310" on="1"/>
        <pt x="105" y="310" on="0"/>
        <pt x="168" y="357" on="0"/>
        <pt x="168" y="420" on="1"/>
        <pt x="168" y="456" on="0"/>
        <pt x="152" y="529" on="0"/>
        <pt x="152" y="563" on="1"/>
        <pt x="152" y="625" on="0"/>
        <pt x="222" y="690" on="0"/>
        <pt x="295" y="690" on="1"/>
        <pt x="346" y="690" on="1"/>
        <pt x="346" y="653" on="1"/>
        <pt x="292" y="653" on="1"/>
        <pt x="242" y="653" on="0"/>
        <pt x="197" y="605" on="0"/>
        <pt x="197" y="564" on="1"/>
        <pt x="197" y="534" on="0"/>
        <pt x="213" y="454" on="0"/>
        <pt x="213" y="421" on="1"/>
        <pt x="213" y="360" on="0"/>
        <pt x="158" y="303" on="0"/>
        <pt x="113" y="293" on="1"/>
        <pt x="113" y="291" on="1"/>
        <pt x="158" y="280" on="0"/>
        <pt x="213" y="224" on="0"/>
        <pt x="213" y="162" on="1"/>
        <pt x="213" y="129" on="0"/>
        <pt x="197" y="49" on="0"/>
        <pt x="197" y="19" on="1"/>
        <pt x="197" y="-23" on="0"/>
        <pt x="239" y="-69" on="0"/>
        <pt x="290" y="-69" on="1"/>
        <pt x="344" y="-69" on="1"/>
      </contour>
    </TTGlyph>
    <TTGlyph name="braceleft.flat" xMin="37" yMin="-106" xMax="346" yMax="690">
      <contour>
        <pt x="346" y="-106" on="1"/>
        <pt x="295" y="-106" on="1"/>
        <pt x="222" y="-106" on="0"/>
        <pt x="152" y="-43" on="0"/>
        <pt x="152" y="20" on="1"/>
        <pt x="152" y="53" on="0"/>
        <pt x="168" y="126" on="0"/>
        <pt x="168" y="163" on="1"/>
        <pt x="168" y="225" on="0"/>
        <pt x="104" y="274" on="0"/>
        <pt x="56" y="274" on="1"/>
        <pt x="37" y="274" on="1"/>
        <pt x="37" y="310" on="1"/>
        <pt x="56" y="310" on="1"/>
        <pt x="105" y="310" on="0"/>
        <pt x="168" y="357" on="0"/>
        <pt x="168" y="420" on="1"/>
        <pt x="168" y="456" on="0"/>
        <pt x="152" y="529" on="0"/>
        <pt x="152" y="563" on="1"/>
        <pt x="152" y="625" on="0"/>
        <pt x="222" y="690" on="0"/>
        <pt x="295" y="690" on="1"/>
        <pt x="346" y="690" on="1"/>
        <pt x="346" y="653" on="1"/>
        <pt x="292" y="653" on="1"/>
        <pt x="242" y="653" on="0"/>
        <pt x="197" y="605" on="0"/>
        <pt x="197" y="564" on="1"/>
        <pt x="197" y="534" on="0"/>
        <pt x="213" y="454" on="0"/>
        <pt x="213" y="421" on="1"/>
        <pt x="213" y="360" on="0"/>
        <pt x="158" y="303" on="0"/>
        <pt x="113" y="293" on="1"/>
        <pt x="113" y="291" on="1"/>
        <pt x="158" y="280" on="0"/>
        <pt x="213" y="224" on="0"/>
        <pt x="213" y="162" on="1"/>
        <pt x="213" y="129" on="0"/>
        <pt x="197" y="49" on="0"/>
        <pt x="197" y="19" on="1"/>
        <pt x="197" y="-23" on="0"/>
        <pt x="239" y="-69" on="0"/>
        <pt x="290" y="-69" on="1"/>
        <pt x="346" y="-69" on="1"/>
      </contour>
    </TTGlyph>
    <TTGlyph name="braceright" xMin="42" yMin="-106" xMax="357" yMax="690">
      <contour>
        <pt x="42" y="690" on="1"/>
        <pt x="98" y="690" on="1"/>
        <pt x="171" y="690" on="0"/>
        <pt x="240" y="627" on="0"/>
        <pt x="240" y="565" on="1"/>
        <pt x="240" y="531" on="0"/>
        <pt x="224" y="458" on="0"/>
        <pt x="224" y="421" on="1"/>
        <pt x="224" y="359" on="0"/>
        <pt x="288" y="311" on="0"/>
        <pt x="336" y="311" on="1"/>
        <pt x="352" y="311" on="1"/>
        <pt x="357" y="275" on="1"/>
        <pt x="336" y="275" on="1"/>
        <pt x="287" y="275" on="0"/>
        <pt x="224" y="227" on="0"/>
        <pt x="224" y="164" on="1"/>
        <pt x="224" y="128" on="0"/>
        <pt x="240" y="56" on="0"/>
        <pt x="240" y="22" on="1"/>
        <pt x="240" y="-41" on="0"/>
        <pt x="171" y="-106" on="0"/>
        <pt x="98" y="-106" on="1"/>
        <pt x="47" y="-106" on="1"/>
        <pt x="47" y="-69" on="1"/>
        <pt x="101" y="-69" on="1"/>
        <pt x="151" y="-69" on="0"/>
        <pt x="196" y="-21" on="0"/>
        <pt x="196" y="21" on="1"/>
        <pt x="196" y="51" on="0"/>
        <pt x="179" y="130" on="0"/>
        <pt x="179" y="163" on="1"/>
        <pt x="179" y="224" on="0"/>
        <pt x="234" y="281" on="0"/>
        <pt x="280" y="291" on="1"/>
        <pt x="280" y="293" on="1"/>
        <pt x="234" y="304" on="0"/>
        <pt x="179" y="360" on="0"/>
        <pt x="179" y="422" on="1"/>
        <pt x="179" y="455" on="0"/>
        <pt x="196" y="536" on="0"/>
        <pt x="196" y="566" on="1"/>
        <pt x="196" y="607" on="0"/>
        <pt x="153" y="653" on="0"/>
        <pt x="102" y="653" on="1"/>
        <pt x="49" y="653" on="1"/>
      </contour>
    </TTGlyph>
    <TTGlyph name="braceright.flat" xMin="47" yMin="-106" xMax="355" yMax="690">
      <contour>
        <pt x="47" y="690" on="1"/>
        <pt x="98" y="690" on="1"/>
        <pt x="171" y="690" on="0"/>
        <pt x="240" y="627" on="0"/>
        <pt x="240" y="565" on="1"/>
        <pt x="240" y="531" on="0"/>
        <pt x="224" y="458" on="0"/>
        <pt x="224" y="421" on="1"/>
        <pt x="224" y="359" on="0"/>
        <pt x="288" y="311" on="0"/>
        <pt x="336" y="311" on="1"/>
        <pt x="355" y="311" on="1"/>
        <pt x="355" y="275" on="1"/>
        <pt x="336" y="275" on="1"/>
        <pt x="287" y="275" on="0"/>
        <pt x="224" y="227" on="0"/>
        <pt x="224" y="164" on="1"/>
        <pt x="224" y="128" on="0"/>
        <pt x="240" y="56" on="0"/>
        <pt x="240" y="22" on="1"/>
        <pt x="240" y="-41" on="0"/>
        <pt x="171" y="-106" on="0"/>
        <pt x="98" y="-106" on="1"/>
        <pt x="47" y="-106" on="1"/>
        <pt x="47" y="-69" on="1"/>
        <pt x="101" y="-69" on="1"/>
        <pt x="151" y="-69" on="0"/>
        <pt x="196" y="-21" on="0"/>
        <pt x="196" y="21" on="1"/>
        <pt x="196" y="51" on="0"/>
        <pt x="179" y="130" on="0"/>
        <pt x="179" y="163" on="1"/>
        <pt x="179" y="224" on="0"/>
        <pt x="234" y="281" on="0"/>
        <pt x="280" y="291" on="1"/>
        <pt x="280" y="293" on="1"/>
        <pt x="234" y="304" on="0"/>
        <pt x="179" y="360" on="0"/>
        <pt x="179" y="422" on="1"/>
        <pt x="179" y="455" on="0"/>
        <pt x="196" y="536" on="0"/>
        <pt x="196" y="566" on="1"/>
        <pt x="196" y="607" on="0"/>
        <pt x="153" y="653" on="0"/>
        <pt x="102" y="653" on="1"/>
        <pt x="47" y="653" on="1"/>
      </contour>
    </TTGlyph>
    <TTGlyph name="bracketleft" xMin="91" yMin="-106" xMax="299" yMax="690">
      <contour>
        <pt x="299" y="-106" on="1"/>
        <pt x="91" y="-106" on="1"/>
        <pt x="91" y="690" on="1"/>
        <pt x="294" y="690" on="1"/>
        <pt x="294" y="653" on="1"/>
        <pt x="136" y="653" on="1"/>
        <pt x="136" y="-69" on="1"/>
        <pt x="292" y="-69" on="1"/>
      </contour>
    </TTGlyph>
    <TTGlyph name="bracketleft.flat" xMin="91" yMin="-106" xMax="294" yMax="690">
      <contour>
        <pt x="294" y="-106" on="1"/>
        <pt x="91" y="-106" on="1"/>
        <pt x="91" y="690" on="1"/>
        <pt x="294" y="690" on="1"/>
        <pt x="294" y="653" on="1"/>
        <pt x="136" y="653" on="1"/>
        <pt x="136" y="-69" on="1"/>
        <pt x="294" y="-69" on="1"/>
      </contour>
    </TTGlyph>
    <TTGlyph name="bracketright" xMin="42" yMin="-106" xMax="249" yMax="690">
      <contour>
        <pt x="42" y="690" on="1"/>
        <pt x="249" y="690" on="1"/>
        <pt x="249" y="-106" on="1"/>
        <pt x="46" y="-106" on="1"/>
        <pt x="46" y="-69" on="1"/>
        <pt x="205" y="-69" on="1"/>
        <pt x="205" y="653" on="1"/>
        <pt x="48" y="653" on="1"/>
      </contour>
    </TTGlyph>
    <TTGlyph name="bracketright.flat" xMin="46" yMin="-106" xMax="249" yMax="690">
      <contour>
        <pt x="46" y="690" on="1"/>
        <pt x="249" y="690" on="1"/>
        <pt x="249" y="-106" on="1"/>
        <pt x="46" y="-106" on="1"/>
        <pt x="46" y="-69" on="1"/>
        <pt x="205" y="-69" on="1"/>
        <pt x="205" y="653" on="1"/>
        <pt x="46" y="653" on="1"/>
      </contour>
    </TTGlyph>
    <TTGlyph name="breve" xMin="96" yMin="540" xMax="312" yMax="652">
      <contour>
        <pt x="312" y="647" on="1"/>
        <pt x="308" y="600" on="0"/>
        <pt x="254" y="540" on="0"/>
        <pt x="204" y="540" on="1"/>
        <pt x="154" y="540" on="0"/>
        <pt x="100" y="600" on="0"/>
        <pt x="96" y="647" on="1"/>
        <pt x="129" y="652" on="1"/>
        <pt x="136" y="618" on="0"/>
        <pt x="174" y="584" on="0"/>
        <pt x="204" y="584" on="1"/>
        <pt x="234" y="584" on="0"/>
        <pt x="273" y="618" on="0"/>
        <pt x="280" y="652" on="1"/>
      </contour>
    </TTGlyph>
    <TTGlyph name="bullet" xMin="93" yMin="239" xMax="286" yMax="460">
      <contour>
        <pt x="286" y="350" on="1"/>
        <pt x="272" y="255" on="1"/>
        <pt x="190" y="239" on="1"/>
        <pt x="108" y="255" on="1"/>
        <pt x="93" y="350" on="1"/>
        <pt x="108" y="445" on="1"/>
        <pt x="190" y="460" on="1"/>
        <pt x="272" y="445" on="1"/>
      </contour>
    </TTGlyph>
    <TTGlyph name="c" xMin="42" yMin="-9" xMax="361" yMax="480">
      <contour>
        <pt x="361" y="41" on="1"/>
        <pt x="333" y="18" on="0"/>
        <pt x="266" y="-9" on="0"/>
        <pt x="228" y="-9" on="1"/>
        <pt x="145" y="-9" on="0"/>
        <pt x="42" y="125" on="0"/>
        <pt x="42" y="235" on="1"/>
        <pt x="42" y="345" on="0"/>
        <pt x="149" y="480" on="0"/>
        <pt x="231" y="480" on="1"/>
        <pt x="268" y="480" on="0"/>
        <pt x="331" y="456" on="0"/>
        <pt x="358" y="435" on="1"/>
        <pt x="349" y="387" on="1"/>
        <pt x="319" y="413" on="0"/>
        <pt x="263" y="438" on="0"/>
        <pt x="229" y="438" on="1"/>
        <pt x="168" y="438" on="0"/>
        <pt x="89" y="326" on="0"/>
        <pt x="89" y="236" on="1"/>
        <pt x="89" y="193" on="0"/>
        <pt x="109" y="118" on="0"/>
        <pt x="146" y="63" on="0"/>
        <pt x="199" y="32" on="0"/>
        <pt x="232" y="32" on="1"/>
        <pt x="264" y="32" on="0"/>
        <pt x="325" y="57" on="0"/>
        <pt x="354" y="85" on="1"/>
      </contour>
    </TTGlyph>
    <TTGlyph name="cacute" xMin="42" yMin="-9" xMax="361" yMax="676">
      <component glyphName="c" x="0" y="0" flags="0x204"/>
      <component glyphName="acute" x="74" y="0" flags="0x4"/>
    </TTGlyph>
    <TTGlyph name="caron" xMin="95" yMin="537" xMax="316" yMax="675">
      <contour>
        <pt x="95" y="675" on="1"/>
        <pt x="127" y="675" on="1"/>
        <pt x="205" y="591" on="1"/>
        <pt x="284" y="675" on="1"/>
        <pt x="316" y="675" on="1"/>
        <pt x="224" y="537" on="1"/>
        <pt x="187" y="537" on="1"/>
      </contour>
    </TTGlyph>
    <TTGlyph name="caron.alt" xMin="160" yMin="534" xMax="236" yMax="713">
      <contour>
        <pt x="218" y="713" on="1"/>
        <pt x="226" y="697" on="0"/>
        <pt x="236" y="665" on="0"/>
        <pt x="236" y="647" on="1"/>
        <pt x="236" y="615" on="0"/>
        <pt x="205" y="558" on="0"/>
        <pt x="181" y="534" on="1"/>
        <pt x="160" y="539" on="1"/>
        <pt x="176" y="564" on="0"/>
        <pt x="193" y="607" on="0"/>
        <pt x="193" y="630" on="1"/>
        <pt x="193" y="649" on="0"/>
        <pt x="183" y="684" on="0"/>
        <pt x="174" y="703" on="1"/>
      </contour>
    </TTGlyph>
    <TTGlyph name="ccaron" xMin="42" yMin="-9" xMax="361" yMax="675">
      <component glyphName="c" x="0" y="0" flags="0x204"/>
      <component glyphName="caron" x="22" y="0" flags="0x4"/>
    </TTGlyph>
    <TTGlyph name="ccedilla" xMin="42" yMin="-184" xMax="361" yMax="480">
      <component glyphName="c" x="0" y="0" flags="0x204"/>
      <component glyphName="cedilla" x="8" y="0" flags="0x4"/>
    </TTGlyph>
    <TTGlyph name="cdotaccent" xMin="42" yMin="-9" xMax="361" yMax="621">
      <component glyphName="c" x="0" y="0" flags="0x204"/>
      <component glyphName="dotaccent" x="22" y="0" flags="0x4"/>
    </TTGlyph>
    <TTGlyph name="cedilla" xMin="118" yMin="-184" xMax="259" yMax="-56">
      <contour>
        <pt x="259" y="-71" on="1"/>
        <pt x="151" y="-184" on="1"/>
        <pt x="118" y="-184" on="1"/>
        <pt x="201" y="-56" on="1"/>
      </contour>
    </TTGlyph>
    <TTGlyph name="cent" xMin="52" yMin="-10" xMax="385" yMax="692">
      <contour>
        <pt x="95" y="339" on="1"/>
        <pt x="95" y="263" on="0"/>
        <pt x="148" y="161" on="0"/>
        <pt x="193" y="143" on="1"/>
        <pt x="256" y="549" on="1"/>
        <pt x="251" y="549" on="1"/>
        <pt x="249" y="549" on="1"/>
        <pt x="180" y="549" on="0"/>
        <pt x="95" y="435" on="0"/>
      </contour>
      <contour>
        <pt x="242" y="95" on="1"/>
        <pt x="237" y="95" on="0"/>
        <pt x="226" y="95" on="0"/>
        <pt x="222" y="96" on="1"/>
        <pt x="205" y="-10" on="1"/>
        <pt x="170" y="-2" on="1"/>
        <pt x="186" y="104" on="1"/>
        <pt x="128" y="123" on="0"/>
        <pt x="52" y="243" on="0"/>
        <pt x="52" y="338" on="1"/>
        <pt x="52" y="395" on="0"/>
        <pt x="83" y="487" on="0"/>
        <pt x="136" y="551" on="0"/>
        <pt x="208" y="586" on="0"/>
        <pt x="249" y="586" on="1"/>
        <pt x="252" y="586" on="0"/>
        <pt x="258" y="586" on="0"/>
        <pt x="262" y="586" on="1"/>
        <pt x="278" y="692" on="1"/>
        <pt x="314" y="684" on="1"/>
        <pt x="298" y="581" on="1"/>
        <pt x="323" y="576" on="0"/>
        <pt x="364" y="554" on="0"/>
        <pt x="382" y="541" on="1"/>
        <pt x="373" y="498" on="1"/>
        <pt x="352" y="514" on="0"/>
        <pt x="313" y="538" on="0"/>
        <pt x="291" y="544" on="1"/>
        <pt x="227" y="134" on="1"/>
        <pt x="231" y="133" on="0"/>
        <pt x="241" y="133" on="0"/>
        <pt x="245" y="133" on="1"/>
        <pt x="246" y="133" on="1"/>
        <pt x="279" y="133" on="0"/>
        <pt x="345" y="159" on="0"/>
        <pt x="378" y="184" on="1"/>
        <pt x="385" y="145" on="1"/>
        <pt x="356" y="123" on="0"/>
        <pt x="282" y="95" on="0"/>
      </contour>
    </TTGlyph>
    <TTGlyph name="cent.tab" xMin="73" yMin="-11" xMax="414" yMax="692">
      <contour>
        <pt x="117" y="339" on="1"/>
        <pt x="117" y="266" on="0"/>
        <pt x="170" y="164" on="0"/>
        <pt x="215" y="144" on="1"/>
        <pt x="277" y="549" on="1"/>
        <pt x="276" y="549" on="1"/>
        <pt x="275" y="549" on="1"/>
        <pt x="204" y="549" on="0"/>
        <pt x="117" y="433" on="0"/>
      </contour>
      <contour>
        <pt x="267" y="95" on="1"/>
        <pt x="261" y="95" on="0"/>
        <pt x="248" y="96" on="0"/>
        <pt x="242" y="97" on="1"/>
        <pt x="226" y="-11" on="1"/>
        <pt x="192" y="-3" on="1"/>
        <pt x="208" y="105" on="1"/>
        <pt x="150" y="124" on="0"/>
        <pt x="73" y="245" on="0"/>
        <pt x="73" y="338" on="1"/>
        <pt x="73" y="395" on="0"/>
        <pt x="105" y="487" on="0"/>
        <pt x="159" y="551" on="0"/>
        <pt x="234" y="586" on="0"/>
        <pt x="276" y="586" on="1"/>
        <pt x="277" y="586" on="0"/>
        <pt x="282" y="586" on="0"/>
        <pt x="283" y="586" on="1"/>
        <pt x="299" y="692" on="1"/>
        <pt x="334" y="684" on="1"/>
        <pt x="318" y="582" on="1"/>
        <pt x="345" y="578" on="0"/>
        <pt x="392" y="555" on="0"/>
        <pt x="411" y="540" on="1"/>
        <pt x="402" y="498" on="1"/>
        <pt x="380" y="516" on="0"/>
        <pt x="335" y="540" on="0"/>
        <pt x="311" y="545" on="1"/>
        <pt x="248" y="135" on="1"/>
        <pt x="253" y="134" on="0"/>
        <pt x="265" y="133" on="0"/>
        <pt x="271" y="133" on="1"/>
        <pt x="272" y="133" on="1"/>
        <pt x="306" y="133" on="0"/>
        <pt x="373" y="160" on="0"/>
        <pt x="407" y="185" on="1"/>
        <pt x="414" y="145" on="1"/>
        <pt x="384" y="123" on="0"/>
        <pt x="309" y="95" on="0"/>
      </contour>
    </TTGlyph>
    <TTGlyph name="circumflex" xMin="94" yMin="537" xMax="315" yMax="675">
      <contour>
        <pt x="315" y="537" on="1"/>
        <pt x="282" y="537" on="1"/>
        <pt x="204" y="621" on="1"/>
        <pt x="126" y="537" on="1"/>
        <pt x="94" y="537" on="1"/>
        <pt x="186" y="675" on="1"/>
        <pt x="223" y="675" on="1"/>
      </contour>
    </TTGlyph>
    <TTGlyph name="colon" xMin="63" yMin="0" xMax="121" yMax="470">
      <contour>
        <pt x="121" y="390" on="1"/>
        <pt x="63" y="390" on="1"/>
        <pt x="63" y="470" on="1"/>
        <pt x="121" y="470" on="1"/>
      </contour>
      <contour>
        <pt x="121" y="0" on="1"/>
        <pt x="63" y="0" on="1"/>
        <pt x="63" y="81" on="1"/>
        <pt x="121" y="81" on="1"/>
      </contour>
    </TTGlyph>
    <TTGlyph name="colon.tab" xMin="93" yMin="0" xMax="151" yMax="470">
      <contour>
        <pt x="151" y="390" on="1"/>
        <pt x="93" y="390" on="1"/>
        <pt x="93" y="470" on="1"/>
        <pt x="151" y="470" on="1"/>
      </contour>
      <contour>
        <pt x="151" y="0" on="1"/>
        <pt x="93" y="0" on="1"/>
        <pt x="93" y="81" on="1"/>
        <pt x="151" y="81" on="1"/>
      </contour>
    </TTGlyph>
    <TTGlyph name="colonmonetary" xMin="36" yMin="-121" xMax="456" yMax="760">
      <contour>
        <pt x="323" y="-121" on="1"/>
        <pt x="289" y="-112" on="1"/>
        <pt x="305" y="-3" on="1"/>
        <pt x="300" y="-4" on="0"/>
        <pt x="290" y="-4" on="0"/>
        <pt x="285" y="-4" on="1"/>
        <pt x="263" y="-4" on="0"/>
        <pt x="222" y="3" on="0"/>
        <pt x="203" y="10" on="1"/>
        <pt x="184" y="-121" on="1"/>
        <pt x="150" y="-112" on="1"/>
        <pt x="170" y="26" on="1"/>
        <pt x="107" y="63" on="0"/>
        <pt x="36" y="226" on="0"/>
        <pt x="36" y="336" on="1"/>
        <pt x="36" y="409" on="0"/>
        <pt x="67" y="534" on="0"/>
        <pt x="126" y="625" on="0"/>
        <pt x="212" y="680" on="0"/>
        <pt x="266" y="685" on="1"/>
        <pt x="276" y="760" on="1"/>
        <pt x="310" y="752" on="1"/>
        <pt x="301" y="686" on="1"/>
        <pt x="331" y="685" on="0"/>
        <pt x="381" y="672" on="0"/>
        <pt x="401" y="662" on="1"/>
        <pt x="415" y="760" on="1"/>
        <pt x="449" y="752" on="1"/>
        <pt x="347" y="42" on="1"/>
        <pt x="372" y="49" on="0"/>
        <pt x="422" y="78" on="0"/>
        <pt x="450" y="100" on="1"/>
        <pt x="456" y="57" on="1"/>
        <pt x="431" y="39" on="0"/>
        <pt x="373" y="9" on="0"/>
        <pt x="341" y="2" on="1"/>
      </contour>
      <contour>
        <pt x="288" y="34" on="1"/>
        <pt x="294" y="34" on="0"/>
        <pt x="306" y="34" on="0"/>
        <pt x="311" y="35" on="1"/>
        <pt x="395" y="619" on="1"/>
        <pt x="373" y="632" on="0"/>
        <pt x="323" y="647" on="0"/>
        <pt x="295" y="648" on="1"/>
        <pt x="209" y="51" on="1"/>
        <pt x="226" y="43" on="0"/>
        <pt x="266" y="34" on="0"/>
      </contour>
      <contour>
        <pt x="79" y="335" on="1"/>
        <pt x="79" y="247" on="0"/>
        <pt x="128" y="107" on="0"/>
        <pt x="177" y="70" on="1"/>
        <pt x="260" y="646" on="1"/>
        <pt x="216" y="640" on="0"/>
        <pt x="148" y="588" on="0"/>
        <pt x="102" y="505" on="0"/>
        <pt x="79" y="397" on="0"/>
      </contour>
    </TTGlyph>
    <TTGlyph name="comma" xMin="25" yMin="-131" xMax="131" yMax="81">
      <contour>
        <pt x="131" y="81" on="1"/>
        <pt x="49" y="-131" on="1"/>
        <pt x="25" y="-125" on="1"/>
        <pt x="71" y="81" on="1"/>
      </contour>
    </TTGlyph>
    <TTGlyph name="comma.alt" xMin="21" yMin="-132" xMax="122" yMax="81">
      <contour>
        <pt x="64" y="81" on="1"/>
        <pt x="117" y="81" on="1"/>
        <pt x="119" y="71" on="0"/>
        <pt x="122" y="50" on="0"/>
        <pt x="122" y="40" on="1"/>
        <pt x="122" y="-1" on="0"/>
        <pt x="84" y="-85" on="0"/>
        <pt x="44" y="-132" on="1"/>
        <pt x="21" y="-121" on="1"/>
        <pt x="48" y="-75" on="0"/>
        <pt x="69" y="0" on="0"/>
        <pt x="69" y="36" on="1"/>
        <pt x="69" y="46" on="0"/>
        <pt x="66" y="67" on="0"/>
      </contour>
    </TTGlyph>
    <TTGlyph name="comma.tab" xMin="61" yMin="-144" xMax="162" yMax="81">
      <contour>
        <pt x="162" y="81" on="1"/>
        <pt x="86" y="-144" on="1"/>
        <pt x="61" y="-138" on="1"/>
        <pt x="103" y="81" on="1"/>
      </contour>
    </TTGlyph>
    <TTGlyph name="comma.tab_alt" xMin="55" yMin="-144" xMax="157" yMax="81">
      <contour>
        <pt x="100" y="81" on="1"/>
        <pt x="153" y="81" on="1"/>
        <pt x="155" y="70" on="0"/>
        <pt x="157" y="48" on="0"/>
        <pt x="157" y="37" on="1"/>
        <pt x="157" y="-6" on="0"/>
        <pt x="117" y="-95" on="0"/>
        <pt x="75" y="-144" on="1"/>
        <pt x="55" y="-132" on="1"/>
        <pt x="83" y="-84" on="0"/>
        <pt x="105" y="-4" on="0"/>
        <pt x="105" y="33" on="1"/>
        <pt x="105" y="43" on="0"/>
        <pt x="103" y="66" on="0"/>
      </contour>
    </TTGlyph>
    <TTGlyph name="commaaccent" xMin="138" yMin="-219" xMax="231" yMax="-59">
      <contour>
        <pt x="153" y="-76" on="1"/>
        <pt x="196" y="-59" on="1"/>
        <pt x="215" y="-75" on="0"/>
        <pt x="231" y="-106" on="0"/>
        <pt x="231" y="-124" on="1"/>
        <pt x="231" y="-150" on="0"/>
        <pt x="196" y="-197" on="0"/>
        <pt x="168" y="-219" on="1"/>
        <pt x="138" y="-216" on="1"/>
        <pt x="162" y="-190" on="0"/>
        <pt x="185" y="-150" on="0"/>
        <pt x="185" y="-133" on="1"/>
        <pt x="185" y="-119" on="0"/>
        <pt x="172" y="-93" on="0"/>
      </contour>
    </TTGlyph>
    <TTGlyph name="commaaccent.rot" xMin="173" yMin="536" xMax="266" yMax="696">
      <contour>
        <pt x="251" y="553" on="1"/>
        <pt x="208" y="536" on="1"/>
        <pt x="189" y="552" on="0"/>
        <pt x="173" y="583" on="0"/>
        <pt x="173" y="601" on="1"/>
        <pt x="173" y="627" on="0"/>
        <pt x="208" y="674" on="0"/>
        <pt x="236" y="696" on="1"/>
        <pt x="266" y="693" on="1"/>
        <pt x="242" y="667" on="0"/>
        <pt x="219" y="627" on="0"/>
        <pt x="219" y="610" on="1"/>
        <pt x="219" y="596" on="0"/>
        <pt x="232" y="570" on="0"/>
      </contour>
    </TTGlyph>
    <TTGlyph name="copyright" xMin="52" yMin="-16" xMax="669" yMax="706">
      <contour>
        <pt x="669" y="345" on="1"/>
        <pt x="669" y="267" on="0"/>
        <pt x="625" y="134" on="0"/>
        <pt x="545" y="39" on="0"/>
        <pt x="431" y="-16" on="0"/>
        <pt x="362" y="-16" on="1"/>
        <pt x="293" y="-16" on="0"/>
        <pt x="178" y="39" on="0"/>
        <pt x="97" y="134" on="0"/>
        <pt x="52" y="267" on="0"/>
        <pt x="52" y="345" on="1"/>
        <pt x="52" y="423" on="0"/>
        <pt x="96" y="556" on="0"/>
        <pt x="177" y="651" on="0"/>
        <pt x="291" y="706" on="0"/>
        <pt x="360" y="706" on="1"/>
        <pt x="429" y="706" on="0"/>
        <pt x="543" y="651" on="0"/>
        <pt x="624" y="556" on="0"/>
        <pt x="669" y="423" on="0"/>
      </contour>
      <contour>
        <pt x="641" y="345" on="1"/>
        <pt x="641" y="418" on="0"/>
        <pt x="601" y="542" on="0"/>
        <pt x="527" y="631" on="0"/>
        <pt x="422" y="681" on="0"/>
        <pt x="359" y="681" on="1"/>
        <pt x="296" y="681" on="0"/>
        <pt x="193" y="631" on="0"/>
        <pt x="121" y="542" on="0"/>
        <pt x="81" y="418" on="0"/>
        <pt x="81" y="345" on="1"/>
        <pt x="81" y="272" on="0"/>
        <pt x="121" y="149" on="0"/>
        <pt x="195" y="60" on="0"/>
        <pt x="299" y="10" on="0"/>
        <pt x="363" y="10" on="1"/>
        <pt x="426" y="10" on="0"/>
        <pt x="529" y="60" on="0"/>
        <pt x="601" y="149" on="0"/>
        <pt x="641" y="273" on="0"/>
      </contour>
      <contour>
        <pt x="474" y="182" on="1"/>
        <pt x="452" y="166" on="0"/>
        <pt x="400" y="144" on="0"/>
        <pt x="366" y="144" on="1"/>
        <pt x="298" y="144" on="0"/>
        <pt x="215" y="258" on="0"/>
        <pt x="215" y="348" on="1"/>
        <pt x="215" y="438" on="0"/>
        <pt x="300" y="553" on="0"/>
        <pt x="369" y="553" on="1"/>
        <pt x="398" y="553" on="0"/>
        <pt x="447" y="536" on="0"/>
        <pt x="468" y="521" on="1"/>
        <pt x="461" y="480" on="1"/>
        <pt x="437" y="498" on="0"/>
        <pt x="393" y="516" on="0"/>
        <pt x="367" y="516" on="1"/>
        <pt x="316" y="516" on="0"/>
        <pt x="256" y="421" on="0"/>
        <pt x="256" y="349" on="1"/>
        <pt x="256" y="273" on="0"/>
        <pt x="318" y="180" on="0"/>
        <pt x="369" y="180" on="1"/>
        <pt x="398" y="180" on="0"/>
        <pt x="445" y="201" on="0"/>
        <pt x="470" y="222" on="1"/>
      </contour>
    </TTGlyph>
    <TTGlyph name="d" xMin="44" yMin="-10" xMax="393" yMax="715">
      <contour>
        <pt x="91" y="226" on="1"/>
        <pt x="91" y="132" on="0"/>
        <pt x="161" y="32" on="0"/>
        <pt x="216" y="32" on="1"/>
        <pt x="252" y="32" on="0"/>
        <pt x="313" y="75" on="0"/>
        <pt x="347" y="112" on="1"/>
        <pt x="347" y="412" on="1"/>
        <pt x="324" y="423" on="0"/>
        <pt x="272" y="436" on="0"/>
        <pt x="244" y="436" on="1"/>
        <pt x="179" y="436" on="0"/>
        <pt x="91" y="333" on="0"/>
      </contour>
      <contour>
        <pt x="44" y="225" on="1"/>
        <pt x="44" y="288" on="0"/>
        <pt x="76" y="383" on="0"/>
        <pt x="130" y="445" on="0"/>
        <pt x="202" y="476" on="0"/>
        <pt x="242" y="476" on="1"/>
        <pt x="272" y="476" on="0"/>
        <pt x="324" y="465" on="0"/>
        <pt x="347" y="455" on="1"/>
        <pt x="347" y="705" on="1"/>
        <pt x="393" y="715" on="1"/>
        <pt x="393" y="0" on="1"/>
        <pt x="361" y="0" on="1"/>
        <pt x="350" y="66" on="1"/>
        <pt x="322" y="33" on="0"/>
        <pt x="257" y="-10" on="0"/>
        <pt x="214" y="-10" on="1"/>
        <pt x="142" y="-10" on="0"/>
        <pt x="44" y="108" on="0"/>
      </contour>
    </TTGlyph>
    <TTGlyph name="dagger" xMin="46" yMin="-97" xMax="399" yMax="690">
      <contour>
        <pt x="243" y="603" on="1"/>
        <pt x="229" y="496" on="1"/>
        <pt x="216" y="496" on="1"/>
        <pt x="202" y="603" on="1"/>
        <pt x="202" y="690" on="1"/>
        <pt x="243" y="690" on="1"/>
      </contour>
      <contour>
        <pt x="197" y="463" on="1"/>
        <pt x="97" y="448" on="1"/>
        <pt x="46" y="448" on="1"/>
        <pt x="46" y="491" on="1"/>
        <pt x="97" y="491" on="1"/>
        <pt x="197" y="475" on="1"/>
      </contour>
      <contour>
        <pt x="399" y="448" on="1"/>
        <pt x="347" y="448" on="1"/>
        <pt x="248" y="463" on="1"/>
        <pt x="248" y="475" on="1"/>
        <pt x="347" y="491" on="1"/>
        <pt x="399" y="491" on="1"/>
      </contour>
      <contour>
        <pt x="241" y="17" on="1"/>
        <pt x="227" y="-97" on="1"/>
        <pt x="218" y="-97" on="1"/>
        <pt x="204" y="17" on="1"/>
        <pt x="204" y="338" on="1"/>
        <pt x="216" y="442" on="1"/>
        <pt x="229" y="442" on="1"/>
        <pt x="241" y="338" on="1"/>
      </contour>
    </TTGlyph>
    <TTGlyph name="daggerdbl" xMin="51" yMin="-166" xMax="403" yMax="690">
      <contour>
        <pt x="248" y="603" on="1"/>
        <pt x="233" y="496" on="1"/>
        <pt x="221" y="496" on="1"/>
        <pt x="206" y="603" on="1"/>
        <pt x="206" y="690" on="1"/>
        <pt x="248" y="690" on="1"/>
      </contour>
      <contour>
        <pt x="403" y="448" on="1"/>
        <pt x="352" y="448" on="1"/>
        <pt x="252" y="463" on="1"/>
        <pt x="252" y="475" on="1"/>
        <pt x="352" y="491" on="1"/>
        <pt x="403" y="491" on="1"/>
      </contour>
      <contour>
        <pt x="202" y="463" on="1"/>
        <pt x="102" y="448" on="1"/>
        <pt x="51" y="448" on="1"/>
        <pt x="51" y="491" on="1"/>
        <pt x="102" y="491" on="1"/>
        <pt x="202" y="475" on="1"/>
      </contour>
      <contour>
        <pt x="246" y="187" on="1"/>
        <pt x="233" y="83" on="1"/>
        <pt x="221" y="83" on="1"/>
        <pt x="208" y="187" on="1"/>
        <pt x="208" y="338" on="1"/>
        <pt x="221" y="442" on="1"/>
        <pt x="233" y="442" on="1"/>
        <pt x="246" y="338" on="1"/>
      </contour>
      <contour>
        <pt x="252" y="62" on="1"/>
        <pt x="352" y="77" on="1"/>
        <pt x="403" y="77" on="1"/>
        <pt x="403" y="34" on="1"/>
        <pt x="352" y="34" on="1"/>
        <pt x="252" y="50" on="1"/>
      </contour>
      <contour>
        <pt x="51" y="77" on="1"/>
        <pt x="102" y="77" on="1"/>
        <pt x="202" y="62" on="1"/>
        <pt x="202" y="50" on="1"/>
        <pt x="102" y="34" on="1"/>
        <pt x="51" y="34" on="1"/>
      </contour>
      <contour>
        <pt x="206" y="-79" on="1"/>
        <pt x="221" y="29" on="1"/>
        <pt x="233" y="29" on="1"/>
        <pt x="248" y="-79" on="1"/>
        <pt x="248" y="-166" on="1"/>
        <pt x="206" y="-166" on="1"/>
      </contour>
    </TTGlyph>
    <TTGlyph name="dcaron" xMin="44" yMin="-10" xMax="520" yMax="717">
      <component glyphName="d" x="0" y="0" flags="0x4"/>
      <component glyphName="caron.alt" x="284" y="4" flags="0x4"/>
    </TTGlyph>
    <TTGlyph name="dcroat" xMin="44" yMin="-9" xMax="458" yMax="715">
      <contour>
        <pt x="91" y="226" on="1"/>
        <pt x="91" y="132" on="0"/>
        <pt x="161" y="33" on="0"/>
        <pt x="216" y="33" on="1"/>
        <pt x="250" y="33" on="0"/>
        <pt x="313" y="75" on="0"/>
        <pt x="347" y="112" on="1"/>
        <pt x="347" y="412" on="1"/>
        <pt x="324" y="423" on="0"/>
        <pt x="272" y="436" on="0"/>
        <pt x="244" y="436" on="1"/>
        <pt x="179" y="436" on="0"/>
        <pt x="91" y="333" on="0"/>
      </contour>
      <contour>
        <pt x="350" y="66" on="1"/>
        <pt x="321" y="32" on="0"/>
        <pt x="257" y="-9" on="0"/>
        <pt x="214" y="-9" on="1"/>
        <pt x="142" y="-9" on="0"/>
        <pt x="44" y="108" on="0"/>
        <pt x="44" y="225" on="1"/>
        <pt x="44" y="288" on="0"/>
        <pt x="76" y="383" on="0"/>
        <pt x="130" y="445" on="0"/>
        <pt x="202" y="476" on="0"/>
        <pt x="242" y="476" on="1"/>
        <pt x="272" y="476" on="0"/>
        <pt x="324" y="465" on="0"/>
        <pt x="347" y="455" on="1"/>
        <pt x="347" y="585" on="1"/>
        <pt x="210" y="585" on="1"/>
        <pt x="203" y="624" on="1"/>
        <pt x="347" y="624" on="1"/>
        <pt x="347" y="705" on="1"/>
        <pt x="393" y="715" on="1"/>
        <pt x="393" y="624" on="1"/>
        <pt x="458" y="624" on="1"/>
        <pt x="458" y="585" on="1"/>
        <pt x="393" y="585" on="1"/>
        <pt x="393" y="0" on="1"/>
        <pt x="361" y="0" on="1"/>
      </contour>
    </TTGlyph>
    <TTGlyph name="dcroat.flat" xMin="44" yMin="-9" xMax="458" yMax="715">
      <contour>
        <pt x="91" y="226" on="1"/>
        <pt x="91" y="132" on="0"/>
        <pt x="161" y="33" on="0"/>
        <pt x="216" y="33" on="1"/>
        <pt x="250" y="33" on="0"/>
        <pt x="313" y="75" on="0"/>
        <pt x="347" y="112" on="1"/>
        <pt x="347" y="412" on="1"/>
        <pt x="324" y="423" on="0"/>
        <pt x="272" y="436" on="0"/>
        <pt x="244" y="436" on="1"/>
        <pt x="179" y="436" on="0"/>
        <pt x="91" y="333" on="0"/>
      </contour>
      <contour>
        <pt x="350" y="66" on="1"/>
        <pt x="321" y="32" on="0"/>
        <pt x="257" y="-9" on="0"/>
        <pt x="214" y="-9" on="1"/>
        <pt x="142" y="-9" on="0"/>
        <pt x="44" y="108" on="0"/>
        <pt x="44" y="225" on="1"/>
        <pt x="44" y="288" on="0"/>
        <pt x="76" y="383" on="0"/>
        <pt x="130" y="445" on="0"/>
        <pt x="202" y="476" on="0"/>
        <pt x="242" y="476" on="1"/>
        <pt x="272" y="476" on="0"/>
        <pt x="324" y="465" on="0"/>
        <pt x="347" y="455" on="1"/>
        <pt x="347" y="585" on="1"/>
        <pt x="206" y="585" on="1"/>
        <pt x="206" y="624" on="1"/>
        <pt x="347" y="624" on="1"/>
        <pt x="347" y="705" on="1"/>
        <pt x="393" y="715" on="1"/>
        <pt x="393" y="624" on="1"/>
        <pt x="458" y="624" on="1"/>
        <pt x="458" y="585" on="1"/>
        <pt x="393" y="585" on="1"/>
        <pt x="393" y="0" on="1"/>
        <pt x="361" y="0" on="1"/>
      </contour>
    </TTGlyph>
    <TTGlyph name="degree" xMin="56" yMin="422" xMax="323" yMax="688">
      <contour>
        <pt x="323" y="555" on="1"/>
        <pt x="323" y="499" on="0"/>
        <pt x="245" y="422" on="0"/>
        <pt x="189" y="422" on="1"/>
        <pt x="134" y="422" on="0"/>
        <pt x="56" y="499" on="0"/>
        <pt x="56" y="555" on="1"/>
        <pt x="56" y="611" on="0"/>
        <pt x="134" y="688" on="0"/>
        <pt x="189" y="688" on="1"/>
        <pt x="245" y="688" on="0"/>
        <pt x="323" y="611" on="0"/>
      </contour>
      <contour>
        <pt x="283" y="555" on="1"/>
        <pt x="283" y="596" on="0"/>
        <pt x="229" y="655" on="0"/>
        <pt x="189" y="655" on="1"/>
        <pt x="149" y="655" on="0"/>
        <pt x="96" y="596" on="0"/>
        <pt x="96" y="555" on="1"/>
        <pt x="96" y="514" on="0"/>
        <pt x="150" y="455" on="0"/>
        <pt x="190" y="455" on="1"/>
        <pt x="230" y="455" on="0"/>
        <pt x="283" y="514" on="0"/>
      </contour>
    </TTGlyph>
    <TTGlyph name="degree.tab" xMin="86" yMin="381" xMax="399" yMax="691">
      <contour>
        <pt x="399" y="536" on="1"/>
        <pt x="399" y="470" on="0"/>
        <pt x="309" y="381" on="0"/>
        <pt x="243" y="381" on="1"/>
        <pt x="177" y="381" on="0"/>
        <pt x="86" y="470" on="0"/>
        <pt x="86" y="536" on="1"/>
        <pt x="86" y="602" on="0"/>
        <pt x="177" y="691" on="0"/>
        <pt x="243" y="691" on="1"/>
        <pt x="309" y="691" on="0"/>
        <pt x="399" y="602" on="0"/>
      </contour>
      <contour>
        <pt x="128" y="536" on="1"/>
        <pt x="128" y="486" on="0"/>
        <pt x="194" y="416" on="0"/>
        <pt x="243" y="416" on="1"/>
        <pt x="294" y="416" on="0"/>
        <pt x="358" y="485" on="0"/>
        <pt x="358" y="536" on="1"/>
        <pt x="358" y="586" on="0"/>
        <pt x="293" y="656" on="0"/>
        <pt x="242" y="656" on="1"/>
        <pt x="192" y="656" on="0"/>
        <pt x="128" y="586" on="0"/>
      </contour>
    </TTGlyph>
    <TTGlyph name="dieresis" xMin="102" yMin="546" xMax="307" yMax="621">
      <contour>
        <pt x="163" y="546" on="1"/>
        <pt x="102" y="546" on="1"/>
        <pt x="102" y="621" on="1"/>
        <pt x="163" y="621" on="1"/>
      </contour>
      <contour>
        <pt x="307" y="546" on="1"/>
        <pt x="246" y="546" on="1"/>
        <pt x="246" y="621" on="1"/>
        <pt x="307" y="621" on="1"/>
      </contour>
    </TTGlyph>
    <TTGlyph name="divide" xMin="50" yMin="135" xMax="445" yMax="549">
      <contour>
        <pt x="275" y="474" on="1"/>
        <pt x="220" y="474" on="1"/>
        <pt x="220" y="549" on="1"/>
        <pt x="275" y="549" on="1"/>
      </contour>
      <contour>
        <pt x="445" y="322" on="1"/>
        <pt x="50" y="322" on="1"/>
        <pt x="50" y="361" on="1"/>
        <pt x="445" y="361" on="1"/>
      </contour>
      <contour>
        <pt x="275" y="135" on="1"/>
        <pt x="220" y="135" on="1"/>
        <pt x="220" y="210" on="1"/>
        <pt x="275" y="210" on="1"/>
      </contour>
    </TTGlyph>
    <TTGlyph name="divide.tab" xMin="46" yMin="135" xMax="441" yMax="549">
      <contour>
        <pt x="271" y="474" on="1"/>
        <pt x="216" y="474" on="1"/>
        <pt x="216" y="549" on="1"/>
        <pt x="271" y="549" on="1"/>
      </contour>
      <contour>
        <pt x="441" y="322" on="1"/>
        <pt x="46" y="322" on="1"/>
        <pt x="46" y="361" on="1"/>
        <pt x="441" y="361" on="1"/>
      </contour>
      <contour>
        <pt x="271" y="135" on="1"/>
        <pt x="216" y="135" on="1"/>
        <pt x="216" y="210" on="1"/>
        <pt x="271" y="210" on="1"/>
      </contour>
    </TTGlyph>
    <TTGlyph name="dollar" xMin="44" yMin="-126" xMax="426" yMax="763">
      <contour>
        <pt x="106" y="524" on="1"/>
        <pt x="106" y="474" on="0"/>
        <pt x="166" y="415" on="0"/>
        <pt x="229" y="385" on="1"/>
        <pt x="270" y="646" on="1"/>
        <pt x="263" y="647" on="0"/>
        <pt x="250" y="647" on="0"/>
        <pt x="244" y="647" on="1"/>
        <pt x="177" y="647" on="0"/>
        <pt x="106" y="577" on="0"/>
      </contour>
      <contour>
        <pt x="231" y="36" on="1"/>
        <pt x="306" y="36" on="0"/>
        <pt x="383" y="118" on="0"/>
        <pt x="383" y="175" on="1"/>
        <pt x="383" y="223" on="0"/>
        <pt x="331" y="294" on="0"/>
        <pt x="256" y="328" on="1"/>
        <pt x="209" y="37" on="1"/>
        <pt x="215" y="36" on="0"/>
        <pt x="226" y="36" on="0"/>
      </contour>
      <contour>
        <pt x="227" y="-2" on="1"/>
        <pt x="221" y="-2" on="0"/>
        <pt x="209" y="-2" on="0"/>
        <pt x="203" y="-1" on="1"/>
        <pt x="184" y="-126" on="1"/>
        <pt x="150" y="-117" on="1"/>
        <pt x="169" y="3" on="1"/>
        <pt x="135" y="8" on="0"/>
        <pt x="72" y="29" on="0"/>
        <pt x="44" y="42" on="1"/>
        <pt x="51" y="84" on="1"/>
        <pt x="80" y="69" on="0"/>
        <pt x="143" y="47" on="0"/>
        <pt x="175" y="41" on="1"/>
        <pt x="222" y="343" on="1"/>
        <pt x="149" y="376" on="0"/>
        <pt x="63" y="454" on="0"/>
        <pt x="63" y="521" on="1"/>
        <pt x="63" y="596" on="0"/>
        <pt x="165" y="685" on="0"/>
        <pt x="247" y="685" on="1"/>
        <pt x="254" y="685" on="0"/>
        <pt x="268" y="685" on="0"/>
        <pt x="275" y="684" on="1"/>
        <pt x="287" y="763" on="1"/>
        <pt x="323" y="754" on="1"/>
        <pt x="311" y="679" on="1"/>
        <pt x="337" y="675" on="0"/>
        <pt x="386" y="659" on="0"/>
        <pt x="408" y="649" on="1"/>
        <pt x="401" y="606" on="1"/>
        <pt x="379" y="616" on="0"/>
        <pt x="330" y="635" on="0"/>
        <pt x="305" y="640" on="1"/>
        <pt x="262" y="370" on="1"/>
        <pt x="346" y="332" on="0"/>
        <pt x="426" y="245" on="0"/>
        <pt x="426" y="178" on="1"/>
        <pt x="426" y="100" on="0"/>
        <pt x="318" y="-2" on="0"/>
      </contour>
    </TTGlyph>
    <TTGlyph name="dollar.tab" xMin="44" yMin="-122" xMax="433" yMax="760">
      <contour>
        <pt x="108" y="521" on="1"/>
        <pt x="108" y="477" on="0"/>
        <pt x="159" y="416" on="0"/>
        <pt x="231" y="384" on="1"/>
        <pt x="269" y="646" on="1"/>
        <pt x="263" y="647" on="0"/>
        <pt x="251" y="647" on="0"/>
        <pt x="245" y="647" on="1"/>
        <pt x="243" y="647" on="1"/>
        <pt x="180" y="647" on="0"/>
        <pt x="108" y="573" on="0"/>
      </contour>
      <contour>
        <pt x="235" y="36" on="1"/>
        <pt x="237" y="36" on="1"/>
        <pt x="306" y="36" on="0"/>
        <pt x="389" y="115" on="0"/>
        <pt x="389" y="176" on="1"/>
        <pt x="389" y="225" on="0"/>
        <pt x="331" y="295" on="0"/>
        <pt x="258" y="327" on="1"/>
        <pt x="216" y="37" on="1"/>
        <pt x="220" y="36" on="0"/>
        <pt x="230" y="36" on="0"/>
      </contour>
      <contour>
        <pt x="234" y="-2" on="1"/>
        <pt x="229" y="-2" on="0"/>
        <pt x="217" y="-2" on="0"/>
        <pt x="212" y="-1" on="1"/>
        <pt x="194" y="-122" on="1"/>
        <pt x="156" y="-114" on="1"/>
        <pt x="173" y="3" on="1"/>
        <pt x="137" y="9" on="0"/>
        <pt x="73" y="33" on="0"/>
        <pt x="44" y="49" on="1"/>
        <pt x="50" y="90" on="1"/>
        <pt x="81" y="71" on="0"/>
        <pt x="146" y="46" on="0"/>
        <pt x="181" y="40" on="1"/>
        <pt x="225" y="342" on="1"/>
        <pt x="144" y="378" on="0"/>
        <pt x="64" y="455" on="0"/>
        <pt x="64" y="520" on="1"/>
        <pt x="64" y="556" on="0"/>
        <pt x="92" y="617" on="0"/>
        <pt x="141" y="661" on="0"/>
        <pt x="208" y="685" on="0"/>
        <pt x="246" y="685" on="1"/>
        <pt x="253" y="685" on="0"/>
        <pt x="267" y="685" on="0"/>
        <pt x="274" y="684" on="1"/>
        <pt x="284" y="760" on="1"/>
        <pt x="322" y="751" on="1"/>
        <pt x="311" y="680" on="1"/>
        <pt x="339" y="676" on="0"/>
        <pt x="391" y="657" on="0"/>
        <pt x="419" y="643" on="1"/>
        <pt x="412" y="601" on="1"/>
        <pt x="384" y="616" on="0"/>
        <pt x="331" y="636" on="0"/>
        <pt x="304" y="641" on="1"/>
        <pt x="264" y="369" on="1"/>
        <pt x="355" y="330" on="0"/>
        <pt x="433" y="245" on="0"/>
        <pt x="433" y="179" on="1"/>
        <pt x="433" y="139" on="0"/>
        <pt x="402" y="72" on="0"/>
        <pt x="349" y="24" on="0"/>
        <pt x="276" y="-2" on="0"/>
      </contour>
    </TTGlyph>
    <TTGlyph name="dotaccent" xMin="172" yMin="543" xMax="237" yMax="621">
      <contour>
        <pt x="237" y="543" on="1"/>
        <pt x="172" y="543" on="1"/>
        <pt x="172" y="621" on="1"/>
        <pt x="237" y="621" on="1"/>
      </contour>
    </TTGlyph>
    <TTGlyph name="dotlessi" xMin="77" yMin="0" xMax="123" yMax="470">
      <contour>
        <pt x="123" y="0" on="1"/>
        <pt x="77" y="0" on="1"/>
        <pt x="77" y="470" on="1"/>
        <pt x="123" y="470" on="1"/>
      </contour>
    </TTGlyph>
    <TTGlyph name="e" xMin="42" yMin="-9" xMax="386" yMax="480">
      <contour>
        <pt x="222" y="441" on="1"/>
        <pt x="166" y="441" on="0"/>
        <pt x="96" y="345" on="0"/>
        <pt x="89" y="269" on="1"/>
        <pt x="339" y="269" on="1"/>
        <pt x="336" y="344" on="0"/>
        <pt x="274" y="441" on="0"/>
      </contour>
      <contour>
        <pt x="384" y="49" on="1"/>
        <pt x="353" y="24" on="0"/>
        <pt x="275" y="-9" on="0"/>
        <pt x="229" y="-9" on="1"/>
        <pt x="145" y="-9" on="0"/>
        <pt x="42" y="122" on="0"/>
        <pt x="42" y="235" on="1"/>
        <pt x="42" y="343" on="0"/>
        <pt x="144" y="480" on="0"/>
        <pt x="222" y="480" on="1"/>
        <pt x="263" y="480" on="0"/>
        <pt x="324" y="444" on="0"/>
        <pt x="365" y="382" on="0"/>
        <pt x="386" y="296" on="0"/>
        <pt x="386" y="247" on="1"/>
        <pt x="386" y="231" on="1"/>
        <pt x="88" y="231" on="1"/>
        <pt x="89" y="140" on="0"/>
        <pt x="165" y="32" on="0"/>
        <pt x="233" y="32" on="1"/>
        <pt x="270" y="32" on="0"/>
        <pt x="343" y="64" on="0"/>
        <pt x="377" y="92" on="1"/>
      </contour>
    </TTGlyph>
    <TTGlyph name="eacute" xMin="42" yMin="-9" xMax="386" yMax="676">
      <component glyphName="e" x="0" y="0" flags="0x204"/>
      <component glyphName="acute" x="68" y="0" flags="0x4"/>
    </TTGlyph>
    <TTGlyph name="ebreve" xMin="42" yMin="-9" xMax="386" yMax="652">
      <component glyphName="e" x="0" y="0" flags="0x204"/>
      <component glyphName="breve" x="17" y="0" flags="0x4"/>
    </TTGlyph>
    <TTGlyph name="ecaron" xMin="42" yMin="-9" xMax="386" yMax="675">
      <component glyphName="e" x="0" y="0" flags="0x204"/>
      <component glyphName="caron" x="16" y="0" flags="0x4"/>
    </TTGlyph>
    <TTGlyph name="ecircumflex" xMin="42" yMin="-9" xMax="386" yMax="675">
      <component glyphName="e" x="0" y="0" flags="0x204"/>
      <component glyphName="circumflex" x="16" y="0" flags="0x4"/>
    </TTGlyph>
    <TTGlyph name="edieresis" xMin="42" yMin="-9" xMax="386" yMax="621">
      <component glyphName="e" x="0" y="0" flags="0x204"/>
      <component glyphName="dieresis" x="16" y="0" flags="0x4"/>
    </TTGlyph>
    <TTGlyph name="edotaccent" xMin="42" yMin="-9" xMax="386" yMax="621">
      <component glyphName="e" x="0" y="0" flags="0x204"/>
      <component glyphName="dotaccent" x="17" y="0" flags="0x4"/>
    </TTGlyph>
    <TTGlyph name="egrave" xMin="42" yMin="-9" xMax="386" yMax="676">
      <component glyphName="e" x="0" y="0" flags="0x204"/>
      <component glyphName="grave" x="-38" y="0" flags="0x4"/>
    </TTGlyph>
    <TTGlyph name="eight" xMin="53" yMin="-11" xMax="449" yMax="694">
      <contour>
        <pt x="251" y="-11" on="1"/>
        <pt x="205" y="-11" on="0"/>
        <pt x="132" y="18" on="0"/>
        <pt x="81" y="66" on="0"/>
        <pt x="53" y="132" on="0"/>
        <pt x="53" y="169" on="1"/>
        <pt x="53" y="234" on="0"/>
        <pt x="127" y="331" on="0"/>
        <pt x="190" y="365" on="1"/>
        <pt x="139" y="391" on="0"/>
        <pt x="74" y="472" on="0"/>
        <pt x="74" y="529" on="1"/>
        <pt x="74" y="601" on="0"/>
        <pt x="178" y="694" on="0"/>
        <pt x="256" y="694" on="1"/>
        <pt x="332" y="694" on="0"/>
        <pt x="432" y="604" on="0"/>
        <pt x="432" y="534" on="1"/>
        <pt x="432" y="472" on="0"/>
        <pt x="362" y="385" on="0"/>
        <pt x="315" y="355" on="1"/>
        <pt x="379" y="325" on="0"/>
        <pt x="449" y="237" on="0"/>
        <pt x="449" y="172" on="1"/>
        <pt x="449" y="94" on="0"/>
        <pt x="335" y="-11" on="0"/>
      </contour>
      <contour>
        <pt x="122" y="531" on="1"/>
        <pt x="122" y="480" on="0"/>
        <pt x="187" y="408" on="0"/>
        <pt x="274" y="372" on="1"/>
        <pt x="324" y="401" on="0"/>
        <pt x="384" y="481" on="0"/>
        <pt x="384" y="532" on="1"/>
        <pt x="384" y="584" on="0"/>
        <pt x="311" y="654" on="0"/>
        <pt x="254" y="654" on="1"/>
        <pt x="192" y="654" on="0"/>
        <pt x="122" y="578" on="0"/>
      </contour>
      <contour>
        <pt x="253" y="30" on="1"/>
        <pt x="315" y="30" on="0"/>
        <pt x="401" y="111" on="0"/>
        <pt x="401" y="171" on="1"/>
        <pt x="401" y="231" on="0"/>
        <pt x="328" y="307" on="0"/>
        <pt x="229" y="347" on="1"/>
        <pt x="171" y="318" on="0"/>
        <pt x="101" y="229" on="0"/>
        <pt x="101" y="173" on="1"/>
        <pt x="101" y="110" on="0"/>
        <pt x="186" y="30" on="0"/>
      </contour>
    </TTGlyph>
    <TTGlyph name="eight.den" xMin="40" yMin="-10" xMax="283" yMax="359">
      <component glyphName="eight.num" x="0" y="-334" flags="0x4"/>
    </TTGlyph>
    <TTGlyph name="eight.inf" xMin="40" yMin="-160" xMax="283" yMax="209">
      <component glyphName="eight.num" x="0" y="-484" flags="0x4"/>
    </TTGlyph>
    <TTGlyph name="eight.num" xMin="40" yMin="324" xMax="283" yMax="693">
      <contour>
        <pt x="162" y="324" on="1"/>
        <pt x="104" y="324" on="0"/>
        <pt x="40" y="382" on="0"/>
        <pt x="40" y="420" on="1"/>
        <pt x="40" y="451" on="0"/>
        <pt x="78" y="502" on="0"/>
        <pt x="114" y="521" on="1"/>
        <pt x="83" y="537" on="0"/>
        <pt x="53" y="578" on="0"/>
        <pt x="53" y="605" on="1"/>
        <pt x="53" y="642" on="0"/>
        <pt x="115" y="693" on="0"/>
        <pt x="163" y="693" on="1"/>
        <pt x="212" y="693" on="0"/>
        <pt x="273" y="644" on="0"/>
        <pt x="273" y="606" on="1"/>
        <pt x="273" y="576" on="0"/>
        <pt x="234" y="532" on="0"/>
        <pt x="206" y="516" on="1"/>
        <pt x="246" y="499" on="0"/>
        <pt x="283" y="452" on="0"/>
        <pt x="283" y="421" on="1"/>
        <pt x="283" y="379" on="0"/>
        <pt x="213" y="324" on="0"/>
      </contour>
      <contour>
        <pt x="91" y="606" on="1"/>
        <pt x="91" y="581" on="0"/>
        <pt x="128" y="547" on="0"/>
        <pt x="179" y="527" on="1"/>
        <pt x="204" y="541" on="0"/>
        <pt x="235" y="579" on="0"/>
        <pt x="235" y="604" on="1"/>
        <pt x="235" y="630" on="0"/>
        <pt x="193" y="663" on="0"/>
        <pt x="163" y="663" on="1"/>
        <pt x="129" y="663" on="0"/>
        <pt x="91" y="628" on="0"/>
      </contour>
      <contour>
        <pt x="163" y="356" on="1"/>
        <pt x="196" y="356" on="0"/>
        <pt x="245" y="390" on="0"/>
        <pt x="245" y="421" on="1"/>
        <pt x="245" y="452" on="0"/>
        <pt x="197" y="488" on="0"/>
        <pt x="145" y="509" on="1"/>
        <pt x="112" y="493" on="0"/>
        <pt x="78" y="449" on="0"/>
        <pt x="78" y="423" on="1"/>
        <pt x="78" y="392" on="0"/>
        <pt x="126" y="356" on="0"/>
      </contour>
    </TTGlyph>
    <TTGlyph name="eight.sup" xMin="40" yMin="417" xMax="283" yMax="786">
      <component glyphName="eight.num" x="0" y="93" flags="0x4"/>
    </TTGlyph>
    <TTGlyph name="eight.tab" xMin="47" yMin="-10" xMax="437" yMax="695">
      <contour>
        <pt x="243" y="-10" on="1"/>
        <pt x="197" y="-10" on="0"/>
        <pt x="124" y="19" on="0"/>
        <pt x="74" y="69" on="0"/>
        <pt x="47" y="135" on="0"/>
        <pt x="47" y="172" on="1"/>
        <pt x="47" y="238" on="0"/>
        <pt x="121" y="335" on="0"/>
        <pt x="178" y="369" on="1"/>
        <pt x="124" y="397" on="0"/>
        <pt x="68" y="478" on="0"/>
        <pt x="68" y="530" on="1"/>
        <pt x="68" y="602" on="0"/>
        <pt x="170" y="695" on="0"/>
        <pt x="246" y="695" on="1"/>
        <pt x="321" y="695" on="0"/>
        <pt x="420" y="606" on="0"/>
        <pt x="420" y="534" on="1"/>
        <pt x="420" y="471" on="0"/>
        <pt x="353" y="384" on="0"/>
        <pt x="308" y="354" on="1"/>
        <pt x="371" y="323" on="0"/>
        <pt x="437" y="236" on="0"/>
        <pt x="437" y="172" on="1"/>
        <pt x="437" y="95" on="0"/>
        <pt x="326" y="-10" on="0"/>
      </contour>
      <contour>
        <pt x="115" y="533" on="1"/>
        <pt x="115" y="482" on="0"/>
        <pt x="179" y="412" on="0"/>
        <pt x="269" y="372" on="1"/>
        <pt x="315" y="401" on="0"/>
        <pt x="372" y="480" on="0"/>
        <pt x="372" y="533" on="1"/>
        <pt x="372" y="584" on="0"/>
        <pt x="301" y="655" on="0"/>
        <pt x="244" y="655" on="1"/>
        <pt x="184" y="655" on="0"/>
        <pt x="115" y="580" on="0"/>
      </contour>
      <contour>
        <pt x="244" y="31" on="1"/>
        <pt x="307" y="31" on="0"/>
        <pt x="389" y="112" on="0"/>
        <pt x="389" y="172" on="1"/>
        <pt x="389" y="232" on="0"/>
        <pt x="317" y="307" on="0"/>
        <pt x="219" y="350" on="1"/>
        <pt x="165" y="321" on="0"/>
        <pt x="95" y="233" on="0"/>
        <pt x="95" y="175" on="1"/>
        <pt x="95" y="112" on="0"/>
        <pt x="178" y="31" on="0"/>
      </contour>
    </TTGlyph>
    <TTGlyph name="ellipsis" xMin="61" yMin="0" xMax="486" yMax="80">
      <contour>
        <pt x="486" y="0" on="1"/>
        <pt x="428" y="0" on="1"/>
        <pt x="428" y="80" on="1"/>
        <pt x="486" y="80" on="1"/>
      </contour>
      <contour>
        <pt x="302" y="0" on="1"/>
        <pt x="244" y="0" on="1"/>
        <pt x="244" y="80" on="1"/>
        <pt x="302" y="80" on="1"/>
      </contour>
      <contour>
        <pt x="119" y="0" on="1"/>
        <pt x="61" y="0" on="1"/>
        <pt x="61" y="80" on="1"/>
        <pt x="119" y="80" on="1"/>
      </contour>
    </TTGlyph>
    <TTGlyph name="emacron" xMin="42" yMin="-9" xMax="386" yMax="609">
      <component glyphName="e" x="0" y="0" flags="0x204"/>
      <component glyphName="macron" x="17" y="0" flags="0x4"/>
    </TTGlyph>
    <TTGlyph name="emdash" xMin="50" yMin="261" xMax="761" yMax="304">
      <contour>
        <pt x="761" y="261" on="1"/>
        <pt x="50" y="261" on="1"/>
        <pt x="50" y="304" on="1"/>
        <pt x="761" y="304" on="1"/>
      </contour>
    </TTGlyph>
    <TTGlyph name="endash" xMin="50" yMin="261" xMax="353" yMax="304">
      <contour>
        <pt x="353" y="261" on="1"/>
        <pt x="50" y="261" on="1"/>
        <pt x="50" y="304" on="1"/>
        <pt x="353" y="304" on="1"/>
      </contour>
    </TTGlyph>
    <TTGlyph name="eogonek" xMin="42" yMin="-162" xMax="386" yMax="480">
      <contour>
        <pt x="321" y="-162" on="1"/>
        <pt x="288" y="-162" on="0"/>
        <pt x="252" y="-130" on="0"/>
        <pt x="252" y="-102" on="1"/>
        <pt x="252" y="-83" on="0"/>
        <pt x="275" y="-38" on="0"/>
        <pt x="306" y="5" on="1"/>
        <pt x="288" y="-2" on="0"/>
        <pt x="249" y="-9" on="0"/>
        <pt x="229" y="-9" on="1"/>
        <pt x="145" y="-9" on="0"/>
        <pt x="42" y="122" on="0"/>
        <pt x="42" y="235" on="1"/>
        <pt x="42" y="343" on="0"/>
        <pt x="144" y="480" on="0"/>
        <pt x="222" y="480" on="1"/>
        <pt x="263" y="480" on="0"/>
        <pt x="324" y="444" on="0"/>
        <pt x="365" y="382" on="0"/>
        <pt x="386" y="296" on="0"/>
        <pt x="386" y="247" on="1"/>
        <pt x="386" y="231" on="1"/>
        <pt x="88" y="231" on="1"/>
        <pt x="89" y="141" on="0"/>
        <pt x="165" y="32" on="0"/>
        <pt x="233" y="32" on="1"/>
        <pt x="270" y="32" on="0"/>
        <pt x="343" y="64" on="0"/>
        <pt x="377" y="92" on="1"/>
        <pt x="383" y="56" on="1"/>
        <pt x="342" y="0" on="1"/>
        <pt x="317" y="-33" on="0"/>
        <pt x="294" y="-76" on="0"/>
        <pt x="294" y="-95" on="1"/>
        <pt x="294" y="-111" on="0"/>
        <pt x="313" y="-128" on="0"/>
        <pt x="330" y="-128" on="1"/>
        <pt x="340" y="-128" on="0"/>
        <pt x="362" y="-123" on="0"/>
        <pt x="372" y="-120" on="1"/>
        <pt x="374" y="-151" on="1"/>
        <pt x="362" y="-156" on="0"/>
        <pt x="334" y="-162" on="0"/>
      </contour>
      <contour>
        <pt x="90" y="269" on="1"/>
        <pt x="339" y="269" on="1"/>
        <pt x="336" y="344" on="0"/>
        <pt x="274" y="441" on="0"/>
        <pt x="222" y="441" on="1"/>
        <pt x="164" y="441" on="0"/>
        <pt x="96" y="342" on="0"/>
      </contour>
    </TTGlyph>
    <TTGlyph name="equal" xMin="64" yMin="223" xMax="454" yMax="461">
      <contour>
        <pt x="454" y="419" on="1"/>
        <pt x="64" y="419" on="1"/>
        <pt x="64" y="461" on="1"/>
        <pt x="454" y="461" on="1"/>
      </contour>
      <contour>
        <pt x="454" y="223" on="1"/>
        <pt x="64" y="223" on="1"/>
        <pt x="64" y="265" on="1"/>
        <pt x="454" y="265" on="1"/>
      </contour>
    </TTGlyph>
    <TTGlyph name="equal.tab" xMin="48" yMin="223" xMax="438" yMax="461">
      <contour>
        <pt x="438" y="419" on="1"/>
        <pt x="48" y="419" on="1"/>
        <pt x="48" y="461" on="1"/>
        <pt x="438" y="461" on="1"/>
      </contour>
      <contour>
        <pt x="438" y="223" on="1"/>
        <pt x="48" y="223" on="1"/>
        <pt x="48" y="265" on="1"/>
        <pt x="438" y="265" on="1"/>
      </contour>
    </TTGlyph>
    <TTGlyph name="eth" xMin="43" yMin="-9" xMax="411" yMax="719">
      <contour>
        <pt x="218" y="-9" on="1"/>
        <pt x="184" y="-9" on="0"/>
        <pt x="121" y="19" on="0"/>
        <pt x="72" y="76" on="0"/>
        <pt x="43" y="162" on="0"/>
        <pt x="43" y="219" on="1"/>
        <pt x="43" y="269" on="0"/>
        <pt x="72" y="355" on="0"/>
        <pt x="122" y="416" on="0"/>
        <pt x="188" y="450" on="0"/>
        <pt x="225" y="450" on="1"/>
        <pt x="268" y="450" on="0"/>
        <pt x="332" y="420" on="0"/>
        <pt x="359" y="397" on="1"/>
        <pt x="349" y="465" on="0"/>
        <pt x="297" y="568" on="0"/>
        <pt x="256" y="605" on="1"/>
        <pt x="207" y="530" on="1"/>
        <pt x="163" y="530" on="1"/>
        <pt x="227" y="627" on="1"/>
        <pt x="205" y="642" on="0"/>
        <pt x="154" y="666" on="0"/>
        <pt x="126" y="675" on="1"/>
        <pt x="134" y="715" on="1"/>
        <pt x="167" y="705" on="0"/>
        <pt x="224" y="678" on="0"/>
        <pt x="249" y="661" on="1"/>
        <pt x="287" y="719" on="1"/>
        <pt x="325" y="709" on="1"/>
        <pt x="278" y="639" on="1"/>
        <pt x="344" y="584" on="0"/>
        <pt x="411" y="415" on="0"/>
        <pt x="411" y="302" on="1"/>
        <pt x="411" y="209" on="0"/>
        <pt x="369" y="76" on="0"/>
        <pt x="331" y="39" on="1"/>
        <pt x="307" y="15" on="0"/>
        <pt x="250" y="-9" on="0"/>
      </contour>
      <contour>
        <pt x="221" y="31" on="1"/>
        <pt x="283" y="31" on="0"/>
        <pt x="366" y="169" on="0"/>
        <pt x="366" y="300" on="1"/>
        <pt x="366" y="312" on="0"/>
        <pt x="366" y="325" on="0"/>
        <pt x="365" y="341" on="1"/>
        <pt x="334" y="375" on="0"/>
        <pt x="265" y="410" on="0"/>
        <pt x="227" y="410" on="1"/>
        <pt x="170" y="410" on="0"/>
        <pt x="90" y="304" on="0"/>
        <pt x="90" y="220" on="1"/>
        <pt x="90" y="126" on="0"/>
        <pt x="167" y="31" on="0"/>
      </contour>
    </TTGlyph>
    <TTGlyph name="exclam" xMin="86" yMin="0" xMax="144" yMax="690">
      <contour>
        <pt x="143" y="690" on="1"/>
        <pt x="129" y="185" on="1"/>
        <pt x="100" y="179" on="1"/>
        <pt x="87" y="690" on="1"/>
      </contour>
      <contour>
        <pt x="144" y="0" on="1"/>
        <pt x="86" y="0" on="1"/>
        <pt x="86" y="81" on="1"/>
        <pt x="144" y="81" on="1"/>
      </contour>
    </TTGlyph>
    <TTGlyph name="exclam.flat" xMin="86" yMin="0" xMax="144" yMax="690">
      <contour>
        <pt x="143" y="690" on="1"/>
        <pt x="129" y="182" on="1"/>
        <pt x="100" y="182" on="1"/>
        <pt x="87" y="690" on="1"/>
      </contour>
      <contour>
        <pt x="144" y="0" on="1"/>
        <pt x="86" y="0" on="1"/>
        <pt x="86" y="81" on="1"/>
        <pt x="144" y="81" on="1"/>
      </contour>
    </TTGlyph>
    <TTGlyph name="exclamdown" xMin="86" yMin="0" xMax="144" yMax="690">
      <contour>
        <pt x="144" y="609" on="1"/>
        <pt x="86" y="609" on="1"/>
        <pt x="86" y="690" on="1"/>
        <pt x="144" y="690" on="1"/>
      </contour>
      <contour>
        <pt x="143" y="0" on="1"/>
        <pt x="87" y="0" on="1"/>
        <pt x="100" y="505" on="1"/>
        <pt x="129" y="512" on="1"/>
      </contour>
    </TTGlyph>
    <TTGlyph name="exclamdown.flat" xMin="86" yMin="0" xMax="144" yMax="690">
      <contour>
        <pt x="86" y="690" on="1"/>
        <pt x="144" y="690" on="1"/>
        <pt x="144" y="609" on="1"/>
        <pt x="86" y="609" on="1"/>
      </contour>
      <contour>
        <pt x="87" y="0" on="1"/>
        <pt x="100" y="508" on="1"/>
        <pt x="129" y="508" on="1"/>
        <pt x="143" y="0" on="1"/>
      </contour>
    </TTGlyph>
    <TTGlyph name="f" xMin="26" yMin="0" xMax="243" yMax="712">
      <contour>
        <pt x="243" y="667" on="1"/>
        <pt x="236" y="668" on="0"/>
        <pt x="217" y="670" on="0"/>
        <pt x="204" y="670" on="1"/>
        <pt x="173" y="670" on="0"/>
        <pt x="140" y="635" on="0"/>
        <pt x="140" y="597" on="1"/>
        <pt x="140" y="470" on="1"/>
        <pt x="229" y="470" on="1"/>
        <pt x="236" y="431" on="1"/>
        <pt x="140" y="431" on="1"/>
        <pt x="140" y="0" on="1"/>
        <pt x="94" y="0" on="1"/>
        <pt x="94" y="431" on="1"/>
        <pt x="26" y="431" on="1"/>
        <pt x="26" y="470" on="1"/>
        <pt x="94" y="470" on="1"/>
        <pt x="94" y="599" on="1"/>
        <pt x="94" y="654" on="0"/>
        <pt x="152" y="712" on="0"/>
        <pt x="203" y="712" on="1"/>
        <pt x="214" y="712" on="0"/>
        <pt x="229" y="710" on="0"/>
        <pt x="236" y="709" on="1"/>
      </contour>
    </TTGlyph>
    <TTGlyph name="f.flat" xMin="26" yMin="0" xMax="243" yMax="712">
      <contour>
        <pt x="243" y="667" on="1"/>
        <pt x="236" y="668" on="0"/>
        <pt x="217" y="670" on="0"/>
        <pt x="204" y="670" on="1"/>
        <pt x="173" y="670" on="0"/>
        <pt x="140" y="635" on="0"/>
        <pt x="140" y="597" on="1"/>
        <pt x="140" y="470" on="1"/>
        <pt x="233" y="470" on="1"/>
        <pt x="233" y="431" on="1"/>
        <pt x="140" y="431" on="1"/>
        <pt x="140" y="0" on="1"/>
        <pt x="94" y="0" on="1"/>
        <pt x="94" y="431" on="1"/>
        <pt x="26" y="431" on="1"/>
        <pt x="26" y="470" on="1"/>
        <pt x="94" y="470" on="1"/>
        <pt x="94" y="599" on="1"/>
        <pt x="94" y="654" on="0"/>
        <pt x="152" y="712" on="0"/>
        <pt x="203" y="712" on="1"/>
        <pt x="214" y="712" on="0"/>
        <pt x="229" y="710" on="0"/>
        <pt x="236" y="709" on="1"/>
      </contour>
    </TTGlyph>
    <TTGlyph name="f_f" xMin="26" yMin="0" xMax="498" yMax="712">
      <component glyphName="f" x="0" y="0" flags="0x4"/>
      <component glyphName="f" x="255" y="0" flags="0x4"/>
    </TTGlyph>
    <TTGlyph name="f_f.flat" xMin="26" yMin="0" xMax="498" yMax="712">
      <component glyphName="f.flat" x="0" y="0" flags="0x4"/>
      <component glyphName="f.flat" x="255" y="0" flags="0x4"/>
    </TTGlyph>
    <TTGlyph name="f_f_i" xMin="26" yMin="0" xMax="647" yMax="712">
      <component glyphName="f" x="0" y="0" flags="0x4"/>
      <component glyphName="f" x="255" y="0" flags="0x4"/>
      <component glyphName="i" x="509" y="0" flags="0x4"/>
    </TTGlyph>
    <TTGlyph name="f_f_i.flat" xMin="26" yMin="0" xMax="647" yMax="712">
      <component glyphName="f.flat" x="0" y="0" flags="0x4"/>
      <component glyphName="f.flat" x="255" y="0" flags="0x4"/>
      <component glyphName="i" x="509" y="0" flags="0x4"/>
    </TTGlyph>
    <TTGlyph name="f_f_l" xMin="26" yMin="0" xMax="632" yMax="715">
      <component glyphName="f" x="0" y="0" flags="0x4"/>
      <component glyphName="f" x="255" y="0" flags="0x4"/>
      <component glyphName="l" x="509" y="0" flags="0x4"/>
    </TTGlyph>
    <TTGlyph name="f_f_l.flat" xMin="26" yMin="0" xMax="632" yMax="715">
      <component glyphName="f.flat" x="0" y="0" flags="0x4"/>
      <component glyphName="f.flat" x="255" y="0" flags="0x4"/>
      <component glyphName="l" x="509" y="0" flags="0x4"/>
    </TTGlyph>
    <TTGlyph name="fi" xMin="26" yMin="0" xMax="393" yMax="712">
      <component glyphName="f" x="0" y="0" flags="0x4"/>
      <component glyphName="i" x="255" y="0" flags="0x4"/>
    </TTGlyph>
    <TTGlyph name="fi.flat" xMin="26" yMin="0" xMax="393" yMax="712">
      <component glyphName="f.flat" x="0" y="0" flags="0x4"/>
      <component glyphName="i" x="255" y="0" flags="0x4"/>
    </TTGlyph>
    <TTGlyph name="five" xMin="47" yMin="-11" xMax="419" yMax="683">
      <contour>
        <pt x="419" y="206" on="1"/>
        <pt x="419" y="155" on="0"/>
        <pt x="384" y="74" on="0"/>
        <pt x="326" y="18" on="0"/>
        <pt x="249" y="-11" on="0"/>
        <pt x="206" y="-11" on="1"/>
        <pt x="157" y="-11" on="0"/>
        <pt x="78" y="15" on="0"/>
        <pt x="47" y="34" on="1"/>
        <pt x="55" y="81" on="1"/>
        <pt x="91" y="58" on="0"/>
        <pt x="163" y="31" on="0"/>
        <pt x="208" y="31" on="1"/>
        <pt x="240" y="31" on="0"/>
        <pt x="299" y="53" on="0"/>
        <pt x="344" y="97" on="0"/>
        <pt x="371" y="162" on="0"/>
        <pt x="371" y="205" on="1"/>
        <pt x="371" y="279" on="0"/>
        <pt x="291" y="363" on="0"/>
        <pt x="222" y="363" on="1"/>
        <pt x="186" y="363" on="0"/>
        <pt x="131" y="348" on="0"/>
        <pt x="106" y="338" on="1"/>
        <pt x="76" y="345" on="1"/>
        <pt x="99" y="683" on="1"/>
        <pt x="390" y="683" on="1"/>
        <pt x="397" y="642" on="1"/>
        <pt x="139" y="642" on="1"/>
        <pt x="121" y="385" on="1"/>
        <pt x="145" y="394" on="0"/>
        <pt x="194" y="405" on="0"/>
        <pt x="227" y="405" on="1"/>
        <pt x="311" y="405" on="0"/>
        <pt x="419" y="300" on="0"/>
      </contour>
    </TTGlyph>
    <TTGlyph name="five.den" xMin="46" yMin="-8" xMax="281" yMax="349">
      <component glyphName="five.num" x="0" y="-334" flags="0x4"/>
    </TTGlyph>
    <TTGlyph name="five.den_flat" xMin="46" yMin="-8" xMax="281" yMax="349">
      <component glyphName="five.num_flat" x="0" y="-334" flags="0x4"/>
    </TTGlyph>
    <TTGlyph name="five.flat" xMin="47" yMin="-11" xMax="419" yMax="683">
      <contour>
        <pt x="419" y="206" on="1"/>
        <pt x="419" y="155" on="0"/>
        <pt x="384" y="74" on="0"/>
        <pt x="326" y="18" on="0"/>
        <pt x="249" y="-11" on="0"/>
        <pt x="206" y="-11" on="1"/>
        <pt x="157" y="-11" on="0"/>
        <pt x="78" y="15" on="0"/>
        <pt x="47" y="34" on="1"/>
        <pt x="55" y="81" on="1"/>
        <pt x="91" y="58" on="0"/>
        <pt x="163" y="31" on="0"/>
        <pt x="208" y="31" on="1"/>
        <pt x="240" y="31" on="0"/>
        <pt x="299" y="53" on="0"/>
        <pt x="344" y="97" on="0"/>
        <pt x="371" y="162" on="0"/>
        <pt x="371" y="205" on="1"/>
        <pt x="371" y="279" on="0"/>
        <pt x="291" y="363" on="0"/>
        <pt x="222" y="363" on="1"/>
        <pt x="186" y="363" on="0"/>
        <pt x="131" y="348" on="0"/>
        <pt x="106" y="338" on="1"/>
        <pt x="76" y="345" on="1"/>
        <pt x="99" y="683" on="1"/>
        <pt x="394" y="683" on="1"/>
        <pt x="394" y="642" on="1"/>
        <pt x="139" y="642" on="1"/>
        <pt x="121" y="385" on="1"/>
        <pt x="145" y="394" on="0"/>
        <pt x="194" y="405" on="0"/>
        <pt x="227" y="405" on="1"/>
        <pt x="311" y="405" on="0"/>
        <pt x="419" y="300" on="0"/>
      </contour>
    </TTGlyph>
    <TTGlyph name="five.inf" xMin="46" yMin="-158" xMax="281" yMax="199">
      <component glyphName="five.num" x="0" y="-484" flags="0x4"/>
    </TTGlyph>
    <TTGlyph name="five.inf_flat" xMin="46" yMin="-158" xMax="281" yMax="199">
      <component glyphName="five.num_flat" x="0" y="-484" flags="0x4"/>
    </TTGlyph>
    <TTGlyph name="five.num" xMin="46" yMin="326" xMax="281" yMax="683">
      <contour>
        <pt x="281" y="439" on="1"/>
        <pt x="281" y="385" on="0"/>
        <pt x="204" y="326" on="0"/>
        <pt x="148" y="326" on="1"/>
        <pt x="117" y="326" on="0"/>
        <pt x="68" y="340" on="0"/>
        <pt x="46" y="350" on="1"/>
        <pt x="52" y="385" on="1"/>
        <pt x="75" y="373" on="0"/>
        <pt x="121" y="359" on="0"/>
        <pt x="148" y="359" on="1"/>
        <pt x="187" y="359" on="0"/>
        <pt x="242" y="397" on="0"/>
        <pt x="242" y="437" on="1"/>
        <pt x="242" y="474" on="0"/>
        <pt x="194" y="509" on="0"/>
        <pt x="158" y="509" on="1"/>
        <pt x="136" y="509" on="0"/>
        <pt x="101" y="500" on="0"/>
        <pt x="88" y="493" on="1"/>
        <pt x="63" y="499" on="1"/>
        <pt x="76" y="683" on="1"/>
        <pt x="260" y="683" on="1"/>
        <pt x="266" y="649" on="1"/>
        <pt x="108" y="649" on="1"/>
        <pt x="99" y="529" on="1"/>
        <pt x="111" y="533" on="0"/>
        <pt x="144" y="541" on="0"/>
        <pt x="164" y="541" on="1"/>
        <pt x="217" y="541" on="0"/>
        <pt x="281" y="485" on="0"/>
      </contour>
    </TTGlyph>
    <TTGlyph name="five.num_flat" xMin="46" yMin="326" xMax="281" yMax="683">
      <contour>
        <pt x="281" y="439" on="1"/>
        <pt x="281" y="385" on="0"/>
        <pt x="204" y="326" on="0"/>
        <pt x="148" y="326" on="1"/>
        <pt x="117" y="326" on="0"/>
        <pt x="68" y="340" on="0"/>
        <pt x="46" y="350" on="1"/>
        <pt x="52" y="385" on="1"/>
        <pt x="75" y="373" on="0"/>
        <pt x="121" y="359" on="0"/>
        <pt x="148" y="359" on="1"/>
        <pt x="187" y="359" on="0"/>
        <pt x="242" y="397" on="0"/>
        <pt x="242" y="437" on="1"/>
        <pt x="242" y="474" on="0"/>
        <pt x="194" y="509" on="0"/>
        <pt x="158" y="509" on="1"/>
        <pt x="136" y="509" on="0"/>
        <pt x="101" y="500" on="0"/>
        <pt x="88" y="493" on="1"/>
        <pt x="63" y="499" on="1"/>
        <pt x="76" y="683" on="1"/>
        <pt x="263" y="683" on="1"/>
        <pt x="263" y="649" on="1"/>
        <pt x="108" y="649" on="1"/>
        <pt x="99" y="529" on="1"/>
        <pt x="111" y="533" on="0"/>
        <pt x="144" y="541" on="0"/>
        <pt x="164" y="541" on="1"/>
        <pt x="217" y="541" on="0"/>
        <pt x="281" y="485" on="0"/>
      </contour>
    </TTGlyph>
    <TTGlyph name="five.sup" xMin="46" yMin="419" xMax="281" yMax="776">
      <component glyphName="five.num" x="0" y="93" flags="0x4"/>
    </TTGlyph>
    <TTGlyph name="five.sup_flat" xMin="46" yMin="419" xMax="281" yMax="776">
      <component glyphName="five.num_flat" x="0" y="93" flags="0x4"/>
    </TTGlyph>
    <TTGlyph name="five.tab" xMin="53" yMin="-9" xMax="441" yMax="683">
      <contour>
        <pt x="441" y="208" on="1"/>
        <pt x="441" y="156" on="0"/>
        <pt x="406" y="75" on="0"/>
        <pt x="346" y="20" on="0"/>
        <pt x="266" y="-9" on="0"/>
        <pt x="221" y="-9" on="1"/>
        <pt x="171" y="-9" on="0"/>
        <pt x="85" y="19" on="0"/>
        <pt x="53" y="38" on="1"/>
        <pt x="61" y="83" on="1"/>
        <pt x="98" y="60" on="0"/>
        <pt x="174" y="33" on="0"/>
        <pt x="223" y="33" on="1"/>
        <pt x="257" y="33" on="0"/>
        <pt x="318" y="54" on="0"/>
        <pt x="364" y="96" on="0"/>
        <pt x="392" y="162" on="0"/>
        <pt x="392" y="207" on="1"/>
        <pt x="392" y="274" on="0"/>
        <pt x="314" y="362" on="0"/>
        <pt x="234" y="362" on="1"/>
        <pt x="200" y="362" on="0"/>
        <pt x="140" y="348" on="0"/>
        <pt x="109" y="335" on="1"/>
        <pt x="81" y="341" on="1"/>
        <pt x="105" y="683" on="1"/>
        <pt x="409" y="683" on="1"/>
        <pt x="415" y="641" on="1"/>
        <pt x="145" y="641" on="1"/>
        <pt x="126" y="382" on="1"/>
        <pt x="151" y="391" on="0"/>
        <pt x="207" y="404" on="0"/>
        <pt x="236" y="404" on="1"/>
        <pt x="335" y="404" on="0"/>
        <pt x="441" y="295" on="0"/>
      </contour>
    </TTGlyph>
    <TTGlyph name="five.tab_flat" xMin="53" yMin="-9" xMax="441" yMax="683">
      <contour>
        <pt x="441" y="208" on="1"/>
        <pt x="441" y="156" on="0"/>
        <pt x="406" y="75" on="0"/>
        <pt x="346" y="20" on="0"/>
        <pt x="266" y="-9" on="0"/>
        <pt x="221" y="-9" on="1"/>
        <pt x="171" y="-9" on="0"/>
        <pt x="85" y="19" on="0"/>
        <pt x="53" y="38" on="1"/>
        <pt x="61" y="83" on="1"/>
        <pt x="98" y="60" on="0"/>
        <pt x="174" y="33" on="0"/>
        <pt x="223" y="33" on="1"/>
        <pt x="257" y="33" on="0"/>
        <pt x="318" y="54" on="0"/>
        <pt x="364" y="96" on="0"/>
        <pt x="392" y="162" on="0"/>
        <pt x="392" y="207" on="1"/>
        <pt x="392" y="274" on="0"/>
        <pt x="314" y="362" on="0"/>
        <pt x="234" y="362" on="1"/>
        <pt x="200" y="362" on="0"/>
        <pt x="140" y="348" on="0"/>
        <pt x="109" y="335" on="1"/>
        <pt x="81" y="341" on="1"/>
        <pt x="105" y="683" on="1"/>
        <pt x="412" y="683" on="1"/>
        <pt x="412" y="641" on="1"/>
        <pt x="145" y="641" on="1"/>
        <pt x="126" y="382" on="1"/>
        <pt x="151" y="391" on="0"/>
        <pt x="207" y="404" on="0"/>
        <pt x="236" y="404" on="1"/>
        <pt x="335" y="404" on="0"/>
        <pt x="441" y="295" on="0"/>
      </contour>
    </TTGlyph>
    <TTGlyph name="fiveeighths" xMin="47" yMin="-10" xMax="686" yMax="694">
      <component glyphName="eight.num" x="403" y="-334" flags="0x4"/>
      <component glyphName="fraction" x="244" y="0" flags="0x4"/>
      <component glyphName="five.num" x="1" y="0" flags="0x4"/>
    </TTGlyph>
    <TTGlyph name="fiveeighths.flat" xMin="47" yMin="-10" xMax="686" yMax="694">
      <component glyphName="eight.num" x="403" y="-334" flags="0x4"/>
      <component glyphName="fraction" x="244" y="0" flags="0x4"/>
      <component glyphName="five.num_flat" x="1" y="0" flags="0x4"/>
    </TTGlyph>
    <TTGlyph name="fivesixths" xMin="47" yMin="-9" xMax="686" yMax="694">
      <component glyphName="six.num" x="397" y="-334" flags="0x4"/>
      <component glyphName="fraction" x="251" y="0" flags="0x4"/>
      <component glyphName="five.num" x="1" y="0" flags="0x4"/>
    </TTGlyph>
    <TTGlyph name="fivesixths.flat" xMin="47" yMin="-9" xMax="686" yMax="694">
      <component glyphName="six.num" x="397" y="-334" flags="0x4"/>
      <component glyphName="fraction" x="251" y="0" flags="0x4"/>
      <component glyphName="five.num_flat" x="1" y="0" flags="0x4"/>
    </TTGlyph>
    <TTGlyph name="fl" xMin="26" yMin="0" xMax="378" yMax="715">
      <component glyphName="f" x="0" y="0" flags="0x4"/>
      <component glyphName="l" x="255" y="0" flags="0x4"/>
    </TTGlyph>
    <TTGlyph name="fl.flat" xMin="26" yMin="0" xMax="378" yMax="715">
      <component glyphName="f.flat" x="0" y="0" flags="0x4"/>
      <component glyphName="l" x="255" y="0" flags="0x4"/>
    </TTGlyph>
    <TTGlyph name="florin" xMin="74" yMin="0" xMax="340" yMax="691">
      <contour>
        <pt x="297" y="418" on="1"/>
        <pt x="188" y="418" on="1"/>
        <pt x="121" y="0" on="1"/>
        <pt x="77" y="0" on="1"/>
        <pt x="144" y="418" on="1"/>
        <pt x="74" y="418" on="1"/>
        <pt x="80" y="458" on="1"/>
        <pt x="150" y="458" on="1"/>
        <pt x="168" y="569" on="1"/>
        <pt x="178" y="632" on="0"/>
        <pt x="244" y="691" on="0"/>
        <pt x="297" y="691" on="1"/>
        <pt x="310" y="691" on="0"/>
        <pt x="333" y="688" on="0"/>
        <pt x="340" y="687" on="1"/>
        <pt x="340" y="645" on="1"/>
        <pt x="331" y="647" on="0"/>
        <pt x="310" y="650" on="0"/>
        <pt x="297" y="650" on="1"/>
        <pt x="258" y="650" on="0"/>
        <pt x="219" y="607" on="0"/>
        <pt x="212" y="565" on="1"/>
        <pt x="195" y="458" on="1"/>
        <pt x="297" y="458" on="1"/>
      </contour>
    </TTGlyph>
    <TTGlyph name="four" xMin="35" yMin="0" xMax="485" yMax="688">
      <contour>
        <pt x="343" y="0" on="1"/>
        <pt x="343" y="169" on="1"/>
        <pt x="35" y="169" on="1"/>
        <pt x="35" y="198" on="1"/>
        <pt x="330" y="688" on="1"/>
        <pt x="386" y="688" on="1"/>
        <pt x="386" y="208" on="1"/>
        <pt x="485" y="208" on="1"/>
        <pt x="485" y="169" on="1"/>
        <pt x="386" y="169" on="1"/>
        <pt x="386" y="0" on="1"/>
      </contour>
      <contour>
        <pt x="343" y="208" on="1"/>
        <pt x="343" y="632" on="1"/>
        <pt x="87" y="208" on="1"/>
      </contour>
    </TTGlyph>
    <TTGlyph name="four.alt" xMin="35" yMin="0" xMax="485" yMax="688">
      <contour>
        <pt x="342" y="0" on="1"/>
        <pt x="342" y="168" on="1"/>
        <pt x="35" y="168" on="1"/>
        <pt x="35" y="197" on="1"/>
        <pt x="329" y="688" on="1"/>
        <pt x="374" y="679" on="1"/>
        <pt x="90" y="208" on="1"/>
        <pt x="342" y="208" on="1"/>
        <pt x="342" y="409" on="1"/>
        <pt x="386" y="420" on="1"/>
        <pt x="386" y="208" on="1"/>
        <pt x="485" y="208" on="1"/>
        <pt x="485" y="168" on="1"/>
        <pt x="386" y="168" on="1"/>
        <pt x="386" y="0" on="1"/>
      </contour>
    </TTGlyph>
    <TTGlyph name="four.alt_flat" xMin="35" yMin="0" xMax="485" yMax="683">
      <contour>
        <pt x="342" y="0" on="1"/>
        <pt x="342" y="168" on="1"/>
        <pt x="35" y="168" on="1"/>
        <pt x="35" y="197" on="1"/>
        <pt x="326" y="683" on="1"/>
        <pt x="377" y="683" on="1"/>
        <pt x="90" y="208" on="1"/>
        <pt x="342" y="208" on="1"/>
        <pt x="342" y="414" on="1"/>
        <pt x="386" y="414" on="1"/>
        <pt x="386" y="208" on="1"/>
        <pt x="485" y="208" on="1"/>
        <pt x="485" y="168" on="1"/>
        <pt x="386" y="168" on="1"/>
        <pt x="386" y="0" on="1"/>
      </contour>
    </TTGlyph>
    <TTGlyph name="four.den" xMin="32" yMin="-2" xMax="291" yMax="353">
      <component glyphName="four.num" x="0" y="-334" flags="0x4"/>
    </TTGlyph>
    <TTGlyph name="four.inf" xMin="32" yMin="-152" xMax="291" yMax="203">
      <component glyphName="four.num" x="0" y="-484" flags="0x4"/>
    </TTGlyph>
    <TTGlyph name="four.num" xMin="32" yMin="332" xMax="291" yMax="687">
      <contour>
        <pt x="291" y="414" on="1"/>
        <pt x="238" y="414" on="1"/>
        <pt x="238" y="332" on="1"/>
        <pt x="202" y="332" on="1"/>
        <pt x="202" y="414" on="1"/>
        <pt x="32" y="414" on="1"/>
        <pt x="32" y="443" on="1"/>
        <pt x="188" y="687" on="1"/>
        <pt x="238" y="687" on="1"/>
        <pt x="238" y="445" on="1"/>
        <pt x="291" y="445" on="1"/>
      </contour>
      <contour>
        <pt x="71" y="444" on="1"/>
        <pt x="115" y="445" on="1"/>
        <pt x="202" y="445" on="1"/>
        <pt x="202" y="651" on="1"/>
        <pt x="198" y="651" on="1"/>
        <pt x="155" y="580" on="1"/>
        <pt x="100" y="494" on="1"/>
        <pt x="70" y="447" on="1"/>
      </contour>
    </TTGlyph>
    <TTGlyph name="four.sup" xMin="32" yMin="425" xMax="291" yMax="780">
      <component glyphName="four.num" x="0" y="93" flags="0x4"/>
    </TTGlyph>
    <TTGlyph name="four.tab" xMin="25" yMin="0" xMax="455" yMax="688">
      <contour>
        <pt x="455" y="169" on="1"/>
        <pt x="363" y="169" on="1"/>
        <pt x="363" y="0" on="1"/>
        <pt x="320" y="0" on="1"/>
        <pt x="320" y="169" on="1"/>
        <pt x="25" y="169" on="1"/>
        <pt x="25" y="197" on="1"/>
        <pt x="307" y="688" on="1"/>
        <pt x="363" y="688" on="1"/>
        <pt x="363" y="208" on="1"/>
        <pt x="455" y="208" on="1"/>
      </contour>
      <contour>
        <pt x="76" y="208" on="1"/>
        <pt x="320" y="208" on="1"/>
        <pt x="320" y="631" on="1"/>
        <pt x="319" y="631" on="1"/>
        <pt x="248" y="506" on="1"/>
      </contour>
    </TTGlyph>
    <TTGlyph name="fourfifths" xMin="33" yMin="-9" xMax="684" yMax="694">
      <component glyphName="four.num" x="1" y="0" flags="0x4"/>
      <component glyphName="five.num" x="403" y="-334" flags="0x4"/>
      <component glyphName="fraction" x="252" y="0" flags="0x4"/>
    </TTGlyph>
    <TTGlyph name="fourfifths.flat" xMin="33" yMin="-9" xMax="684" yMax="694">
      <component glyphName="four.num" x="1" y="0" flags="0x4"/>
      <component glyphName="five.num_flat" x="403" y="-334" flags="0x4"/>
      <component glyphName="fraction" x="252" y="0" flags="0x4"/>
    </TTGlyph>
    <TTGlyph name="fraction" xMin="-81" yMin="-9" xMax="324" yMax="694">
      <contour>
        <pt x="-48" y="-9" on="1"/>
        <pt x="-81" y="2" on="1"/>
        <pt x="107" y="347" on="1"/>
        <pt x="291" y="694" on="1"/>
        <pt x="324" y="683" on="1"/>
        <pt x="134" y="335" on="1"/>
      </contour>
    </TTGlyph>
    <TTGlyph name="g" xMin="17" yMin="-183" xMax="429" yMax="479">
      <contour>
        <pt x="319" y="321" on="1"/>
        <pt x="319" y="370" on="0"/>
        <pt x="257" y="441" on="0"/>
        <pt x="205" y="441" on="1"/>
        <pt x="153" y="441" on="0"/>
        <pt x="94" y="371" on="0"/>
        <pt x="94" y="321" on="1"/>
        <pt x="94" y="273" on="0"/>
        <pt x="153" y="200" on="0"/>
        <pt x="206" y="200" on="1"/>
        <pt x="259" y="200" on="0"/>
        <pt x="319" y="272" on="0"/>
      </contour>
      <contour>
        <pt x="414" y="-44" on="1"/>
        <pt x="414" y="-74" on="0"/>
        <pt x="382" y="-125" on="0"/>
        <pt x="327" y="-162" on="0"/>
        <pt x="251" y="-183" on="0"/>
        <pt x="208" y="-183" on="1"/>
        <pt x="168" y="-183" on="0"/>
        <pt x="98" y="-167" on="0"/>
        <pt x="46" y="-136" on="0"/>
        <pt x="17" y="-90" on="0"/>
        <pt x="17" y="-61" on="1"/>
        <pt x="17" y="-23" on="0"/>
        <pt x="77" y="42" on="0"/>
        <pt x="130" y="67" on="1"/>
        <pt x="107" y="78" on="0"/>
        <pt x="87" y="104" on="0"/>
        <pt x="87" y="120" on="1"/>
        <pt x="87" y="137" on="0"/>
        <pt x="108" y="166" on="0"/>
        <pt x="129" y="181" on="1"/>
        <pt x="92" y="200" on="0"/>
        <pt x="47" y="274" on="0"/>
        <pt x="47" y="321" on="1"/>
        <pt x="47" y="391" on="0"/>
        <pt x="140" y="479" on="0"/>
        <pt x="205" y="479" on="1"/>
        <pt x="236" y="479" on="0"/>
        <pt x="291" y="459" on="0"/>
        <pt x="312" y="440" on="1"/>
        <pt x="421" y="476" on="1"/>
        <pt x="429" y="426" on="1"/>
        <pt x="336" y="415" on="1"/>
        <pt x="349" y="396" on="0"/>
        <pt x="365" y="348" on="0"/>
        <pt x="365" y="321" on="1"/>
        <pt x="365" y="252" on="0"/>
        <pt x="272" y="162" on="0"/>
        <pt x="206" y="162" on="1"/>
        <pt x="196" y="162" on="0"/>
        <pt x="175" y="165" on="0"/>
        <pt x="165" y="167" on="1"/>
        <pt x="149" y="157" on="0"/>
        <pt x="133" y="139" on="0"/>
        <pt x="133" y="129" on="1"/>
        <pt x="133" y="113" on="0"/>
        <pt x="175" y="93" on="0"/>
        <pt x="241" y="79" on="1"/>
        <pt x="259" y="76" on="1"/>
        <pt x="341" y="58" on="0"/>
        <pt x="414" y="5" on="0"/>
      </contour>
      <contour>
        <pt x="213" y="-145" on="1"/>
        <pt x="284" y="-145" on="0"/>
        <pt x="368" y="-86" on="0"/>
        <pt x="368" y="-49" on="1"/>
        <pt x="368" y="-19" on="0"/>
        <pt x="316" y="20" on="0"/>
        <pt x="247" y="34" on="1"/>
        <pt x="229" y="38" on="1"/>
        <pt x="212" y="42" on="0"/>
        <pt x="185" y="48" on="0"/>
        <pt x="172" y="52" on="1"/>
        <pt x="121" y="30" on="0"/>
        <pt x="64" y="-25" on="0"/>
        <pt x="64" y="-59" on="1"/>
        <pt x="64" y="-99" on="0"/>
        <pt x="148" y="-145" on="0"/>
      </contour>
    </TTGlyph>
</ttFont>
